%TF.GenerationSoftware,KiCad,Pcbnew,9.0.0*%
%TF.CreationDate,2025-04-19T09:26:25+05:00*%
%TF.ProjectId,SRT,5352542e-6b69-4636-9164-5f7063625858,rev?*%
%TF.SameCoordinates,Original*%
%TF.FileFunction,Legend,Top*%
%TF.FilePolarity,Positive*%
%FSLAX46Y46*%
G04 Gerber Fmt 4.6, Leading zero omitted, Abs format (unit mm)*
G04 Created by KiCad (PCBNEW 9.0.0) date 2025-04-19 09:26:25*
%MOMM*%
%LPD*%
G01*
G04 APERTURE LIST*
%ADD10C,0.150000*%
%ADD11C,0.120000*%
G04 APERTURE END LIST*
D10*
X460191291Y-449851666D02*
X459715100Y-450184999D01*
X460191291Y-450423094D02*
X459191291Y-450423094D01*
X459191291Y-450423094D02*
X459191291Y-450042142D01*
X459191291Y-450042142D02*
X459238910Y-449946904D01*
X459238910Y-449946904D02*
X459286529Y-449899285D01*
X459286529Y-449899285D02*
X459381767Y-449851666D01*
X459381767Y-449851666D02*
X459524624Y-449851666D01*
X459524624Y-449851666D02*
X459619862Y-449899285D01*
X459619862Y-449899285D02*
X459667481Y-449946904D01*
X459667481Y-449946904D02*
X459715100Y-450042142D01*
X459715100Y-450042142D02*
X459715100Y-450423094D01*
X459286529Y-449470713D02*
X459238910Y-449423094D01*
X459238910Y-449423094D02*
X459191291Y-449327856D01*
X459191291Y-449327856D02*
X459191291Y-449089761D01*
X459191291Y-449089761D02*
X459238910Y-448994523D01*
X459238910Y-448994523D02*
X459286529Y-448946904D01*
X459286529Y-448946904D02*
X459381767Y-448899285D01*
X459381767Y-448899285D02*
X459477005Y-448899285D01*
X459477005Y-448899285D02*
X459619862Y-448946904D01*
X459619862Y-448946904D02*
X460191291Y-449518332D01*
X460191291Y-449518332D02*
X460191291Y-448899285D01*
X459191291Y-448565951D02*
X459191291Y-447946904D01*
X459191291Y-447946904D02*
X459572243Y-448280237D01*
X459572243Y-448280237D02*
X459572243Y-448137380D01*
X459572243Y-448137380D02*
X459619862Y-448042142D01*
X459619862Y-448042142D02*
X459667481Y-447994523D01*
X459667481Y-447994523D02*
X459762719Y-447946904D01*
X459762719Y-447946904D02*
X460000814Y-447946904D01*
X460000814Y-447946904D02*
X460096052Y-447994523D01*
X460096052Y-447994523D02*
X460143672Y-448042142D01*
X460143672Y-448042142D02*
X460191291Y-448137380D01*
X460191291Y-448137380D02*
X460191291Y-448423094D01*
X460191291Y-448423094D02*
X460143672Y-448518332D01*
X460143672Y-448518332D02*
X460096052Y-448565951D01*
X448293614Y-435763628D02*
X447960281Y-435287437D01*
X447722186Y-435763628D02*
X447722186Y-434763628D01*
X447722186Y-434763628D02*
X448103138Y-434763628D01*
X448103138Y-434763628D02*
X448198376Y-434811247D01*
X448198376Y-434811247D02*
X448245995Y-434858866D01*
X448245995Y-434858866D02*
X448293614Y-434954104D01*
X448293614Y-434954104D02*
X448293614Y-435096961D01*
X448293614Y-435096961D02*
X448245995Y-435192199D01*
X448245995Y-435192199D02*
X448198376Y-435239818D01*
X448198376Y-435239818D02*
X448103138Y-435287437D01*
X448103138Y-435287437D02*
X447722186Y-435287437D01*
X449245995Y-435763628D02*
X448674567Y-435763628D01*
X448960281Y-435763628D02*
X448960281Y-434763628D01*
X448960281Y-434763628D02*
X448865043Y-434906485D01*
X448865043Y-434906485D02*
X448769805Y-435001723D01*
X448769805Y-435001723D02*
X448674567Y-435049342D01*
X449579329Y-434763628D02*
X450245995Y-434763628D01*
X450245995Y-434763628D02*
X449817424Y-435763628D01*
X446503138Y-448363628D02*
X446503138Y-449077913D01*
X446503138Y-449077913D02*
X446455519Y-449220770D01*
X446455519Y-449220770D02*
X446360281Y-449316009D01*
X446360281Y-449316009D02*
X446217424Y-449363628D01*
X446217424Y-449363628D02*
X446122186Y-449363628D01*
X446931710Y-448458866D02*
X446979329Y-448411247D01*
X446979329Y-448411247D02*
X447074567Y-448363628D01*
X447074567Y-448363628D02*
X447312662Y-448363628D01*
X447312662Y-448363628D02*
X447407900Y-448411247D01*
X447407900Y-448411247D02*
X447455519Y-448458866D01*
X447455519Y-448458866D02*
X447503138Y-448554104D01*
X447503138Y-448554104D02*
X447503138Y-448649342D01*
X447503138Y-448649342D02*
X447455519Y-448792199D01*
X447455519Y-448792199D02*
X446884091Y-449363628D01*
X446884091Y-449363628D02*
X447503138Y-449363628D01*
D11*
%TO.C,R23*%
X458026472Y-444651309D02*
X458026472Y-453891309D01*
X458026472Y-453891309D02*
X461466472Y-453891309D01*
X459746472Y-442691309D02*
X459746472Y-444651309D01*
X459746472Y-455851309D02*
X459746472Y-453891309D01*
X461466472Y-444651309D02*
X458026472Y-444651309D01*
X461466472Y-453891309D02*
X461466472Y-444651309D01*
%TO.C,R17*%
X440106472Y-436081309D02*
X442066472Y-436081309D01*
X442066472Y-434361309D02*
X442066472Y-437801309D01*
X442066472Y-437801309D02*
X451306472Y-437801309D01*
X451306472Y-434361309D02*
X442066472Y-434361309D01*
X451306472Y-437801309D02*
X451306472Y-434361309D01*
X453266472Y-436081309D02*
X451306472Y-436081309D01*
%TO.C,J2*%
X437446472Y-439001309D02*
X442196472Y-439001309D01*
X437446472Y-441631309D02*
X437446472Y-439001309D01*
X437446472Y-448031309D02*
X437446472Y-444431309D01*
X437446472Y-454331309D02*
X437446472Y-450731309D01*
X437446472Y-459851309D02*
X437446472Y-457131309D01*
X437446472Y-459851309D02*
X440846472Y-459851309D01*
X440846472Y-459851309D02*
X440846472Y-462851309D01*
X440846472Y-462851309D02*
X452486472Y-462851309D01*
X442196472Y-436081309D02*
X442196472Y-439001309D01*
X442236472Y-436081309D02*
X451136472Y-436081309D01*
X451136472Y-436081309D02*
X451136472Y-439001309D01*
X451136472Y-439001309D02*
X455886472Y-439001309D01*
X452486472Y-459851309D02*
X452486472Y-462851309D01*
X452486472Y-459851309D02*
X455886472Y-459851309D01*
X455886472Y-439001309D02*
X455886472Y-441631309D01*
X455886472Y-444431309D02*
X455886472Y-448031309D01*
X455886472Y-450731309D02*
X455886472Y-454331309D01*
X455886472Y-459851309D02*
X455886472Y-457131309D01*
%TD*%
M02*
