%TF.GenerationSoftware,KiCad,Pcbnew,9.0.0*%
%TF.CreationDate,2025-04-19T09:25:49+05:00*%
%TF.ProjectId,SRT,5352542e-6b69-4636-9164-5f7063625858,rev?*%
%TF.SameCoordinates,Original*%
%TF.FileFunction,Legend,Top*%
%TF.FilePolarity,Positive*%
%FSLAX46Y46*%
G04 Gerber Fmt 4.6, Leading zero omitted, Abs format (unit mm)*
G04 Created by KiCad (PCBNEW 9.0.0) date 2025-04-19 09:25:49*
%MOMM*%
%LPD*%
G01*
G04 APERTURE LIST*
%ADD10C,0.150000*%
%ADD11C,0.120000*%
G04 APERTURE END LIST*
D10*
X568516052Y-550534463D02*
X568563672Y-550582082D01*
X568563672Y-550582082D02*
X568611291Y-550724939D01*
X568611291Y-550724939D02*
X568611291Y-550820177D01*
X568611291Y-550820177D02*
X568563672Y-550963034D01*
X568563672Y-550963034D02*
X568468433Y-551058272D01*
X568468433Y-551058272D02*
X568373195Y-551105891D01*
X568373195Y-551105891D02*
X568182719Y-551153510D01*
X568182719Y-551153510D02*
X568039862Y-551153510D01*
X568039862Y-551153510D02*
X567849386Y-551105891D01*
X567849386Y-551105891D02*
X567754148Y-551058272D01*
X567754148Y-551058272D02*
X567658910Y-550963034D01*
X567658910Y-550963034D02*
X567611291Y-550820177D01*
X567611291Y-550820177D02*
X567611291Y-550724939D01*
X567611291Y-550724939D02*
X567658910Y-550582082D01*
X567658910Y-550582082D02*
X567706529Y-550534463D01*
X568611291Y-549534463D02*
X568135100Y-549867796D01*
X568611291Y-550105891D02*
X567611291Y-550105891D01*
X567611291Y-550105891D02*
X567611291Y-549724939D01*
X567611291Y-549724939D02*
X567658910Y-549629701D01*
X567658910Y-549629701D02*
X567706529Y-549582082D01*
X567706529Y-549582082D02*
X567801767Y-549534463D01*
X567801767Y-549534463D02*
X567944624Y-549534463D01*
X567944624Y-549534463D02*
X568039862Y-549582082D01*
X568039862Y-549582082D02*
X568087481Y-549629701D01*
X568087481Y-549629701D02*
X568135100Y-549724939D01*
X568135100Y-549724939D02*
X568135100Y-550105891D01*
X567611291Y-549105891D02*
X568420814Y-549105891D01*
X568420814Y-549105891D02*
X568516052Y-549058272D01*
X568516052Y-549058272D02*
X568563672Y-549010653D01*
X568563672Y-549010653D02*
X568611291Y-548915415D01*
X568611291Y-548915415D02*
X568611291Y-548724939D01*
X568611291Y-548724939D02*
X568563672Y-548629701D01*
X568563672Y-548629701D02*
X568516052Y-548582082D01*
X568516052Y-548582082D02*
X568420814Y-548534463D01*
X568420814Y-548534463D02*
X567611291Y-548534463D01*
X568611291Y-548058272D02*
X567611291Y-548058272D01*
X567611291Y-548058272D02*
X568611291Y-547486844D01*
X568611291Y-547486844D02*
X567611291Y-547486844D01*
X568516052Y-546439225D02*
X568563672Y-546486844D01*
X568563672Y-546486844D02*
X568611291Y-546629701D01*
X568611291Y-546629701D02*
X568611291Y-546724939D01*
X568611291Y-546724939D02*
X568563672Y-546867796D01*
X568563672Y-546867796D02*
X568468433Y-546963034D01*
X568468433Y-546963034D02*
X568373195Y-547010653D01*
X568373195Y-547010653D02*
X568182719Y-547058272D01*
X568182719Y-547058272D02*
X568039862Y-547058272D01*
X568039862Y-547058272D02*
X567849386Y-547010653D01*
X567849386Y-547010653D02*
X567754148Y-546963034D01*
X567754148Y-546963034D02*
X567658910Y-546867796D01*
X567658910Y-546867796D02*
X567611291Y-546724939D01*
X567611291Y-546724939D02*
X567611291Y-546629701D01*
X567611291Y-546629701D02*
X567658910Y-546486844D01*
X567658910Y-546486844D02*
X567706529Y-546439225D01*
X568611291Y-546010653D02*
X567611291Y-546010653D01*
X568087481Y-546010653D02*
X568087481Y-545439225D01*
X568611291Y-545439225D02*
X567611291Y-545439225D01*
X653376052Y-551034463D02*
X653423672Y-551082082D01*
X653423672Y-551082082D02*
X653471291Y-551224939D01*
X653471291Y-551224939D02*
X653471291Y-551320177D01*
X653471291Y-551320177D02*
X653423672Y-551463034D01*
X653423672Y-551463034D02*
X653328433Y-551558272D01*
X653328433Y-551558272D02*
X653233195Y-551605891D01*
X653233195Y-551605891D02*
X653042719Y-551653510D01*
X653042719Y-551653510D02*
X652899862Y-551653510D01*
X652899862Y-551653510D02*
X652709386Y-551605891D01*
X652709386Y-551605891D02*
X652614148Y-551558272D01*
X652614148Y-551558272D02*
X652518910Y-551463034D01*
X652518910Y-551463034D02*
X652471291Y-551320177D01*
X652471291Y-551320177D02*
X652471291Y-551224939D01*
X652471291Y-551224939D02*
X652518910Y-551082082D01*
X652518910Y-551082082D02*
X652566529Y-551034463D01*
X653471291Y-550034463D02*
X652995100Y-550367796D01*
X653471291Y-550605891D02*
X652471291Y-550605891D01*
X652471291Y-550605891D02*
X652471291Y-550224939D01*
X652471291Y-550224939D02*
X652518910Y-550129701D01*
X652518910Y-550129701D02*
X652566529Y-550082082D01*
X652566529Y-550082082D02*
X652661767Y-550034463D01*
X652661767Y-550034463D02*
X652804624Y-550034463D01*
X652804624Y-550034463D02*
X652899862Y-550082082D01*
X652899862Y-550082082D02*
X652947481Y-550129701D01*
X652947481Y-550129701D02*
X652995100Y-550224939D01*
X652995100Y-550224939D02*
X652995100Y-550605891D01*
X652518910Y-548320177D02*
X652471291Y-548415415D01*
X652471291Y-548415415D02*
X652471291Y-548558272D01*
X652471291Y-548558272D02*
X652518910Y-548701129D01*
X652518910Y-548701129D02*
X652614148Y-548796367D01*
X652614148Y-548796367D02*
X652709386Y-548843986D01*
X652709386Y-548843986D02*
X652899862Y-548891605D01*
X652899862Y-548891605D02*
X653042719Y-548891605D01*
X653042719Y-548891605D02*
X653233195Y-548843986D01*
X653233195Y-548843986D02*
X653328433Y-548796367D01*
X653328433Y-548796367D02*
X653423672Y-548701129D01*
X653423672Y-548701129D02*
X653471291Y-548558272D01*
X653471291Y-548558272D02*
X653471291Y-548463034D01*
X653471291Y-548463034D02*
X653423672Y-548320177D01*
X653423672Y-548320177D02*
X653376052Y-548272558D01*
X653376052Y-548272558D02*
X653042719Y-548272558D01*
X653042719Y-548272558D02*
X653042719Y-548463034D01*
X653185576Y-547891605D02*
X653185576Y-547415415D01*
X653471291Y-547986843D02*
X652471291Y-547653510D01*
X652471291Y-547653510D02*
X653471291Y-547320177D01*
X653471291Y-546986843D02*
X652471291Y-546986843D01*
X653471291Y-546510653D02*
X652471291Y-546510653D01*
X652471291Y-546510653D02*
X653471291Y-545939225D01*
X653471291Y-545939225D02*
X652471291Y-545939225D01*
D11*
%TO.C,CRUNCH*%
X569471472Y-544098809D02*
X570801472Y-544098809D01*
X569471472Y-545428809D02*
X569471472Y-544098809D01*
X569471472Y-546698809D02*
X569471472Y-551838809D01*
X569471472Y-546698809D02*
X572131472Y-546698809D01*
X569471472Y-551838809D02*
X572131472Y-551838809D01*
X572131472Y-546698809D02*
X572131472Y-551838809D01*
%TO.C,CR GAIN*%
X654151472Y-544728809D02*
X655481472Y-544728809D01*
X654151472Y-546058809D02*
X654151472Y-544728809D01*
X654151472Y-547328809D02*
X654151472Y-552468809D01*
X654151472Y-547328809D02*
X656811472Y-547328809D01*
X654151472Y-552468809D02*
X656811472Y-552468809D01*
X656811472Y-547328809D02*
X656811472Y-552468809D01*
%TD*%
M02*
