M48
; DRILL file {KiCad 9.0.0} date 2025-04-19T09:25:51+0500
; FORMAT={-:-/ absolute / metric / decimal}
; #@! TF.CreationDate,2025-04-19T09:25:51+05:00
; #@! TF.GenerationSoftware,Kicad,Pcbnew,9.0.0
; #@! TF.FileFunction,Plated,1,2,PTH
FMAT,2
METRIC
; #@! TA.AperFunction,Plated,PTH,ViaDrill
T1C0.400
; #@! TA.AperFunction,Plated,PTH,ComponentDrill
T2C0.700
; #@! TA.AperFunction,Plated,PTH,ComponentDrill
T3C0.800
; #@! TA.AperFunction,Plated,PTH,ComponentDrill
T4C1.000
; #@! TA.AperFunction,Plated,PTH,ComponentDrill
T5C1.300
%
G90
G05
T1
X555.471Y-556.109
X574.791Y-556.109
X630.471Y-550.399
X630.471Y-555.779
T2
X586.661Y-545.459
X594.281Y-545.459
T3
X580.471Y-545.459
X580.471Y-550.459
T4
X570.801Y-545.429
X570.801Y-547.969
X570.801Y-550.509
X598.466Y-545.441
X598.466Y-555.441
X610.441Y-545.441
X610.441Y-555.441
X647.796Y-546.099
X647.796Y-553.599
X655.481Y-546.059
X655.481Y-548.599
X655.481Y-551.139
T5
X555.471Y-564.146
X560.471Y-564.146
X565.471Y-564.146
X580.471Y-564.146
X585.471Y-564.146
X590.471Y-564.146
X605.471Y-564.146
X610.471Y-564.146
X615.471Y-564.146
X630.471Y-564.146
X635.471Y-564.146
X640.471Y-564.146
X655.471Y-564.146
X660.471Y-564.146
X665.471Y-564.146
M30
