%TF.GenerationSoftware,KiCad,Pcbnew,9.0.0*%
%TF.CreationDate,2025-04-19T09:24:27+05:00*%
%TF.ProjectId,SRT,5352542e-6b69-4636-9164-5f7063625858,rev?*%
%TF.SameCoordinates,Original*%
%TF.FileFunction,Copper,L1,Top*%
%TF.FilePolarity,Positive*%
%FSLAX46Y46*%
G04 Gerber Fmt 4.6, Leading zero omitted, Abs format (unit mm)*
G04 Created by KiCad (PCBNEW 9.0.0) date 2025-04-19 09:24:27*
%MOMM*%
%LPD*%
G01*
G04 APERTURE LIST*
%TA.AperFunction,ComponentPad*%
%ADD10R,1.700000X1.700000*%
%TD*%
%TA.AperFunction,ComponentPad*%
%ADD11O,1.700000X1.700000*%
%TD*%
%TA.AperFunction,ComponentPad*%
%ADD12C,2.400000*%
%TD*%
%TA.AperFunction,ComponentPad*%
%ADD13C,2.000000*%
%TD*%
%TA.AperFunction,ComponentPad*%
%ADD14C,2.340000*%
%TD*%
%TA.AperFunction,ComponentPad*%
%ADD15C,1.600000*%
%TD*%
%TA.AperFunction,ComponentPad*%
%ADD16O,1.600000X1.600000*%
%TD*%
%TA.AperFunction,Conductor*%
%ADD17C,1.000000*%
%TD*%
%TA.AperFunction,Conductor*%
%ADD18C,2.000000*%
%TD*%
G04 APERTURE END LIST*
D10*
%TO.P,MASTER,1*%
%TO.N,Net-(C19-Pad1)*%
X766129090Y-497472559D03*
D11*
%TO.P,MASTER,2*%
%TO.N,Net-(C34-Pad1)*%
X763589090Y-497472559D03*
%TO.P,MASTER,3*%
%TO.N,Net-(SW5A-C)*%
X761049090Y-497472559D03*
%TO.P,MASTER,4*%
%TO.N,GND*%
X758509090Y-497472559D03*
%TD*%
D12*
%TO.P,C37,1*%
%TO.N,Net-(C34-Pad1)*%
X736814090Y-502347559D03*
%TO.P,C37,2*%
%TO.N,Net-(C37-Pad2)*%
X751814090Y-502347559D03*
%TD*%
D13*
%TO.P,C11,1*%
%TO.N,Net-(C11-Pad1)*%
X712889090Y-508272559D03*
%TO.P,C11,2*%
%TO.N,Net-(C11-Pad2)*%
X720389090Y-508272559D03*
%TD*%
D14*
%TO.P,RV15,1,1*%
%TO.N,GND*%
X776314090Y-517347559D03*
%TO.P,RV15,2,2*%
%TO.N,Net-(C19-Pad1)*%
X771314090Y-517347559D03*
%TO.P,RV15,3,3*%
%TO.N,Net-(SW5A-C)*%
X766314090Y-517347559D03*
%TD*%
%TO.P,RV18,1,1*%
%TO.N,GND*%
X749314090Y-517347559D03*
%TO.P,RV18,2,2*%
%TO.N,Net-(C37-Pad2)*%
X744314090Y-517347559D03*
%TO.P,RV18,3,3*%
%TO.N,unconnected-(RV18-Pad3)*%
X739314090Y-517347559D03*
%TD*%
D15*
%TO.P,R53,1*%
%TO.N,GND*%
X752009090Y-508522559D03*
D16*
%TO.P,R53,2*%
%TO.N,Net-(C34-Pad1)*%
X736769090Y-508522559D03*
%TD*%
D15*
%TO.P,R7,1*%
%TO.N,Net-(C34-Pad1)*%
X739934090Y-497347559D03*
D16*
%TO.P,R7,2*%
%TO.N,Net-(C9-Pad1)*%
X724694090Y-497347559D03*
%TD*%
D12*
%TO.P,C9,1*%
%TO.N,Net-(C9-Pad1)*%
X726814090Y-502347559D03*
%TO.P,C9,2*%
%TO.N,Net-(C11-Pad1)*%
X711814090Y-502347559D03*
%TD*%
D14*
%TO.P,RV7,1,1*%
%TO.N,unconnected-(RV7-Pad1)*%
X722314090Y-517347559D03*
%TO.P,RV7,2,2*%
%TO.N,Net-(C11-Pad2)*%
X717314090Y-517347559D03*
%TO.P,RV7,3,3*%
%TO.N,Net-(C11-Pad1)*%
X712314090Y-517347559D03*
%TD*%
D17*
%TO.N,Net-(C19-Pad1)*%
X766139090Y-503272559D02*
X766139090Y-497482559D01*
X771314090Y-508447559D02*
X766139090Y-503272559D01*
%TO.N,Net-(C37-Pad2)*%
X749314090Y-502347559D02*
X751814090Y-502347559D01*
X744314090Y-507347559D02*
X749314090Y-502347559D01*
%TO.N,Net-(C11-Pad1)*%
X711814090Y-507197559D02*
X712889090Y-508272559D01*
%TO.N,Net-(C11-Pad2)*%
X717314090Y-517347559D02*
X717314090Y-511347559D01*
%TO.N,Net-(C11-Pad1)*%
X711814090Y-502347559D02*
X711814090Y-507197559D01*
X712314090Y-517347559D02*
X712889090Y-516772559D01*
%TO.N,Net-(C34-Pad1)*%
X736814090Y-498847559D02*
X736814090Y-502347559D01*
X736694090Y-506347559D02*
X736694090Y-508447559D01*
X741889090Y-494272559D02*
X739934090Y-496227559D01*
X762489090Y-494272559D02*
X741889090Y-494272559D01*
X739934090Y-496227559D02*
X739934090Y-497347559D01*
X738314090Y-497347559D02*
X736814090Y-498847559D01*
%TO.N,Net-(C11-Pad2)*%
X717314090Y-511347559D02*
X720389090Y-508272559D01*
%TO.N,Net-(C34-Pad1)*%
X763589090Y-495372559D02*
X762489090Y-494272559D01*
%TO.N,Net-(C9-Pad1)*%
X726814090Y-502347559D02*
X726814090Y-499467559D01*
%TO.N,Net-(SW5A-C)*%
X761049090Y-504107559D02*
X761049090Y-497472559D01*
%TO.N,Net-(C9-Pad1)*%
X726814090Y-499467559D02*
X724694090Y-497347559D01*
D18*
%TO.N,GND*%
X749314090Y-517347559D02*
X749314090Y-511217559D01*
X776314090Y-517347559D02*
X773889090Y-519772559D01*
X749314090Y-511217559D02*
X752009090Y-508522559D01*
X758509090Y-502022559D02*
X752009090Y-508522559D01*
X751639090Y-519772559D02*
X751639090Y-519672559D01*
X773889090Y-519772559D02*
X751639090Y-519772559D01*
X751639090Y-519672559D02*
X749314090Y-517347559D01*
D17*
%TO.N,Net-(SW5A-C)*%
X766314090Y-509372559D02*
X761049090Y-504107559D01*
%TO.N,Net-(C34-Pad1)*%
X763589090Y-497472559D02*
X763589090Y-495372559D01*
%TO.N,Net-(SW5A-C)*%
X766314090Y-517347559D02*
X766314090Y-509372559D01*
%TO.N,Net-(C34-Pad1)*%
X739934090Y-497347559D02*
X738314090Y-497347559D01*
%TO.N,Net-(C11-Pad1)*%
X712889090Y-516772559D02*
X712889090Y-508272559D01*
%TO.N,Net-(C34-Pad1)*%
X736769090Y-508522559D02*
X736769090Y-502392559D01*
%TO.N,Net-(C37-Pad2)*%
X744314090Y-517347559D02*
X744314090Y-507347559D01*
D18*
%TO.N,GND*%
X758509090Y-497472559D02*
X758509090Y-502022559D01*
D17*
%TO.N,Net-(C19-Pad1)*%
X771314090Y-517347559D02*
X771314090Y-508447559D01*
%TD*%
M02*
