%TF.GenerationSoftware,KiCad,Pcbnew,9.0.0*%
%TF.CreationDate,2025-04-19T09:24:27+05:00*%
%TF.ProjectId,SRT,5352542e-6b69-4636-9164-5f7063625858,rev?*%
%TF.SameCoordinates,Original*%
%TF.FileFunction,Legend,Top*%
%TF.FilePolarity,Positive*%
%FSLAX46Y46*%
G04 Gerber Fmt 4.6, Leading zero omitted, Abs format (unit mm)*
G04 Created by KiCad (PCBNEW 9.0.0) date 2025-04-19 09:24:27*
%MOMM*%
%LPD*%
G01*
G04 APERTURE LIST*
%ADD10C,0.150000*%
%ADD11C,0.120000*%
G04 APERTURE END LIST*
D10*
X768913909Y-500043987D02*
X767913909Y-500043987D01*
X767913909Y-500043987D02*
X768628194Y-499710654D01*
X768628194Y-499710654D02*
X767913909Y-499377321D01*
X767913909Y-499377321D02*
X768913909Y-499377321D01*
X768628194Y-498948749D02*
X768628194Y-498472559D01*
X768913909Y-499043987D02*
X767913909Y-498710654D01*
X767913909Y-498710654D02*
X768913909Y-498377321D01*
X768866290Y-498091606D02*
X768913909Y-497948749D01*
X768913909Y-497948749D02*
X768913909Y-497710654D01*
X768913909Y-497710654D02*
X768866290Y-497615416D01*
X768866290Y-497615416D02*
X768818670Y-497567797D01*
X768818670Y-497567797D02*
X768723432Y-497520178D01*
X768723432Y-497520178D02*
X768628194Y-497520178D01*
X768628194Y-497520178D02*
X768532956Y-497567797D01*
X768532956Y-497567797D02*
X768485337Y-497615416D01*
X768485337Y-497615416D02*
X768437718Y-497710654D01*
X768437718Y-497710654D02*
X768390099Y-497901130D01*
X768390099Y-497901130D02*
X768342480Y-497996368D01*
X768342480Y-497996368D02*
X768294861Y-498043987D01*
X768294861Y-498043987D02*
X768199623Y-498091606D01*
X768199623Y-498091606D02*
X768104385Y-498091606D01*
X768104385Y-498091606D02*
X768009147Y-498043987D01*
X768009147Y-498043987D02*
X767961528Y-497996368D01*
X767961528Y-497996368D02*
X767913909Y-497901130D01*
X767913909Y-497901130D02*
X767913909Y-497663035D01*
X767913909Y-497663035D02*
X767961528Y-497520178D01*
X767913909Y-497234463D02*
X767913909Y-496663035D01*
X768913909Y-496948749D02*
X767913909Y-496948749D01*
X768390099Y-496329701D02*
X768390099Y-495996368D01*
X768913909Y-495853511D02*
X768913909Y-496329701D01*
X768913909Y-496329701D02*
X767913909Y-496329701D01*
X767913909Y-496329701D02*
X767913909Y-495853511D01*
X768913909Y-494853511D02*
X768437718Y-495186844D01*
X768913909Y-495424939D02*
X767913909Y-495424939D01*
X767913909Y-495424939D02*
X767913909Y-495043987D01*
X767913909Y-495043987D02*
X767961528Y-494948749D01*
X767961528Y-494948749D02*
X768009147Y-494901130D01*
X768009147Y-494901130D02*
X768104385Y-494853511D01*
X768104385Y-494853511D02*
X768247242Y-494853511D01*
X768247242Y-494853511D02*
X768342480Y-494901130D01*
X768342480Y-494901130D02*
X768390099Y-494948749D01*
X768390099Y-494948749D02*
X768437718Y-495043987D01*
X768437718Y-495043987D02*
X768437718Y-495424939D01*
D11*
%TO.C,MASTER*%
X757179090Y-496142559D02*
X757179090Y-498802559D01*
X764859090Y-496142559D02*
X757179090Y-496142559D01*
X764859090Y-496142559D02*
X764859090Y-498802559D01*
X764859090Y-498802559D02*
X757179090Y-498802559D01*
X766129090Y-496142559D02*
X767459090Y-496142559D01*
X767459090Y-496142559D02*
X767459090Y-497472559D01*
%TD*%
M02*
