%TF.GenerationSoftware,KiCad,Pcbnew,9.0.0*%
%TF.CreationDate,2025-04-19T09:24:27+05:00*%
%TF.ProjectId,SRT,5352542e-6b69-4636-9164-5f7063625858,rev?*%
%TF.SameCoordinates,Original*%
%TF.FileFunction,Legend,Bot*%
%TF.FilePolarity,Positive*%
%FSLAX46Y46*%
G04 Gerber Fmt 4.6, Leading zero omitted, Abs format (unit mm)*
G04 Created by KiCad (PCBNEW 9.0.0) date 2025-04-19 09:24:27*
%MOMM*%
%LPD*%
G01*
G04 APERTURE LIST*
%ADD10C,0.150000*%
%ADD11C,0.120000*%
G04 APERTURE END LIST*
D10*
X744956947Y-506957139D02*
X745004566Y-507004759D01*
X745004566Y-507004759D02*
X745147423Y-507052378D01*
X745147423Y-507052378D02*
X745242661Y-507052378D01*
X745242661Y-507052378D02*
X745385518Y-507004759D01*
X745385518Y-507004759D02*
X745480756Y-506909520D01*
X745480756Y-506909520D02*
X745528375Y-506814282D01*
X745528375Y-506814282D02*
X745575994Y-506623806D01*
X745575994Y-506623806D02*
X745575994Y-506480949D01*
X745575994Y-506480949D02*
X745528375Y-506290473D01*
X745528375Y-506290473D02*
X745480756Y-506195235D01*
X745480756Y-506195235D02*
X745385518Y-506099997D01*
X745385518Y-506099997D02*
X745242661Y-506052378D01*
X745242661Y-506052378D02*
X745147423Y-506052378D01*
X745147423Y-506052378D02*
X745004566Y-506099997D01*
X745004566Y-506099997D02*
X744956947Y-506147616D01*
X744623613Y-506052378D02*
X744004566Y-506052378D01*
X744004566Y-506052378D02*
X744337899Y-506433330D01*
X744337899Y-506433330D02*
X744195042Y-506433330D01*
X744195042Y-506433330D02*
X744099804Y-506480949D01*
X744099804Y-506480949D02*
X744052185Y-506528568D01*
X744052185Y-506528568D02*
X744004566Y-506623806D01*
X744004566Y-506623806D02*
X744004566Y-506861901D01*
X744004566Y-506861901D02*
X744052185Y-506957139D01*
X744052185Y-506957139D02*
X744099804Y-507004759D01*
X744099804Y-507004759D02*
X744195042Y-507052378D01*
X744195042Y-507052378D02*
X744480756Y-507052378D01*
X744480756Y-507052378D02*
X744575994Y-507004759D01*
X744575994Y-507004759D02*
X744623613Y-506957139D01*
X743671232Y-506052378D02*
X743004566Y-506052378D01*
X743004566Y-506052378D02*
X743433137Y-507052378D01*
X717281947Y-511882139D02*
X717329566Y-511929759D01*
X717329566Y-511929759D02*
X717472423Y-511977378D01*
X717472423Y-511977378D02*
X717567661Y-511977378D01*
X717567661Y-511977378D02*
X717710518Y-511929759D01*
X717710518Y-511929759D02*
X717805756Y-511834520D01*
X717805756Y-511834520D02*
X717853375Y-511739282D01*
X717853375Y-511739282D02*
X717900994Y-511548806D01*
X717900994Y-511548806D02*
X717900994Y-511405949D01*
X717900994Y-511405949D02*
X717853375Y-511215473D01*
X717853375Y-511215473D02*
X717805756Y-511120235D01*
X717805756Y-511120235D02*
X717710518Y-511024997D01*
X717710518Y-511024997D02*
X717567661Y-510977378D01*
X717567661Y-510977378D02*
X717472423Y-510977378D01*
X717472423Y-510977378D02*
X717329566Y-511024997D01*
X717329566Y-511024997D02*
X717281947Y-511072616D01*
X716329566Y-511977378D02*
X716900994Y-511977378D01*
X716615280Y-511977378D02*
X716615280Y-510977378D01*
X716615280Y-510977378D02*
X716710518Y-511120235D01*
X716710518Y-511120235D02*
X716805756Y-511215473D01*
X716805756Y-511215473D02*
X716900994Y-511263092D01*
X715377185Y-511977378D02*
X715948613Y-511977378D01*
X715662899Y-511977378D02*
X715662899Y-510977378D01*
X715662899Y-510977378D02*
X715758137Y-511120235D01*
X715758137Y-511120235D02*
X715853375Y-511215473D01*
X715853375Y-511215473D02*
X715948613Y-511263092D01*
X762518909Y-516276130D02*
X762042718Y-515942797D01*
X762518909Y-515704702D02*
X761518909Y-515704702D01*
X761518909Y-515704702D02*
X761518909Y-516085654D01*
X761518909Y-516085654D02*
X761566528Y-516180892D01*
X761566528Y-516180892D02*
X761614147Y-516228511D01*
X761614147Y-516228511D02*
X761709385Y-516276130D01*
X761709385Y-516276130D02*
X761852242Y-516276130D01*
X761852242Y-516276130D02*
X761947480Y-516228511D01*
X761947480Y-516228511D02*
X761995099Y-516180892D01*
X761995099Y-516180892D02*
X762042718Y-516085654D01*
X762042718Y-516085654D02*
X762042718Y-515704702D01*
X761518909Y-516561845D02*
X762518909Y-516895178D01*
X762518909Y-516895178D02*
X761518909Y-517228511D01*
X762518909Y-518085654D02*
X762518909Y-517514226D01*
X762518909Y-517799940D02*
X761518909Y-517799940D01*
X761518909Y-517799940D02*
X761661766Y-517704702D01*
X761661766Y-517704702D02*
X761757004Y-517609464D01*
X761757004Y-517609464D02*
X761804623Y-517514226D01*
X761518909Y-518990416D02*
X761518909Y-518514226D01*
X761518909Y-518514226D02*
X761995099Y-518466607D01*
X761995099Y-518466607D02*
X761947480Y-518514226D01*
X761947480Y-518514226D02*
X761899861Y-518609464D01*
X761899861Y-518609464D02*
X761899861Y-518847559D01*
X761899861Y-518847559D02*
X761947480Y-518942797D01*
X761947480Y-518942797D02*
X761995099Y-518990416D01*
X761995099Y-518990416D02*
X762090337Y-519038035D01*
X762090337Y-519038035D02*
X762328432Y-519038035D01*
X762328432Y-519038035D02*
X762423670Y-518990416D01*
X762423670Y-518990416D02*
X762471290Y-518942797D01*
X762471290Y-518942797D02*
X762518909Y-518847559D01*
X762518909Y-518847559D02*
X762518909Y-518609464D01*
X762518909Y-518609464D02*
X762471290Y-518514226D01*
X762471290Y-518514226D02*
X762423670Y-518466607D01*
X735518909Y-516276130D02*
X735042718Y-515942797D01*
X735518909Y-515704702D02*
X734518909Y-515704702D01*
X734518909Y-515704702D02*
X734518909Y-516085654D01*
X734518909Y-516085654D02*
X734566528Y-516180892D01*
X734566528Y-516180892D02*
X734614147Y-516228511D01*
X734614147Y-516228511D02*
X734709385Y-516276130D01*
X734709385Y-516276130D02*
X734852242Y-516276130D01*
X734852242Y-516276130D02*
X734947480Y-516228511D01*
X734947480Y-516228511D02*
X734995099Y-516180892D01*
X734995099Y-516180892D02*
X735042718Y-516085654D01*
X735042718Y-516085654D02*
X735042718Y-515704702D01*
X734518909Y-516561845D02*
X735518909Y-516895178D01*
X735518909Y-516895178D02*
X734518909Y-517228511D01*
X735518909Y-518085654D02*
X735518909Y-517514226D01*
X735518909Y-517799940D02*
X734518909Y-517799940D01*
X734518909Y-517799940D02*
X734661766Y-517704702D01*
X734661766Y-517704702D02*
X734757004Y-517609464D01*
X734757004Y-517609464D02*
X734804623Y-517514226D01*
X734947480Y-518657083D02*
X734899861Y-518561845D01*
X734899861Y-518561845D02*
X734852242Y-518514226D01*
X734852242Y-518514226D02*
X734757004Y-518466607D01*
X734757004Y-518466607D02*
X734709385Y-518466607D01*
X734709385Y-518466607D02*
X734614147Y-518514226D01*
X734614147Y-518514226D02*
X734566528Y-518561845D01*
X734566528Y-518561845D02*
X734518909Y-518657083D01*
X734518909Y-518657083D02*
X734518909Y-518847559D01*
X734518909Y-518847559D02*
X734566528Y-518942797D01*
X734566528Y-518942797D02*
X734614147Y-518990416D01*
X734614147Y-518990416D02*
X734709385Y-519038035D01*
X734709385Y-519038035D02*
X734757004Y-519038035D01*
X734757004Y-519038035D02*
X734852242Y-518990416D01*
X734852242Y-518990416D02*
X734899861Y-518942797D01*
X734899861Y-518942797D02*
X734947480Y-518847559D01*
X734947480Y-518847559D02*
X734947480Y-518657083D01*
X734947480Y-518657083D02*
X734995099Y-518561845D01*
X734995099Y-518561845D02*
X735042718Y-518514226D01*
X735042718Y-518514226D02*
X735137956Y-518466607D01*
X735137956Y-518466607D02*
X735328432Y-518466607D01*
X735328432Y-518466607D02*
X735423670Y-518514226D01*
X735423670Y-518514226D02*
X735471290Y-518561845D01*
X735471290Y-518561845D02*
X735518909Y-518657083D01*
X735518909Y-518657083D02*
X735518909Y-518847559D01*
X735518909Y-518847559D02*
X735471290Y-518942797D01*
X735471290Y-518942797D02*
X735423670Y-518990416D01*
X735423670Y-518990416D02*
X735328432Y-519038035D01*
X735328432Y-519038035D02*
X735137956Y-519038035D01*
X735137956Y-519038035D02*
X735042718Y-518990416D01*
X735042718Y-518990416D02*
X734995099Y-518942797D01*
X734995099Y-518942797D02*
X734947480Y-518847559D01*
X745106947Y-508902378D02*
X745440280Y-508426187D01*
X745678375Y-508902378D02*
X745678375Y-507902378D01*
X745678375Y-507902378D02*
X745297423Y-507902378D01*
X745297423Y-507902378D02*
X745202185Y-507949997D01*
X745202185Y-507949997D02*
X745154566Y-507997616D01*
X745154566Y-507997616D02*
X745106947Y-508092854D01*
X745106947Y-508092854D02*
X745106947Y-508235711D01*
X745106947Y-508235711D02*
X745154566Y-508330949D01*
X745154566Y-508330949D02*
X745202185Y-508378568D01*
X745202185Y-508378568D02*
X745297423Y-508426187D01*
X745297423Y-508426187D02*
X745678375Y-508426187D01*
X744202185Y-507902378D02*
X744678375Y-507902378D01*
X744678375Y-507902378D02*
X744725994Y-508378568D01*
X744725994Y-508378568D02*
X744678375Y-508330949D01*
X744678375Y-508330949D02*
X744583137Y-508283330D01*
X744583137Y-508283330D02*
X744345042Y-508283330D01*
X744345042Y-508283330D02*
X744249804Y-508330949D01*
X744249804Y-508330949D02*
X744202185Y-508378568D01*
X744202185Y-508378568D02*
X744154566Y-508473806D01*
X744154566Y-508473806D02*
X744154566Y-508711901D01*
X744154566Y-508711901D02*
X744202185Y-508807139D01*
X744202185Y-508807139D02*
X744249804Y-508854759D01*
X744249804Y-508854759D02*
X744345042Y-508902378D01*
X744345042Y-508902378D02*
X744583137Y-508902378D01*
X744583137Y-508902378D02*
X744678375Y-508854759D01*
X744678375Y-508854759D02*
X744725994Y-508807139D01*
X743821232Y-507902378D02*
X743202185Y-507902378D01*
X743202185Y-507902378D02*
X743535518Y-508283330D01*
X743535518Y-508283330D02*
X743392661Y-508283330D01*
X743392661Y-508283330D02*
X743297423Y-508330949D01*
X743297423Y-508330949D02*
X743249804Y-508378568D01*
X743249804Y-508378568D02*
X743202185Y-508473806D01*
X743202185Y-508473806D02*
X743202185Y-508711901D01*
X743202185Y-508711901D02*
X743249804Y-508807139D01*
X743249804Y-508807139D02*
X743297423Y-508854759D01*
X743297423Y-508854759D02*
X743392661Y-508902378D01*
X743392661Y-508902378D02*
X743678375Y-508902378D01*
X743678375Y-508902378D02*
X743773613Y-508854759D01*
X743773613Y-508854759D02*
X743821232Y-508807139D01*
X732655756Y-497727378D02*
X732989089Y-497251187D01*
X733227184Y-497727378D02*
X733227184Y-496727378D01*
X733227184Y-496727378D02*
X732846232Y-496727378D01*
X732846232Y-496727378D02*
X732750994Y-496774997D01*
X732750994Y-496774997D02*
X732703375Y-496822616D01*
X732703375Y-496822616D02*
X732655756Y-496917854D01*
X732655756Y-496917854D02*
X732655756Y-497060711D01*
X732655756Y-497060711D02*
X732703375Y-497155949D01*
X732703375Y-497155949D02*
X732750994Y-497203568D01*
X732750994Y-497203568D02*
X732846232Y-497251187D01*
X732846232Y-497251187D02*
X733227184Y-497251187D01*
X732322422Y-496727378D02*
X731655756Y-496727378D01*
X731655756Y-496727378D02*
X732084327Y-497727378D01*
X719480756Y-498457139D02*
X719528375Y-498504759D01*
X719528375Y-498504759D02*
X719671232Y-498552378D01*
X719671232Y-498552378D02*
X719766470Y-498552378D01*
X719766470Y-498552378D02*
X719909327Y-498504759D01*
X719909327Y-498504759D02*
X720004565Y-498409520D01*
X720004565Y-498409520D02*
X720052184Y-498314282D01*
X720052184Y-498314282D02*
X720099803Y-498123806D01*
X720099803Y-498123806D02*
X720099803Y-497980949D01*
X720099803Y-497980949D02*
X720052184Y-497790473D01*
X720052184Y-497790473D02*
X720004565Y-497695235D01*
X720004565Y-497695235D02*
X719909327Y-497599997D01*
X719909327Y-497599997D02*
X719766470Y-497552378D01*
X719766470Y-497552378D02*
X719671232Y-497552378D01*
X719671232Y-497552378D02*
X719528375Y-497599997D01*
X719528375Y-497599997D02*
X719480756Y-497647616D01*
X719004565Y-498552378D02*
X718814089Y-498552378D01*
X718814089Y-498552378D02*
X718718851Y-498504759D01*
X718718851Y-498504759D02*
X718671232Y-498457139D01*
X718671232Y-498457139D02*
X718575994Y-498314282D01*
X718575994Y-498314282D02*
X718528375Y-498123806D01*
X718528375Y-498123806D02*
X718528375Y-497742854D01*
X718528375Y-497742854D02*
X718575994Y-497647616D01*
X718575994Y-497647616D02*
X718623613Y-497599997D01*
X718623613Y-497599997D02*
X718718851Y-497552378D01*
X718718851Y-497552378D02*
X718909327Y-497552378D01*
X718909327Y-497552378D02*
X719004565Y-497599997D01*
X719004565Y-497599997D02*
X719052184Y-497647616D01*
X719052184Y-497647616D02*
X719099803Y-497742854D01*
X719099803Y-497742854D02*
X719099803Y-497980949D01*
X719099803Y-497980949D02*
X719052184Y-498076187D01*
X719052184Y-498076187D02*
X719004565Y-498123806D01*
X719004565Y-498123806D02*
X718909327Y-498171425D01*
X718909327Y-498171425D02*
X718718851Y-498171425D01*
X718718851Y-498171425D02*
X718623613Y-498123806D01*
X718623613Y-498123806D02*
X718575994Y-498076187D01*
X718575994Y-498076187D02*
X718528375Y-497980949D01*
X708518909Y-516752320D02*
X708042718Y-516418987D01*
X708518909Y-516180892D02*
X707518909Y-516180892D01*
X707518909Y-516180892D02*
X707518909Y-516561844D01*
X707518909Y-516561844D02*
X707566528Y-516657082D01*
X707566528Y-516657082D02*
X707614147Y-516704701D01*
X707614147Y-516704701D02*
X707709385Y-516752320D01*
X707709385Y-516752320D02*
X707852242Y-516752320D01*
X707852242Y-516752320D02*
X707947480Y-516704701D01*
X707947480Y-516704701D02*
X707995099Y-516657082D01*
X707995099Y-516657082D02*
X708042718Y-516561844D01*
X708042718Y-516561844D02*
X708042718Y-516180892D01*
X707518909Y-517038035D02*
X708518909Y-517371368D01*
X708518909Y-517371368D02*
X707518909Y-517704701D01*
X707518909Y-517942797D02*
X707518909Y-518609463D01*
X707518909Y-518609463D02*
X708518909Y-518180892D01*
D11*
%TO.C,C37*%
X735194090Y-499227559D02*
X735194090Y-505467559D01*
X753434090Y-499227559D02*
X735194090Y-499227559D01*
X753434090Y-499227559D02*
X753434090Y-505467559D01*
X753434090Y-505467559D02*
X735194090Y-505467559D01*
%TO.C,C11*%
X711519090Y-506152559D02*
X711519090Y-510392559D01*
X721759090Y-506152559D02*
X711519090Y-506152559D01*
X721759090Y-506152559D02*
X721759090Y-510392559D01*
X721759090Y-510392559D02*
X711519090Y-510392559D01*
%TO.C,RV15*%
X763194090Y-518967559D02*
X763194090Y-511227559D01*
X767694090Y-523967559D02*
X767694090Y-518967559D01*
X769194090Y-533967559D02*
X769194090Y-523967559D01*
X773434090Y-523967559D02*
X769194090Y-523967559D01*
X773434090Y-533967559D02*
X769194090Y-533967559D01*
X773434090Y-533967559D02*
X773434090Y-523967559D01*
X774934090Y-518967559D02*
X767694090Y-518967559D01*
X774934090Y-523967559D02*
X767694090Y-523967559D01*
X774934090Y-523967559D02*
X774934090Y-518967559D01*
X779434090Y-511227559D02*
X763194090Y-511227559D01*
X779434090Y-518967559D02*
X763194090Y-518967559D01*
X779434090Y-518967559D02*
X779434090Y-511227559D01*
%TO.C,RV18*%
X736194090Y-518967559D02*
X736194090Y-511227559D01*
X740694090Y-523967559D02*
X740694090Y-518967559D01*
X742194090Y-533967559D02*
X742194090Y-523967559D01*
X746434090Y-523967559D02*
X742194090Y-523967559D01*
X746434090Y-533967559D02*
X742194090Y-533967559D01*
X746434090Y-533967559D02*
X746434090Y-523967559D01*
X747934090Y-518967559D02*
X740694090Y-518967559D01*
X747934090Y-523967559D02*
X740694090Y-523967559D01*
X747934090Y-523967559D02*
X747934090Y-518967559D01*
X752434090Y-511227559D02*
X736194090Y-511227559D01*
X752434090Y-518967559D02*
X736194090Y-518967559D01*
X752434090Y-518967559D02*
X752434090Y-511227559D01*
%TO.C,R53*%
X739769090Y-506802559D02*
X739769090Y-510242559D01*
X739769090Y-508522559D02*
X737809090Y-508522559D01*
X739769090Y-510242559D02*
X749009090Y-510242559D01*
X749009090Y-506802559D02*
X739769090Y-506802559D01*
X749009090Y-508522559D02*
X750969090Y-508522559D01*
X749009090Y-510242559D02*
X749009090Y-506802559D01*
%TO.C,R7*%
X727694090Y-495627559D02*
X727694090Y-499067559D01*
X727694090Y-497347559D02*
X725734090Y-497347559D01*
X727694090Y-499067559D02*
X736934090Y-499067559D01*
X736934090Y-495627559D02*
X727694090Y-495627559D01*
X736934090Y-497347559D02*
X738894090Y-497347559D01*
X736934090Y-499067559D02*
X736934090Y-495627559D01*
%TO.C,C9*%
X710194090Y-499227559D02*
X728434090Y-499227559D01*
X710194090Y-505467559D02*
X710194090Y-499227559D01*
X710194090Y-505467559D02*
X728434090Y-505467559D01*
X728434090Y-505467559D02*
X728434090Y-499227559D01*
%TO.C,RV7*%
X709194090Y-518967559D02*
X709194090Y-511227559D01*
X713694090Y-523967559D02*
X713694090Y-518967559D01*
X715194090Y-533967559D02*
X715194090Y-523967559D01*
X719434090Y-523967559D02*
X715194090Y-523967559D01*
X719434090Y-533967559D02*
X715194090Y-533967559D01*
X719434090Y-533967559D02*
X719434090Y-523967559D01*
X720934090Y-518967559D02*
X713694090Y-518967559D01*
X720934090Y-523967559D02*
X713694090Y-523967559D01*
X720934090Y-523967559D02*
X720934090Y-518967559D01*
X725434090Y-511227559D02*
X709194090Y-511227559D01*
X725434090Y-518967559D02*
X709194090Y-518967559D01*
X725434090Y-518967559D02*
X725434090Y-511227559D01*
%TD*%
M02*
