M48
; DRILL file {KiCad 9.0.0} date 2025-04-19T09:24:29+0500
; FORMAT={-:-/ absolute / metric / decimal}
; #@! TF.CreationDate,2025-04-19T09:24:29+05:00
; #@! TF.GenerationSoftware,Kicad,Pcbnew,9.0.0
; #@! TF.FileFunction,Plated,1,2,PTH
FMAT,2
METRIC
; #@! TA.AperFunction,Plated,PTH,ComponentDrill
T1C0.800
; #@! TA.AperFunction,Plated,PTH,ComponentDrill
T2C1.000
; #@! TA.AperFunction,Plated,PTH,ComponentDrill
T3C1.200
; #@! TA.AperFunction,Plated,PTH,ComponentDrill
T4C1.300
%
G90
G05
T1
X724.694Y-497.348
X736.769Y-508.523
X739.934Y-497.348
X752.009Y-508.523
T2
X712.889Y-508.273
X720.389Y-508.273
X758.509Y-497.473
X761.049Y-497.473
X763.589Y-497.473
X766.129Y-497.473
T3
X711.814Y-502.348
X726.814Y-502.348
X736.814Y-502.348
X751.814Y-502.348
T4
X712.314Y-517.348
X717.314Y-517.348
X722.314Y-517.348
X739.314Y-517.348
X744.314Y-517.348
X749.314Y-517.348
X766.314Y-517.348
X771.314Y-517.348
X776.314Y-517.348
M30
