M48
; DRILL file {KiCad 9.0.0} date 2025-04-19T09:25:32+0500
; FORMAT={-:-/ absolute / metric / decimal}
; #@! TF.CreationDate,2025-04-19T09:25:32+05:00
; #@! TF.GenerationSoftware,Kicad,Pcbnew,9.0.0
; #@! TF.FileFunction,Plated,1,2,PTH
FMAT,2
METRIC
; #@! TA.AperFunction,Plated,PTH,ViaDrill
T1C0.400
; #@! TA.AperFunction,Plated,PTH,ComponentDrill
T2C0.700
; #@! TA.AperFunction,Plated,PTH,ComponentDrill
T3C0.800
; #@! TA.AperFunction,Plated,PTH,ComponentDrill
T4C1.000
; #@! TA.AperFunction,Plated,PTH,ComponentDrill
T5C1.300
%
G90
G05
T1
X594.389Y-498.585
X594.389Y-508.585
T2
X529.879Y-493.435
X537.499Y-493.435
X546.769Y-493.585
X554.389Y-493.585
T3
X529.889Y-496.335
X529.889Y-501.335
X614.284Y-489.068
X614.284Y-494.068
T4
X514.389Y-494.745
X514.389Y-497.285
X514.389Y-499.825
X540.389Y-496.06
X540.389Y-498.6
X540.389Y-501.14
X559.334Y-493.593
X559.334Y-503.593
X584.359Y-493.643
X584.359Y-503.643
X618.639Y-491.603
X618.639Y-494.143
T5
X509.389Y-512.273
X514.389Y-512.273
X519.389Y-512.273
X534.389Y-512.273
X539.389Y-512.273
X544.389Y-512.273
X559.389Y-512.273
X564.389Y-512.273
X569.389Y-512.273
X584.389Y-512.273
X589.389Y-512.273
X594.389Y-512.273
X609.389Y-512.273
X614.389Y-512.273
X619.389Y-512.273
M30
