%TF.GenerationSoftware,KiCad,Pcbnew,9.0.0*%
%TF.CreationDate,2025-04-19T09:25:30+05:00*%
%TF.ProjectId,SRT,5352542e-6b69-4636-9164-5f7063625858,rev?*%
%TF.SameCoordinates,Original*%
%TF.FileFunction,Legend,Top*%
%TF.FilePolarity,Positive*%
%FSLAX46Y46*%
G04 Gerber Fmt 4.6, Leading zero omitted, Abs format (unit mm)*
G04 Created by KiCad (PCBNEW 9.0.0) date 2025-04-19 09:25:30*
%MOMM*%
%LPD*%
G01*
G04 APERTURE LIST*
%ADD10C,0.150000*%
%ADD11C,0.120000*%
G04 APERTURE END LIST*
D10*
X617320519Y-497279759D02*
X617463376Y-497327378D01*
X617463376Y-497327378D02*
X617701471Y-497327378D01*
X617701471Y-497327378D02*
X617796709Y-497279759D01*
X617796709Y-497279759D02*
X617844328Y-497232139D01*
X617844328Y-497232139D02*
X617891947Y-497136901D01*
X617891947Y-497136901D02*
X617891947Y-497041663D01*
X617891947Y-497041663D02*
X617844328Y-496946425D01*
X617844328Y-496946425D02*
X617796709Y-496898806D01*
X617796709Y-496898806D02*
X617701471Y-496851187D01*
X617701471Y-496851187D02*
X617510995Y-496803568D01*
X617510995Y-496803568D02*
X617415757Y-496755949D01*
X617415757Y-496755949D02*
X617368138Y-496708330D01*
X617368138Y-496708330D02*
X617320519Y-496613092D01*
X617320519Y-496613092D02*
X617320519Y-496517854D01*
X617320519Y-496517854D02*
X617368138Y-496422616D01*
X617368138Y-496422616D02*
X617415757Y-496374997D01*
X617415757Y-496374997D02*
X617510995Y-496327378D01*
X617510995Y-496327378D02*
X617749090Y-496327378D01*
X617749090Y-496327378D02*
X617891947Y-496374997D01*
X618225281Y-496327378D02*
X618463376Y-497327378D01*
X618463376Y-497327378D02*
X618653852Y-496613092D01*
X618653852Y-496613092D02*
X618844328Y-497327378D01*
X618844328Y-497327378D02*
X619082424Y-496327378D01*
X619987185Y-497327378D02*
X619415757Y-497327378D01*
X619701471Y-497327378D02*
X619701471Y-496327378D01*
X619701471Y-496327378D02*
X619606233Y-496470235D01*
X619606233Y-496470235D02*
X619510995Y-496565473D01*
X619510995Y-496565473D02*
X619415757Y-496613092D01*
X511748432Y-499718392D02*
X511796052Y-499766011D01*
X511796052Y-499766011D02*
X511843671Y-499908868D01*
X511843671Y-499908868D02*
X511843671Y-500004106D01*
X511843671Y-500004106D02*
X511796052Y-500146963D01*
X511796052Y-500146963D02*
X511700813Y-500242201D01*
X511700813Y-500242201D02*
X511605575Y-500289820D01*
X511605575Y-500289820D02*
X511415099Y-500337439D01*
X511415099Y-500337439D02*
X511272242Y-500337439D01*
X511272242Y-500337439D02*
X511081766Y-500289820D01*
X511081766Y-500289820D02*
X510986528Y-500242201D01*
X510986528Y-500242201D02*
X510891290Y-500146963D01*
X510891290Y-500146963D02*
X510843671Y-500004106D01*
X510843671Y-500004106D02*
X510843671Y-499908868D01*
X510843671Y-499908868D02*
X510891290Y-499766011D01*
X510891290Y-499766011D02*
X510938909Y-499718392D01*
X511843671Y-498813630D02*
X511843671Y-499289820D01*
X511843671Y-499289820D02*
X510843671Y-499289820D01*
X511843671Y-497908868D02*
X511367480Y-498242201D01*
X511843671Y-498480296D02*
X510843671Y-498480296D01*
X510843671Y-498480296D02*
X510843671Y-498099344D01*
X510843671Y-498099344D02*
X510891290Y-498004106D01*
X510891290Y-498004106D02*
X510938909Y-497956487D01*
X510938909Y-497956487D02*
X511034147Y-497908868D01*
X511034147Y-497908868D02*
X511177004Y-497908868D01*
X511177004Y-497908868D02*
X511272242Y-497956487D01*
X511272242Y-497956487D02*
X511319861Y-498004106D01*
X511319861Y-498004106D02*
X511367480Y-498099344D01*
X511367480Y-498099344D02*
X511367480Y-498480296D01*
X510843671Y-496861248D02*
X511843671Y-496527915D01*
X511843671Y-496527915D02*
X510843671Y-496194582D01*
X510843671Y-495670772D02*
X510843671Y-495480296D01*
X510843671Y-495480296D02*
X510891290Y-495385058D01*
X510891290Y-495385058D02*
X510986528Y-495289820D01*
X510986528Y-495289820D02*
X511177004Y-495242201D01*
X511177004Y-495242201D02*
X511510337Y-495242201D01*
X511510337Y-495242201D02*
X511700813Y-495289820D01*
X511700813Y-495289820D02*
X511796052Y-495385058D01*
X511796052Y-495385058D02*
X511843671Y-495480296D01*
X511843671Y-495480296D02*
X511843671Y-495670772D01*
X511843671Y-495670772D02*
X511796052Y-495766010D01*
X511796052Y-495766010D02*
X511700813Y-495861248D01*
X511700813Y-495861248D02*
X511510337Y-495908867D01*
X511510337Y-495908867D02*
X511177004Y-495908867D01*
X511177004Y-495908867D02*
X510986528Y-495861248D01*
X510986528Y-495861248D02*
X510891290Y-495766010D01*
X510891290Y-495766010D02*
X510843671Y-495670772D01*
X511843671Y-494337439D02*
X511843671Y-494813629D01*
X511843671Y-494813629D02*
X510843671Y-494813629D01*
X537748432Y-498980297D02*
X537796052Y-499027916D01*
X537796052Y-499027916D02*
X537843671Y-499170773D01*
X537843671Y-499170773D02*
X537843671Y-499266011D01*
X537843671Y-499266011D02*
X537796052Y-499408868D01*
X537796052Y-499408868D02*
X537700813Y-499504106D01*
X537700813Y-499504106D02*
X537605575Y-499551725D01*
X537605575Y-499551725D02*
X537415099Y-499599344D01*
X537415099Y-499599344D02*
X537272242Y-499599344D01*
X537272242Y-499599344D02*
X537081766Y-499551725D01*
X537081766Y-499551725D02*
X536986528Y-499504106D01*
X536986528Y-499504106D02*
X536891290Y-499408868D01*
X536891290Y-499408868D02*
X536843671Y-499266011D01*
X536843671Y-499266011D02*
X536843671Y-499170773D01*
X536843671Y-499170773D02*
X536891290Y-499027916D01*
X536891290Y-499027916D02*
X536938909Y-498980297D01*
X537843671Y-498075535D02*
X537843671Y-498551725D01*
X537843671Y-498551725D02*
X536843671Y-498551725D01*
X537843671Y-497170773D02*
X537367480Y-497504106D01*
X537843671Y-497742201D02*
X536843671Y-497742201D01*
X536843671Y-497742201D02*
X536843671Y-497361249D01*
X536843671Y-497361249D02*
X536891290Y-497266011D01*
X536891290Y-497266011D02*
X536938909Y-497218392D01*
X536938909Y-497218392D02*
X537034147Y-497170773D01*
X537034147Y-497170773D02*
X537177004Y-497170773D01*
X537177004Y-497170773D02*
X537272242Y-497218392D01*
X537272242Y-497218392D02*
X537319861Y-497266011D01*
X537319861Y-497266011D02*
X537367480Y-497361249D01*
X537367480Y-497361249D02*
X537367480Y-497742201D01*
D11*
%TO.C,SW1*%
X617308852Y-492872559D02*
X617308852Y-490272559D01*
X617308852Y-495472559D02*
X617308852Y-494142559D01*
X618638852Y-495472559D02*
X617308852Y-495472559D01*
X619968852Y-490272559D02*
X617308852Y-490272559D01*
X619968852Y-492872559D02*
X617308852Y-492872559D01*
X619968852Y-492872559D02*
X619968852Y-490272559D01*
%TO.C,CLR VOL*%
X513058852Y-493415059D02*
X514388852Y-493415059D01*
X513058852Y-494745059D02*
X513058852Y-493415059D01*
X513058852Y-496015059D02*
X513058852Y-501155059D01*
X513058852Y-496015059D02*
X515718852Y-496015059D01*
X513058852Y-501155059D02*
X515718852Y-501155059D01*
X515718852Y-496015059D02*
X515718852Y-501155059D01*
%TO.C,CLR*%
X539058852Y-494730059D02*
X540388852Y-494730059D01*
X539058852Y-496060059D02*
X539058852Y-494730059D01*
X539058852Y-497330059D02*
X539058852Y-502470059D01*
X539058852Y-497330059D02*
X541718852Y-497330059D01*
X539058852Y-502470059D02*
X541718852Y-502470059D01*
X541718852Y-497330059D02*
X541718852Y-502470059D01*
%TD*%
M02*
