%TF.GenerationSoftware,KiCad,Pcbnew,9.0.0*%
%TF.CreationDate,2025-04-19T09:22:30+05:00*%
%TF.ProjectId,SRT,5352542e-6b69-4636-9164-5f7063625858,rev?*%
%TF.SameCoordinates,Original*%
%TF.FileFunction,Copper,L1,Top*%
%TF.FilePolarity,Positive*%
%FSLAX46Y46*%
G04 Gerber Fmt 4.6, Leading zero omitted, Abs format (unit mm)*
G04 Created by KiCad (PCBNEW 9.0.0) date 2025-04-19 09:22:30*
%MOMM*%
%LPD*%
G01*
G04 APERTURE LIST*
%TA.AperFunction,ComponentPad*%
%ADD10C,1.600000*%
%TD*%
%TA.AperFunction,ComponentPad*%
%ADD11O,1.600000X1.600000*%
%TD*%
%TA.AperFunction,ComponentPad*%
%ADD12R,1.600000X1.600000*%
%TD*%
%TA.AperFunction,ComponentPad*%
%ADD13R,2.000000X2.000000*%
%TD*%
%TA.AperFunction,ComponentPad*%
%ADD14C,2.000000*%
%TD*%
%TA.AperFunction,ComponentPad*%
%ADD15R,1.500000X1.500000*%
%TD*%
%TA.AperFunction,ComponentPad*%
%ADD16C,1.500000*%
%TD*%
%TA.AperFunction,ComponentPad*%
%ADD17C,3.000000*%
%TD*%
%TA.AperFunction,ComponentPad*%
%ADD18R,1.800000X1.800000*%
%TD*%
%TA.AperFunction,ComponentPad*%
%ADD19O,1.800000X1.800000*%
%TD*%
%TA.AperFunction,ComponentPad*%
%ADD20R,1.905000X2.000000*%
%TD*%
%TA.AperFunction,ComponentPad*%
%ADD21O,1.905000X2.000000*%
%TD*%
%TA.AperFunction,ComponentPad*%
%ADD22R,1.700000X1.700000*%
%TD*%
%TA.AperFunction,ComponentPad*%
%ADD23O,1.700000X1.700000*%
%TD*%
%TA.AperFunction,ComponentPad*%
%ADD24C,2.340000*%
%TD*%
%TA.AperFunction,ViaPad*%
%ADD25C,0.800000*%
%TD*%
%TA.AperFunction,Conductor*%
%ADD26C,1.200000*%
%TD*%
G04 APERTURE END LIST*
D10*
%TO.P,R60,1*%
%TO.N,1{slash}2*%
X569840000Y-291800000D03*
D11*
%TO.P,R60,2*%
%TO.N,Net-(C46-Pad2)*%
X580000000Y-291800000D03*
%TD*%
D10*
%TO.P,C38,1*%
%TO.N,Net-(C38-Pad1)*%
X692493500Y-284250000D03*
%TO.P,C38,2*%
%TO.N,Net-(SW5A-C)*%
X692493500Y-279250000D03*
%TD*%
%TO.P,R18,1*%
%TO.N,Net-(C22-Pad1)*%
X713650000Y-294870000D03*
D11*
%TO.P,R18,2*%
%TO.N,Net-(J1-PadT)*%
X713650000Y-305030000D03*
%TD*%
D10*
%TO.P,R77,1*%
%TO.N,Net-(C42-Pad1)*%
X631025000Y-307080000D03*
D11*
%TO.P,R77,2*%
%TO.N,Net-(C67-Pad1)*%
X631025000Y-296920000D03*
%TD*%
D10*
%TO.P,R71,1*%
%TO.N,Net-(C45-Pad2)*%
X582975000Y-302530000D03*
D11*
%TO.P,R71,2*%
%TO.N,Net-(U8B--)*%
X582975000Y-292370000D03*
%TD*%
D10*
%TO.P,R40,1*%
%TO.N,GND*%
X685470000Y-293375000D03*
D11*
%TO.P,R40,2*%
%TO.N,Net-(Q2-G)*%
X695630000Y-293375000D03*
%TD*%
D10*
%TO.P,R85,1*%
%TO.N,Net-(U9A--)*%
X550890000Y-300925000D03*
D11*
%TO.P,R85,2*%
%TO.N,Net-(C63-Pad2)*%
X561050000Y-300925000D03*
%TD*%
D10*
%TO.P,R81,1*%
%TO.N,Net-(C53-Pad2)*%
X681550000Y-301960000D03*
D11*
%TO.P,R81,2*%
%TO.N,GND*%
X681550000Y-291800000D03*
%TD*%
D10*
%TO.P,R58,1*%
%TO.N,Net-(C44-Pad1)*%
X658475000Y-297340000D03*
D11*
%TO.P,R58,2*%
%TO.N,Net-(C56-Pad2)*%
X658475000Y-307500000D03*
%TD*%
D12*
%TO.P,C20,1*%
%TO.N,+12V*%
X525975000Y-308277651D03*
D10*
%TO.P,C20,2*%
%TO.N,GND*%
X525975000Y-304477651D03*
%TD*%
D13*
%TO.P,C78,1*%
%TO.N,Net-(D7-K)*%
X756061177Y-298556500D03*
D14*
%TO.P,C78,2*%
%TO.N,GND*%
X751061177Y-298556500D03*
%TD*%
D10*
%TO.P,C56,1*%
%TO.N,Net-(C55-Pad2)*%
X661500000Y-302450000D03*
%TO.P,C56,2*%
%TO.N,Net-(C56-Pad2)*%
X661500000Y-307450000D03*
%TD*%
%TO.P,C58,1*%
%TO.N,Net-(C57-Pad2)*%
X652600000Y-299450000D03*
%TO.P,C58,2*%
%TO.N,Net-(U7B-+)*%
X652600000Y-294450000D03*
%TD*%
%TO.P,C44,1*%
%TO.N,Net-(C44-Pad1)*%
X663493500Y-291275000D03*
%TO.P,C44,2*%
%TO.N,GND*%
X663493500Y-286275000D03*
%TD*%
%TO.P,C50,1*%
%TO.N,Net-(U7B--)*%
X637100000Y-299875000D03*
%TO.P,C50,2*%
%TO.N,Net-(C42-Pad1)*%
X637100000Y-304875000D03*
%TD*%
D12*
%TO.P,U7,1*%
%TO.N,Net-(C56-Pad2)*%
X648395000Y-307395000D03*
D11*
%TO.P,U7,2,-*%
%TO.N,Net-(U7A--)*%
X648395000Y-304855000D03*
%TO.P,U7,3,+*%
%TO.N,1{slash}2*%
X648395000Y-302315000D03*
%TO.P,U7,4,V-*%
%TO.N,GND*%
X648395000Y-299775000D03*
%TO.P,U7,5,+*%
%TO.N,Net-(U7B-+)*%
X640775000Y-299775000D03*
%TO.P,U7,6,-*%
%TO.N,Net-(U7B--)*%
X640775000Y-302315000D03*
%TO.P,U7,7*%
%TO.N,Net-(C42-Pad1)*%
X640775000Y-304855000D03*
%TO.P,U7,8,V+*%
%TO.N,+12V*%
X640775000Y-307395000D03*
%TD*%
D12*
%TO.P,U9,1*%
%TO.N,Net-(U9A--)*%
X547675000Y-299975000D03*
D11*
%TO.P,U9,2,-*%
X547675000Y-297435000D03*
%TO.P,U9,3,+*%
%TO.N,Net-(U9A-+)*%
X547675000Y-294895000D03*
%TO.P,U9,4,V-*%
%TO.N,GND*%
X547675000Y-292355000D03*
%TO.P,U9,5,+*%
%TO.N,Net-(U9B-+)*%
X540055000Y-292355000D03*
%TO.P,U9,6,-*%
%TO.N,Net-(U9B--)*%
X540055000Y-294895000D03*
%TO.P,U9,7*%
X540055000Y-297435000D03*
%TO.P,U9,8,V+*%
%TO.N,+12V*%
X540055000Y-299975000D03*
%TD*%
D15*
%TO.P,Q1,1,G*%
%TO.N,Net-(Q1-G)*%
X702843500Y-302985000D03*
D16*
%TO.P,Q1,2,S*%
%TO.N,Net-(Q1-S)*%
X702843500Y-305525000D03*
%TO.P,Q1,3,D*%
%TO.N,+12V*%
X702843500Y-308065000D03*
%TD*%
D10*
%TO.P,C51,1*%
%TO.N,Net-(C51-Pad1)*%
X589075000Y-299900000D03*
%TO.P,C51,2*%
%TO.N,Net-(U8B--)*%
X589075000Y-294900000D03*
%TD*%
%TO.P,C46,1*%
%TO.N,Net-(C45-Pad2)*%
X579975000Y-300450000D03*
%TO.P,C46,2*%
%TO.N,Net-(C46-Pad2)*%
X579975000Y-295450000D03*
%TD*%
%TO.P,,2*%
%TO.N,Net-(SW5A-C)*%
X522425000Y-288875000D03*
%TD*%
%TO.P,R37,1*%
%TO.N,GND*%
X703225000Y-272975000D03*
D11*
%TO.P,R37,2*%
%TO.N,Net-(Q1-S)*%
X703225000Y-283135000D03*
%TD*%
D10*
%TO.P,R74,1*%
%TO.N,Net-(C63-Pad1)*%
X566895000Y-294850000D03*
D11*
%TO.P,R74,2*%
%TO.N,Net-(U8B--)*%
X577055000Y-294850000D03*
%TD*%
D10*
%TO.P,R65,1*%
%TO.N,Net-(C52-Pad1)*%
X539420000Y-303925000D03*
D11*
%TO.P,R65,2*%
%TO.N,Net-(U9A--)*%
X549580000Y-303925000D03*
%TD*%
D10*
%TO.P,C52,1*%
%TO.N,Net-(C52-Pad1)*%
X532450000Y-299925000D03*
%TO.P,C52,2*%
%TO.N,Net-(U9B--)*%
X532450000Y-294925000D03*
%TD*%
D15*
%TO.P,Q2,1,G*%
%TO.N,Net-(Q2-G)*%
X693843500Y-302925000D03*
D16*
%TO.P,Q2,2,S*%
%TO.N,Net-(Q2-S)*%
X693843500Y-305465000D03*
%TO.P,Q2,3,D*%
%TO.N,Net-(Q2-D)*%
X693843500Y-308005000D03*
%TD*%
D10*
%TO.P,R66,1*%
%TO.N,Net-(U9B-+)*%
X536450000Y-292340000D03*
D11*
%TO.P,R66,2*%
%TO.N,Net-(C52-Pad1)*%
X536450000Y-302500000D03*
%TD*%
D10*
%TO.P,C63,1*%
%TO.N,Net-(C63-Pad1)*%
X563975000Y-295875000D03*
%TO.P,C63,2*%
%TO.N,Net-(C63-Pad2)*%
X563975000Y-300875000D03*
%TD*%
%TO.P,R56,1*%
%TO.N,Net-(C38-Pad1)*%
X687625000Y-297370000D03*
D11*
%TO.P,R56,2*%
%TO.N,Net-(U7A--)*%
X687625000Y-307530000D03*
%TD*%
D10*
%TO.P,R20,1*%
%TO.N,Net-(Q2-D)*%
X698293500Y-298115000D03*
D11*
%TO.P,R20,2*%
%TO.N,+12V*%
X698293500Y-308275000D03*
%TD*%
D17*
%TO.P,J4,S*%
%TO.N,GND*%
X612260000Y-272985000D03*
%TO.P,J4,SN*%
X628490000Y-272985000D03*
%TO.P,J4,T*%
%TO.N,Net-(C24-Pad1)*%
X612260000Y-285685000D03*
%TO.P,J4,TN*%
%TO.N,Net-(C23-Pad2)*%
X628490000Y-285685000D03*
%TD*%
D10*
%TO.P,C22,1*%
%TO.N,Net-(C22-Pad1)*%
X710575000Y-297900000D03*
%TO.P,C22,2*%
%TO.N,Net-(Q1-G)*%
X710575000Y-302900000D03*
%TD*%
%TO.P,R90,1*%
%TO.N,1{slash}2*%
X577105000Y-303950000D03*
D11*
%TO.P,R90,2*%
%TO.N,+12V*%
X566945000Y-303950000D03*
%TD*%
D10*
%TO.P,R92,1*%
%TO.N,Net-(C75-Pad1)*%
X505055000Y-296950000D03*
D11*
%TO.P,R92,2*%
%TO.N,GND*%
X494895000Y-296950000D03*
%TD*%
D18*
%TO.P,D9,1,K*%
%TO.N,Net-(D7-K)*%
X743375000Y-276641667D03*
D19*
%TO.P,D9,2,A*%
%TO.N,Net-(D8-K)*%
X750995000Y-276641667D03*
%TD*%
D10*
%TO.P,R59,1*%
%TO.N,Net-(U7B-+)*%
X658570000Y-294425000D03*
D11*
%TO.P,R59,2*%
%TO.N,Net-(C44-Pad1)*%
X668730000Y-294425000D03*
%TD*%
D10*
%TO.P,C43,1*%
%TO.N,Net-(C42-Pad2)*%
X614550000Y-297875000D03*
%TO.P,C43,2*%
%TO.N,Net-(U8A-+)*%
X609550000Y-297875000D03*
%TD*%
%TO.P,R63,1*%
%TO.N,Net-(C51-Pad1)*%
X586050000Y-302555000D03*
D11*
%TO.P,R63,2*%
%TO.N,Net-(C46-Pad2)*%
X586050000Y-292395000D03*
%TD*%
D17*
%TO.P,J9,R*%
%TO.N,Net-(D17-A)*%
X716263500Y-279325000D03*
%TO.P,J9,RN*%
%TO.N,Net-(J9-PadRN)*%
X732493500Y-279325000D03*
%TO.P,J9,S*%
%TO.N,GND*%
X716263500Y-272975000D03*
%TO.P,J9,SN*%
X732493500Y-272975000D03*
%TO.P,J9,T*%
%TO.N,Net-(D19-A)*%
X716263500Y-285675000D03*
%TO.P,J9,TN*%
%TO.N,Net-(J9-PadTN)*%
X732493500Y-285675000D03*
%TD*%
D20*
%TO.P,U10,1,IN*%
%TO.N,Net-(D7-K)*%
X749723500Y-307081500D03*
D21*
%TO.P,U10,2,GND*%
%TO.N,GND*%
X747183500Y-307081500D03*
%TO.P,U10,3,OUT*%
%TO.N,+12V*%
X744643500Y-307081500D03*
%TD*%
D10*
%TO.P,R75,1*%
%TO.N,Net-(U9A-+)*%
X550945000Y-294900000D03*
D11*
%TO.P,R75,2*%
%TO.N,Net-(C63-Pad1)*%
X561105000Y-294900000D03*
%TD*%
D10*
%TO.P,C67,1*%
%TO.N,Net-(C67-Pad1)*%
X642075000Y-294950000D03*
%TO.P,C67,2*%
%TO.N,GND*%
X647075000Y-294950000D03*
%TD*%
%TO.P,C55,1*%
%TO.N,Net-(C54-Pad2)*%
X667575000Y-307450000D03*
%TO.P,C55,2*%
%TO.N,Net-(C55-Pad2)*%
X667575000Y-302450000D03*
%TD*%
D17*
%TO.P,,~12V*%
%TO.N,Net-(D8-K)*%
X756895000Y-280325000D03*
%TD*%
D10*
%TO.P,R76,1*%
%TO.N,Net-(C67-Pad1)*%
X634075000Y-292270000D03*
D11*
%TO.P,R76,2*%
%TO.N,Net-(U7B--)*%
X634075000Y-302430000D03*
%TD*%
D10*
%TO.P,R78,1*%
%TO.N,Net-(C64-Pad1)*%
X619965000Y-292375000D03*
D11*
%TO.P,R78,2*%
%TO.N,Net-(C42-Pad1)*%
X630125000Y-292375000D03*
%TD*%
D17*
%TO.P,J1,S*%
%TO.N,GND*%
X672500000Y-272950000D03*
%TO.P,J1,SN*%
X688730000Y-272950000D03*
%TO.P,J1,T*%
%TO.N,Net-(J1-PadT)*%
X672500000Y-285650000D03*
%TO.P,J1,TN*%
%TO.N,unconnected-(J1-PadTN)*%
X688730000Y-285650000D03*
%TD*%
D10*
%TO.P,,1*%
%TO.N,Net-(SW5A-A)*%
X522425000Y-281900000D03*
%TD*%
%TO.P,R87,1*%
%TO.N,Net-(C63-Pad2)*%
X566895000Y-300925000D03*
D11*
%TO.P,R87,2*%
%TO.N,1{slash}2*%
X577055000Y-300925000D03*
%TD*%
D10*
%TO.P,R83,1*%
%TO.N,Net-(C57-Pad2)*%
X655525000Y-301980000D03*
D11*
%TO.P,R83,2*%
%TO.N,GND*%
X655525000Y-291820000D03*
%TD*%
D10*
%TO.P,C53,1*%
%TO.N,Net-(U7A--)*%
X684550000Y-304925000D03*
%TO.P,C53,2*%
%TO.N,Net-(C53-Pad2)*%
X684550000Y-299925000D03*
%TD*%
%TO.P,R70,1*%
%TO.N,Net-(C56-Pad2)*%
X664550000Y-307455000D03*
D11*
%TO.P,R70,2*%
%TO.N,Net-(C54-Pad2)*%
X664550000Y-297295000D03*
%TD*%
D10*
%TO.P,C31,1*%
%TO.N,Net-(Q2-D)*%
X699425000Y-284305000D03*
%TO.P,C31,2*%
%TO.N,Net-(SW5A-C)*%
X699425000Y-279305000D03*
%TD*%
%TO.P,C75,1*%
%TO.N,Net-(C75-Pad1)*%
X507875000Y-294475000D03*
%TO.P,C75,2*%
%TO.N,Net-(C74-Pad1)*%
X507875000Y-299475000D03*
%TD*%
%TO.P,,2*%
%TO.N,Net-(SW5B-B)*%
X508450000Y-282350000D03*
%TD*%
%TO.P,C54,1*%
%TO.N,Net-(C53-Pad2)*%
X678675000Y-302425000D03*
%TO.P,C54,2*%
%TO.N,Net-(C54-Pad2)*%
X678675000Y-307425000D03*
%TD*%
D18*
%TO.P,D8,1,K*%
%TO.N,Net-(D8-K)*%
X750995000Y-283716667D03*
D19*
%TO.P,D8,2,A*%
%TO.N,GND*%
X743375000Y-283716667D03*
%TD*%
D17*
%TO.P,,~12V*%
%TO.N,Net-(D6-K)*%
X756895000Y-287325000D03*
%TD*%
D10*
%TO.P,R69,1*%
%TO.N,Net-(C54-Pad2)*%
X675625000Y-294715000D03*
D11*
%TO.P,R69,2*%
%TO.N,Net-(U7A--)*%
X675625000Y-304875000D03*
%TD*%
D18*
%TO.P,D7,1,K*%
%TO.N,Net-(D7-K)*%
X743375000Y-280150001D03*
D19*
%TO.P,D7,2,A*%
%TO.N,Net-(D6-K)*%
X750995000Y-280150001D03*
%TD*%
D17*
%TO.P,J8,R*%
%TO.N,Net-(SW5B-B)*%
X487285000Y-279335000D03*
%TO.P,J8,RN*%
%TO.N,unconnected-(J8-PadRN)*%
X503515000Y-279335000D03*
%TO.P,J8,S*%
%TO.N,GND*%
X487285000Y-272985000D03*
%TO.P,J8,SN*%
X503515000Y-272985000D03*
%TO.P,J8,T*%
%TO.N,Net-(SW5B-A)*%
X487285000Y-285685000D03*
%TO.P,J8,TN*%
%TO.N,unconnected-(J8-PadTN)*%
X503515000Y-285685000D03*
%TD*%
D10*
%TO.P,C71,1*%
%TO.N,Net-(U11-BYPASS)*%
X522975000Y-300425000D03*
%TO.P,C71,2*%
%TO.N,GND*%
X522975000Y-295425000D03*
%TD*%
%TO.P,C66,1*%
%TO.N,Net-(U9B-+)*%
X540900000Y-288400000D03*
%TO.P,C66,2*%
%TO.N,GND*%
X545900000Y-288400000D03*
%TD*%
%TO.P,,2*%
%TO.N,Net-(SW5B-A)*%
X508475000Y-288875000D03*
%TD*%
D12*
%TO.P,U8,1*%
%TO.N,Net-(U8A--)*%
X603225000Y-299950000D03*
D11*
%TO.P,U8,2,-*%
X603225000Y-297410000D03*
%TO.P,U8,3,+*%
%TO.N,Net-(U8A-+)*%
X603225000Y-294870000D03*
%TO.P,U8,4,V-*%
%TO.N,GND*%
X603225000Y-292330000D03*
%TO.P,U8,5,+*%
%TO.N,Net-(U8B-+)*%
X595605000Y-292330000D03*
%TO.P,U8,6,-*%
%TO.N,Net-(U8B--)*%
X595605000Y-294870000D03*
%TO.P,U8,7*%
X595605000Y-297410000D03*
%TO.P,U8,8,V+*%
%TO.N,+12V*%
X595605000Y-299950000D03*
%TD*%
D10*
%TO.P,R82,1*%
%TO.N,Net-(C55-Pad2)*%
X672575000Y-301985000D03*
D11*
%TO.P,R82,2*%
%TO.N,GND*%
X672575000Y-291825000D03*
%TD*%
D10*
%TO.P,C23,1*%
%TO.N,Net-(Q1-S)*%
X667050000Y-281800000D03*
%TO.P,C23,2*%
%TO.N,Net-(C23-Pad2)*%
X662050000Y-281800000D03*
%TD*%
%TO.P,C45,1*%
%TO.N,Net-(U8A--)*%
X602000000Y-303875000D03*
%TO.P,C45,2*%
%TO.N,Net-(C45-Pad2)*%
X597000000Y-303875000D03*
%TD*%
D17*
%TO.P,J3,S*%
%TO.N,GND*%
X642445000Y-272950000D03*
%TO.P,J3,SN*%
X658675000Y-272950000D03*
%TO.P,J3,T*%
%TO.N,Net-(C23-Pad2)*%
X642445000Y-285650000D03*
%TO.P,J3,TN*%
%TO.N,unconnected-(J3-PadTN)*%
X658675000Y-285650000D03*
%TD*%
D14*
%TO.P,C24,1*%
%TO.N,Net-(C24-Pad1)*%
X695793500Y-276925000D03*
%TO.P,C24,2*%
%TO.N,Net-(Q2-G)*%
X695793500Y-284425000D03*
%TD*%
D10*
%TO.P,R41,1*%
%TO.N,GND*%
X690693500Y-295945000D03*
D11*
%TO.P,R41,2*%
%TO.N,Net-(Q2-S)*%
X690693500Y-306105000D03*
%TD*%
D10*
%TO.P,R89,1*%
%TO.N,Net-(C64-Pad2)*%
X615415000Y-306975000D03*
D11*
%TO.P,R89,2*%
%TO.N,1{slash}2*%
X625575000Y-306975000D03*
%TD*%
D10*
%TO.P,R79,1*%
%TO.N,Net-(U8A-+)*%
X606940000Y-294875000D03*
D11*
%TO.P,R79,2*%
%TO.N,Net-(C64-Pad1)*%
X617100000Y-294875000D03*
%TD*%
D10*
%TO.P,C48,1*%
%TO.N,Net-(C47-Pad2)*%
X558500000Y-297925000D03*
%TO.P,C48,2*%
%TO.N,Net-(U9A-+)*%
X553500000Y-297925000D03*
%TD*%
%TO.P,C47,1*%
%TO.N,Net-(U8B--)*%
X574475000Y-297900000D03*
%TO.P,C47,2*%
%TO.N,Net-(C47-Pad2)*%
X569475000Y-297900000D03*
%TD*%
%TO.P,C57,1*%
%TO.N,Net-(C56-Pad2)*%
X652650000Y-307500000D03*
%TO.P,C57,2*%
%TO.N,Net-(C57-Pad2)*%
X652650000Y-302500000D03*
%TD*%
%TO.P,C42,1*%
%TO.N,Net-(C42-Pad1)*%
X628000000Y-297900000D03*
%TO.P,C42,2*%
%TO.N,Net-(C42-Pad2)*%
X623000000Y-297900000D03*
%TD*%
D17*
%TO.P,J7,S*%
%TO.N,GND*%
X552450000Y-272975000D03*
%TO.P,J7,SN*%
X568680000Y-272975000D03*
%TO.P,J7,T*%
%TO.N,Net-(SW5A-A)*%
X552450000Y-285675000D03*
%TO.P,J7,TN*%
%TO.N,unconnected-(J7-PadTN)*%
X568680000Y-285675000D03*
%TD*%
D10*
%TO.P,C49,1*%
%TO.N,Net-(U9B--)*%
X532450000Y-290325000D03*
%TO.P,C49,2*%
%TO.N,Net-(C49-Pad2)*%
X532450000Y-285325000D03*
%TD*%
%TO.P,R28,1*%
%TO.N,GND*%
X726713500Y-291925000D03*
D11*
%TO.P,R28,2*%
%TO.N,Net-(C22-Pad1)*%
X711473500Y-291925000D03*
%TD*%
D22*
%TO.P,REF\u002A\u002A,1*%
%TO.N,+12V*%
X714018500Y-307981500D03*
D23*
%TO.P,REF\u002A\u002A,2*%
%TO.N,Net-(K2-Pad13)*%
X716558500Y-307981500D03*
%TO.P,REF\u002A\u002A,3*%
%TO.N,Net-(D19-A)*%
X719098500Y-307981500D03*
%TO.P,REF\u002A\u002A,4*%
%TO.N,Net-(D17-A)*%
X721638500Y-307981500D03*
%TO.P,REF\u002A\u002A,5*%
%TO.N,Net-(SW5A-C)*%
X724178500Y-307981500D03*
%TO.P,REF\u002A\u002A,6*%
%TO.N,GND*%
X726718500Y-307981500D03*
%TO.P,REF\u002A\u002A,7*%
%TO.N,Net-(J9-PadRN)*%
X729258500Y-307981500D03*
%TO.P,REF\u002A\u002A,8*%
%TO.N,Net-(J9-PadTN)*%
X731798500Y-307981500D03*
%TD*%
D24*
%TO.P,RV20,1,1*%
%TO.N,GND*%
X540525000Y-271725000D03*
%TO.P,RV20,2,2*%
%TO.N,Net-(U11-+)*%
X535525000Y-271725000D03*
%TO.P,RV20,3,3*%
%TO.N,Net-(C72-Pad2)*%
X530525000Y-271725000D03*
%TD*%
D10*
%TO.P,C64,1*%
%TO.N,Net-(C64-Pad1)*%
X620075000Y-295450000D03*
%TO.P,C64,2*%
%TO.N,Net-(C64-Pad2)*%
X620075000Y-300450000D03*
%TD*%
%TO.P,C65,1*%
%TO.N,Net-(U8B-+)*%
X596800000Y-288550000D03*
%TO.P,C65,2*%
%TO.N,GND*%
X601800000Y-288550000D03*
%TD*%
%TO.P,R72,1*%
%TO.N,Net-(C47-Pad2)*%
X553845000Y-303950000D03*
D11*
%TO.P,R72,2*%
%TO.N,Net-(C63-Pad2)*%
X564005000Y-303950000D03*
%TD*%
D10*
%TO.P,R29,1*%
%TO.N,GND*%
X706225000Y-272975000D03*
D11*
%TO.P,R29,2*%
%TO.N,Net-(Q1-G)*%
X706225000Y-283135000D03*
%TD*%
D13*
%TO.P,C77,1*%
%TO.N,+12V*%
X738418500Y-298506500D03*
D14*
%TO.P,C77,2*%
%TO.N,GND*%
X743418500Y-298506500D03*
%TD*%
D10*
%TO.P,R19,1*%
%TO.N,Net-(Q1-G)*%
X707175000Y-298115000D03*
D11*
%TO.P,R19,2*%
%TO.N,+12V*%
X707175000Y-308275000D03*
%TD*%
D18*
%TO.P,D6,1,K*%
%TO.N,Net-(D6-K)*%
X750995000Y-287225000D03*
D19*
%TO.P,D6,2,A*%
%TO.N,GND*%
X743375000Y-287225000D03*
%TD*%
D10*
%TO.P,R73,1*%
%TO.N,Net-(C49-Pad2)*%
X527450000Y-285315000D03*
D11*
%TO.P,R73,2*%
%TO.N,GND*%
X527450000Y-295475000D03*
%TD*%
D10*
%TO.P,R86,1*%
%TO.N,Net-(U8A--)*%
X606990000Y-300925000D03*
D11*
%TO.P,R86,2*%
%TO.N,Net-(C64-Pad2)*%
X617150000Y-300925000D03*
%TD*%
D12*
%TO.P,U11,1,GAIN*%
%TO.N,unconnected-(U11-GAIN-Pad1)*%
X519600000Y-291900000D03*
D11*
%TO.P,U11,2,-*%
%TO.N,GND*%
X517060000Y-291900000D03*
%TO.P,U11,3,+*%
%TO.N,Net-(U11-+)*%
X514520000Y-291900000D03*
%TO.P,U11,4,GND*%
%TO.N,GND*%
X511980000Y-291900000D03*
%TO.P,U11,5*%
%TO.N,Net-(C74-Pad1)*%
X511980000Y-299520000D03*
%TO.P,U11,6,V+*%
%TO.N,+12V*%
X514520000Y-299520000D03*
%TO.P,U11,7,BYPASS*%
%TO.N,Net-(U11-BYPASS)*%
X517060000Y-299520000D03*
%TO.P,U11,8,GAIN*%
%TO.N,unconnected-(U11-GAIN-Pad8)*%
X519600000Y-299520000D03*
%TD*%
D10*
%TO.P,C72,1*%
%TO.N,Net-(SW5A-B)*%
X524450000Y-276900000D03*
%TO.P,C72,2*%
%TO.N,Net-(C72-Pad2)*%
X524450000Y-271900000D03*
%TD*%
%TO.P,R91,1*%
%TO.N,GND*%
X572093500Y-273020000D03*
D11*
%TO.P,R91,2*%
%TO.N,1{slash}2*%
X572093500Y-283180000D03*
%TD*%
D12*
%TO.P,C73,1*%
%TO.N,1{slash}2*%
X578475000Y-278880113D03*
D10*
%TO.P,C73,2*%
%TO.N,GND*%
X578475000Y-276380113D03*
%TD*%
%TO.P,R67,1*%
%TO.N,Net-(C42-Pad2)*%
X611945000Y-303950000D03*
D11*
%TO.P,R67,2*%
%TO.N,Net-(C64-Pad2)*%
X622105000Y-303950000D03*
%TD*%
D10*
%TO.P,R16,1*%
%TO.N,Net-(J1-PadT)*%
X717057500Y-294870000D03*
D11*
%TO.P,R16,2*%
%TO.N,Net-(K2-Pad13)*%
X717057500Y-305030000D03*
%TD*%
D10*
%TO.P,,1*%
%TO.N,Net-(SW5A-B)*%
X522450000Y-285450000D03*
%TD*%
%TO.P,R68,1*%
%TO.N,Net-(SW5A-A)*%
X548605000Y-285400000D03*
D11*
%TO.P,R68,2*%
%TO.N,Net-(C49-Pad2)*%
X538445000Y-285400000D03*
%TD*%
D10*
%TO.P,R64,1*%
%TO.N,Net-(U8B-+)*%
X592075000Y-292370000D03*
D11*
%TO.P,R64,2*%
%TO.N,Net-(C51-Pad1)*%
X592075000Y-302530000D03*
%TD*%
D12*
%TO.P,C74,1*%
%TO.N,Net-(C74-Pad1)*%
X489450000Y-299250000D03*
D10*
%TO.P,C74,2*%
%TO.N,Net-(SW5B-A)*%
X489450000Y-295450000D03*
%TD*%
%TO.P,R38,1*%
%TO.N,GND*%
X638650000Y-275415000D03*
D11*
%TO.P,R38,2*%
%TO.N,Net-(C23-Pad2)*%
X638650000Y-285575000D03*
%TD*%
D25*
%TO.N,1{slash}2*%
X608600000Y-276845000D03*
%TO.N,Net-(SW5A-C)*%
X607000000Y-304395000D03*
X532500000Y-304345000D03*
X607050000Y-309395000D03*
%TO.N,Net-(C54-Pad2)*%
X670100000Y-307445000D03*
%TO.N,GND*%
X669100000Y-272945000D03*
X669100000Y-289345000D03*
%TO.N,1{slash}2*%
X602500000Y-276845000D03*
X632500000Y-288300000D03*
%TO.N,Net-(U7B-+)*%
X650050000Y-297445000D03*
%TO.N,1{slash}2*%
X632500000Y-276895000D03*
%TO.N,Net-(U7B-+)*%
X639500000Y-297395000D03*
%TO.N,Net-(J1-PadT)*%
X689200000Y-290895000D03*
%TO.N,Net-(SW5A-C)*%
X532475000Y-309425000D03*
%TO.N,Net-(C54-Pad2)*%
X670100000Y-297395000D03*
%TO.N,Net-(J1-PadT)*%
X707000000Y-290895000D03*
%TD*%
D26*
%TO.N,1{slash}2*%
X602525000Y-276875000D02*
X608500000Y-276875000D01*
%TO.N,Net-(C54-Pad2)*%
X670075000Y-307425000D02*
X670100000Y-297395000D01*
%TO.N,Net-(SW5A-C)*%
X532500000Y-304345000D02*
X532475000Y-304370000D01*
%TO.N,1{slash}2*%
X632500000Y-288300000D02*
X632500000Y-276895000D01*
%TO.N,Net-(SW5A-C)*%
X532475000Y-304370000D02*
X532475000Y-309425000D01*
%TO.N,Net-(U7B-+)*%
X650030000Y-297425000D02*
X639550000Y-297425000D01*
%TO.N,Net-(SW5A-C)*%
X607000000Y-304400000D02*
X607000000Y-309400000D01*
%TO.N,Net-(J1-PadT)*%
X706970000Y-290925000D02*
X689230000Y-290925000D01*
%TO.N,Net-(SW5A-C)*%
X532475000Y-304350000D02*
X532500000Y-304345000D01*
%TO.N,Net-(U7B-+)*%
X650050000Y-297425000D02*
X650050000Y-297445000D01*
X650050000Y-297445000D02*
X650030000Y-297425000D01*
%TO.N,GND*%
X669100000Y-272945000D02*
X669100000Y-289345000D01*
%TD*%
M02*
