M48
; DRILL file {KiCad 9.0.0} date 2025-04-19T09:22:35+0500
; FORMAT={-:-/ absolute / metric / decimal}
; #@! TF.CreationDate,2025-04-19T09:22:35+05:00
; #@! TF.GenerationSoftware,Kicad,Pcbnew,9.0.0
; #@! TF.FileFunction,Plated,1,2,PTH
FMAT,2
METRIC
; #@! TA.AperFunction,Plated,PTH,ViaDrill
T1C0.400
; #@! TA.AperFunction,Plated,PTH,ComponentDrill
T2C0.800
; #@! TA.AperFunction,Plated,PTH,ComponentDrill
T3C0.900
; #@! TA.AperFunction,Plated,PTH,ComponentDrill
T4C1.000
; #@! TA.AperFunction,Plated,PTH,ComponentDrill
T5C1.100
; #@! TA.AperFunction,Plated,PTH,ComponentDrill
T6C1.300
; #@! TA.AperFunction,Plated,PTH,ComponentDrill
T7C1.400
%
G90
G05
T1
X532.475Y-309.425
X532.5Y-304.345
X602.5Y-276.845
X607.0Y-304.395
X607.05Y-309.395
X608.6Y-276.845
X632.5Y-276.895
X632.5Y-288.3
X639.5Y-297.395
X650.05Y-297.445
X669.1Y-272.945
X669.1Y-289.345
X670.1Y-297.395
X670.1Y-307.445
X689.2Y-290.895
X707.0Y-290.895
T2
X489.45Y-295.45
X489.45Y-299.25
X494.895Y-296.95
X505.055Y-296.95
X507.875Y-294.475
X507.875Y-299.475
X508.45Y-282.35
X508.475Y-288.875
X511.98Y-291.9
X511.98Y-299.52
X514.52Y-291.9
X514.52Y-299.52
X517.06Y-291.9
X517.06Y-299.52
X519.6Y-291.9
X519.6Y-299.52
X522.425Y-281.9
X522.425Y-288.875
X522.45Y-285.45
X522.975Y-295.425
X522.975Y-300.425
X524.45Y-271.9
X524.45Y-276.9
X525.975Y-304.478
X525.975Y-308.278
X527.45Y-285.315
X527.45Y-295.475
X532.45Y-285.325
X532.45Y-290.325
X532.45Y-294.925
X532.45Y-299.925
X536.45Y-292.34
X536.45Y-302.5
X538.445Y-285.4
X539.42Y-303.925
X540.055Y-292.355
X540.055Y-294.895
X540.055Y-297.435
X540.055Y-299.975
X540.9Y-288.4
X545.9Y-288.4
X547.675Y-292.355
X547.675Y-294.895
X547.675Y-297.435
X547.675Y-299.975
X548.605Y-285.4
X549.58Y-303.925
X550.89Y-300.925
X550.945Y-294.9
X553.5Y-297.925
X553.845Y-303.95
X558.5Y-297.925
X561.05Y-300.925
X561.105Y-294.9
X563.975Y-295.875
X563.975Y-300.875
X564.005Y-303.95
X566.895Y-294.85
X566.895Y-300.925
X566.945Y-303.95
X569.475Y-297.9
X569.84Y-291.8
X572.093Y-273.02
X572.093Y-283.18
X574.475Y-297.9
X577.055Y-294.85
X577.055Y-300.925
X577.105Y-303.95
X578.475Y-276.38
X578.475Y-278.88
X579.975Y-295.45
X579.975Y-300.45
X580.0Y-291.8
X582.975Y-292.37
X582.975Y-302.53
X586.05Y-292.395
X586.05Y-302.555
X589.075Y-294.9
X589.075Y-299.9
X592.075Y-292.37
X592.075Y-302.53
X595.605Y-292.33
X595.605Y-294.87
X595.605Y-297.41
X595.605Y-299.95
X596.8Y-288.55
X597.0Y-303.875
X601.8Y-288.55
X602.0Y-303.875
X603.225Y-292.33
X603.225Y-294.87
X603.225Y-297.41
X603.225Y-299.95
X606.94Y-294.875
X606.99Y-300.925
X609.55Y-297.875
X611.945Y-303.95
X614.55Y-297.875
X615.415Y-306.975
X617.1Y-294.875
X617.15Y-300.925
X619.965Y-292.375
X620.075Y-295.45
X620.075Y-300.45
X622.105Y-303.95
X623.0Y-297.9
X625.575Y-306.975
X628.0Y-297.9
X630.125Y-292.375
X631.025Y-296.92
X631.025Y-307.08
X634.075Y-292.27
X634.075Y-302.43
X637.1Y-299.875
X637.1Y-304.875
X638.65Y-275.415
X638.65Y-285.575
X640.775Y-299.775
X640.775Y-302.315
X640.775Y-304.855
X640.775Y-307.395
X642.075Y-294.95
X647.075Y-294.95
X648.395Y-299.775
X648.395Y-302.315
X648.395Y-304.855
X648.395Y-307.395
X652.6Y-294.45
X652.6Y-299.45
X652.65Y-302.5
X652.65Y-307.5
X655.525Y-291.82
X655.525Y-301.98
X658.475Y-297.34
X658.475Y-307.5
X658.57Y-294.425
X661.5Y-302.45
X661.5Y-307.45
X662.05Y-281.8
X663.493Y-286.275
X663.493Y-291.275
X664.55Y-297.295
X664.55Y-307.455
X667.05Y-281.8
X667.575Y-302.45
X667.575Y-307.45
X668.73Y-294.425
X672.575Y-291.825
X672.575Y-301.985
X675.625Y-294.715
X675.625Y-304.875
X678.675Y-302.425
X678.675Y-307.425
X681.55Y-291.8
X681.55Y-301.96
X684.55Y-299.925
X684.55Y-304.925
X685.47Y-293.375
X687.625Y-297.37
X687.625Y-307.53
X690.693Y-295.945
X690.693Y-306.105
X692.493Y-279.25
X692.493Y-284.25
X693.843Y-302.925
X693.843Y-305.465
X693.843Y-308.005
X695.63Y-293.375
X698.293Y-298.115
X698.293Y-308.275
X699.425Y-279.305
X699.425Y-284.305
X702.843Y-302.985
X702.843Y-305.525
X702.843Y-308.065
X703.225Y-272.975
X703.225Y-283.135
X706.225Y-272.975
X706.225Y-283.135
X707.175Y-298.115
X707.175Y-308.275
X710.575Y-297.9
X710.575Y-302.9
X711.473Y-291.925
X713.65Y-294.87
X713.65Y-305.03
X717.058Y-294.87
X717.058Y-305.03
X726.713Y-291.925
T3
X743.375Y-276.642
X743.375Y-280.15
X743.375Y-283.717
X743.375Y-287.225
X750.995Y-276.642
X750.995Y-280.15
X750.995Y-283.717
X750.995Y-287.225
T4
X695.793Y-276.925
X695.793Y-284.425
X714.019Y-307.981
X716.558Y-307.981
X719.098Y-307.981
X721.639Y-307.981
X724.178Y-307.981
X726.718Y-307.981
X729.258Y-307.981
X731.798Y-307.981
X738.418Y-298.506
X743.418Y-298.506
X751.061Y-298.556
X756.061Y-298.556
T5
X744.644Y-307.082
X747.183Y-307.082
X749.723Y-307.082
T6
X530.525Y-271.725
X535.525Y-271.725
X540.525Y-271.725
T7
X487.285Y-272.985
X487.285Y-279.335
X487.285Y-285.685
X503.515Y-272.985
X503.515Y-279.335
X503.515Y-285.685
X552.45Y-272.975
X552.45Y-285.675
X568.68Y-272.975
X568.68Y-285.675
X612.26Y-272.985
X612.26Y-285.685
X628.49Y-272.985
X628.49Y-285.685
X642.445Y-272.95
X642.445Y-285.65
X658.675Y-272.95
X658.675Y-285.65
X672.5Y-272.95
X672.5Y-285.65
X688.73Y-272.95
X688.73Y-285.65
X716.264Y-272.975
X716.264Y-279.325
X716.264Y-285.675
X732.493Y-272.975
X732.493Y-279.325
X732.493Y-285.675
X756.895Y-280.325
X756.895Y-287.325
M30
