%TF.GenerationSoftware,KiCad,Pcbnew,9.0.0*%
%TF.CreationDate,2025-04-19T09:28:34+05:00*%
%TF.ProjectId,SRT,5352542e-6b69-4636-9164-5f7063625858,rev?*%
%TF.SameCoordinates,Original*%
%TF.FileFunction,Copper,L2,Bot*%
%TF.FilePolarity,Positive*%
%FSLAX46Y46*%
G04 Gerber Fmt 4.6, Leading zero omitted, Abs format (unit mm)*
G04 Created by KiCad (PCBNEW 9.0.0) date 2025-04-19 09:28:34*
%MOMM*%
%LPD*%
G01*
G04 APERTURE LIST*
%TA.AperFunction,ComponentPad*%
%ADD10C,1.600000*%
%TD*%
%TA.AperFunction,ComponentPad*%
%ADD11O,1.600000X1.600000*%
%TD*%
%TA.AperFunction,ComponentPad*%
%ADD12C,2.000000*%
%TD*%
%TA.AperFunction,ComponentPad*%
%ADD13C,1.400000*%
%TD*%
%TA.AperFunction,ComponentPad*%
%ADD14O,1.400000X1.400000*%
%TD*%
%TA.AperFunction,ComponentPad*%
%ADD15C,2.400000*%
%TD*%
%TA.AperFunction,ComponentPad*%
%ADD16R,1.800000X1.800000*%
%TD*%
%TA.AperFunction,ComponentPad*%
%ADD17O,1.800000X1.800000*%
%TD*%
%TA.AperFunction,ComponentPad*%
%ADD18C,3.000000*%
%TD*%
%TA.AperFunction,ComponentPad*%
%ADD19R,1.700000X1.700000*%
%TD*%
%TA.AperFunction,ComponentPad*%
%ADD20O,1.700000X1.700000*%
%TD*%
%TA.AperFunction,ComponentPad*%
%ADD21R,1.600000X1.600000*%
%TD*%
%TA.AperFunction,ComponentPad*%
%ADD22R,2.400000X2.400000*%
%TD*%
%TA.AperFunction,ComponentPad*%
%ADD23O,2.400000X2.400000*%
%TD*%
%TA.AperFunction,ComponentPad*%
%ADD24R,1.400000X1.400000*%
%TD*%
%TA.AperFunction,ComponentPad*%
%ADD25R,4.000000X4.000000*%
%TD*%
%TA.AperFunction,ComponentPad*%
%ADD26C,4.000000*%
%TD*%
%TA.AperFunction,ComponentPad*%
%ADD27R,2.000000X2.000000*%
%TD*%
%TA.AperFunction,ViaPad*%
%ADD28C,0.800000*%
%TD*%
%TA.AperFunction,Conductor*%
%ADD29C,1.000000*%
%TD*%
%TA.AperFunction,Conductor*%
%ADD30C,2.000000*%
%TD*%
%TA.AperFunction,Conductor*%
%ADD31C,1.200000*%
%TD*%
G04 APERTURE END LIST*
D10*
%TO.P,R21,1*%
%TO.N,B+3*%
X659986472Y-388142559D03*
D11*
%TO.P,R21,2*%
%TO.N,Net-(U5A-A)*%
X659986472Y-403382559D03*
%TD*%
D12*
%TO.P,C13,1*%
%TO.N,Net-(U3B-A)*%
X564161472Y-420245059D03*
%TO.P,C13,2*%
%TO.N,Net-(C13-Pad2)*%
X574161472Y-420245059D03*
%TD*%
D13*
%TO.P,R51,1*%
%TO.N,GND*%
X549816472Y-432620059D03*
D14*
%TO.P,R51,2*%
%TO.N,Net-(U3A-K)*%
X557436472Y-432620059D03*
%TD*%
D15*
%TO.P,C34,1*%
%TO.N,Net-(C34-Pad1)*%
X679736472Y-417322559D03*
%TO.P,C34,2*%
%TO.N,Net-(U5B-G)*%
X679736472Y-432322559D03*
%TD*%
D10*
%TO.P,R57,1*%
%TO.N,B+3*%
X582581472Y-381195059D03*
D11*
%TO.P,R57,2*%
%TO.N,B+1*%
X567341472Y-381195059D03*
%TD*%
D16*
%TO.P,D2,1,K*%
%TO.N,Net-(D2-K)*%
X742146472Y-434272559D03*
D17*
%TO.P,D2,2,A*%
%TO.N,GND*%
X734526472Y-434272559D03*
%TD*%
D18*
%TO.P,,*%
%TO.N,Net-(U2A-G)*%
X591711464Y-437170059D03*
%TD*%
%TO.P,,*%
%TO.N,Net-(R42-Pad1)*%
X715036472Y-373772559D03*
%TD*%
D12*
%TO.P,C26,1*%
%TO.N,Net-(U3A-A)*%
X538536472Y-420495059D03*
%TO.P,C26,2*%
%TO.N,Net-(C26-Pad2)*%
X548536472Y-420495059D03*
%TD*%
D18*
%TO.P,,*%
%TO.N,B+5*%
X749736472Y-414236843D03*
%TD*%
D16*
%TO.P,D5,1,K*%
%TO.N,Net-(D3-K)*%
X738026472Y-427197559D03*
D17*
%TO.P,D5,2,A*%
%TO.N,Net-(D4-K)*%
X745646472Y-427197559D03*
%TD*%
D18*
%TO.P,,*%
%TO.N,Net-(U5A-G)*%
X646806472Y-437072559D03*
%TD*%
D10*
%TO.P,R62,1*%
%TO.N,B+3*%
X582581472Y-385695059D03*
D11*
%TO.P,R62,2*%
%TO.N,B+2*%
X567341472Y-385695059D03*
%TD*%
D16*
%TO.P,D3,1,K*%
%TO.N,Net-(D3-K)*%
X738026472Y-438097559D03*
D17*
%TO.P,D3,2,A*%
%TO.N,Net-(D2-K)*%
X745646472Y-438097559D03*
%TD*%
D13*
%TO.P,R24,1*%
%TO.N,GND*%
X576511472Y-424985059D03*
D14*
%TO.P,R24,2*%
%TO.N,Net-(U3B-K)*%
X576511472Y-432605059D03*
%TD*%
D19*
%TO.P,CR GAIN,1*%
%TO.N,Net-(C12-Pad1)*%
X530296472Y-406820059D03*
D20*
%TO.P,CR GAIN,2*%
%TO.N,GND*%
X532836472Y-406820059D03*
%TO.P,CR GAIN,3*%
%TO.N,Net-(C16-Pad2)*%
X535376472Y-406820059D03*
%TD*%
D13*
%TO.P,R36,1*%
%TO.N,GND*%
X571336472Y-424960059D03*
D14*
%TO.P,R36,2*%
%TO.N,Net-(U3B-G)*%
X571336472Y-432580059D03*
%TD*%
D21*
%TO.P,C18,1*%
%TO.N,Net-(U2B-K)*%
X616036472Y-427572710D03*
D10*
%TO.P,C18,2*%
%TO.N,GND*%
X616036472Y-424072710D03*
%TD*%
%TO.P,R34,1*%
%TO.N,Net-(R30-Pad1)*%
X657986472Y-416852559D03*
D11*
%TO.P,R34,2*%
%TO.N,Net-(U5A-K)*%
X657986472Y-432092559D03*
%TD*%
D12*
%TO.P,C25,1*%
%TO.N,Net-(C12-Pad2)*%
X519311472Y-410847559D03*
%TO.P,C25,2*%
%TO.N,Net-(C25-Pad2)*%
X526811472Y-410847559D03*
%TD*%
D22*
%TO.P,C62,1*%
%TO.N,B+2*%
X527136472Y-385522559D03*
D15*
%TO.P,C62,2*%
%TO.N,GND*%
X527136472Y-393022559D03*
%TD*%
D18*
%TO.P,,*%
%TO.N,Net-(C36-Pad2)*%
X662611472Y-373772559D03*
%TD*%
D12*
%TO.P,C15,1*%
%TO.N,Net-(U1A-A)*%
X497386472Y-417670059D03*
%TO.P,C15,2*%
%TO.N,Net-(C12-Pad2)*%
X507386472Y-417670059D03*
%TD*%
D18*
%TO.P,,*%
%TO.N,Net-(U3A-G)*%
X546011468Y-437170059D03*
%TD*%
%TO.P,,*%
%TO.N,Net-(U5B-G)*%
X674786472Y-437772559D03*
%TD*%
%TO.P,,*%
%TO.N,B+4*%
X749736472Y-389026130D03*
%TD*%
%TO.P,,*%
%TO.N,Net-(U3B-A)*%
X561244800Y-437170059D03*
%TD*%
%TO.P,,*%
%TO.N,Net-(U3B-K)*%
X576478132Y-437170059D03*
%TD*%
D22*
%TO.P,C39,1*%
%TO.N,GND*%
X698086472Y-420972559D03*
D23*
%TO.P,C39,2*%
%TO.N,Net-(D1-A)*%
X698086472Y-395972559D03*
%TD*%
D19*
%TO.P,CLR,1*%
%TO.N,Net-(C12-Pad2)*%
X505121472Y-412545059D03*
D20*
%TO.P,CLR,2*%
%TO.N,GND*%
X507661472Y-412545059D03*
%TO.P,CLR,3*%
%TO.N,Net-(U1A-G)*%
X510201472Y-412545059D03*
%TD*%
D10*
%TO.P,R22,1*%
%TO.N,BIAS*%
X679786472Y-384622559D03*
D11*
%TO.P,R22,2*%
%TO.N,Net-(C17-Pad1)*%
X654386472Y-384622559D03*
%TD*%
D18*
%TO.P,,*%
%TO.N,B+5*%
X749736472Y-405833272D03*
%TD*%
D12*
%TO.P,C12,1*%
%TO.N,Net-(C12-Pad1)*%
X526836472Y-405222559D03*
%TO.P,C12,2*%
%TO.N,Net-(C12-Pad2)*%
X519336472Y-405222559D03*
%TD*%
D21*
%TO.P,C7,1*%
%TO.N,Net-(U1B-K)*%
X526636472Y-432325171D03*
D10*
%TO.P,C7,2*%
%TO.N,GND*%
X526636472Y-429825171D03*
%TD*%
D13*
%TO.P,R84,1*%
%TO.N,Net-(C68-Pad1)*%
X729346472Y-398972559D03*
D14*
%TO.P,R84,2*%
%TO.N,B+4*%
X721726472Y-398972559D03*
%TD*%
D16*
%TO.P,D4,1,K*%
%TO.N,Net-(D4-K)*%
X742146472Y-430772559D03*
D17*
%TO.P,D4,2,A*%
%TO.N,GND*%
X734526472Y-430772559D03*
%TD*%
D18*
%TO.P,,*%
%TO.N,Net-(U1A-K)*%
X507928138Y-437170059D03*
%TD*%
D13*
%TO.P,R6,1*%
%TO.N,GND*%
X530586472Y-424660059D03*
D14*
%TO.P,R6,2*%
%TO.N,Net-(U1B-K)*%
X530586472Y-432280059D03*
%TD*%
D10*
%TO.P,R2,1*%
%TO.N,Net-(U1B-A)*%
X515511472Y-414795059D03*
D11*
%TO.P,R2,2*%
%TO.N,B+1*%
X515511472Y-389395059D03*
%TD*%
D18*
%TO.P,,*%
%TO.N,Net-(U2A-K)*%
X599328130Y-437170059D03*
%TD*%
D10*
%TO.P,R48,1*%
%TO.N,Net-(U5B-A)*%
X667786472Y-403542559D03*
D11*
%TO.P,R48,2*%
%TO.N,B+3*%
X667786472Y-388302559D03*
%TD*%
D13*
%TO.P,R35,1*%
%TO.N,GND*%
X507936472Y-420660059D03*
D14*
%TO.P,R35,2*%
%TO.N,Net-(U1A-K)*%
X507936472Y-428280059D03*
%TD*%
D10*
%TO.P,R49,1*%
%TO.N,Net-(C36-Pad2)*%
X673266472Y-388622559D03*
D11*
%TO.P,R49,2*%
%TO.N,BIAS*%
X688506472Y-388622559D03*
%TD*%
D18*
%TO.P,,*%
%TO.N,B+3*%
X584094798Y-437170059D03*
%TD*%
%TO.P,,*%
%TO.N,B+4*%
X672686472Y-373772559D03*
%TD*%
D13*
%TO.P,R32,1*%
%TO.N,Net-(C26-Pad2)*%
X551276472Y-420495059D03*
D14*
%TO.P,R32,2*%
%TO.N,Net-(K4-Pad8)*%
X558896472Y-420495059D03*
%TD*%
D13*
%TO.P,R15,1*%
%TO.N,GND*%
X609111472Y-417635059D03*
D14*
%TO.P,R15,2*%
%TO.N,Net-(U2B-K)*%
X609111472Y-425255059D03*
%TD*%
D21*
%TO.P,C29,1*%
%TO.N,Net-(U1A-K)*%
X504761472Y-433120059D03*
D10*
%TO.P,C29,2*%
%TO.N,Net-(C29-Pad2)*%
X504761472Y-430620059D03*
%TD*%
%TO.P,R43,1*%
%TO.N,Net-(U5B-G)*%
X674686472Y-427522559D03*
D11*
%TO.P,R43,2*%
%TO.N,Net-(R30-Pad1)*%
X661986472Y-427522559D03*
%TD*%
D10*
%TO.P,R9,1*%
%TO.N,Net-(U2B-G)*%
X603236472Y-420220059D03*
D11*
%TO.P,R9,2*%
%TO.N,Net-(C13-Pad2)*%
X577836472Y-420220059D03*
%TD*%
D24*
%TO.P,K1,1*%
%TO.N,+12V*%
X607011472Y-397020059D03*
D13*
%TO.P,K1,4*%
%TO.N,Net-(K1-Pad4)*%
X607011472Y-404640059D03*
%TO.P,K1,6*%
%TO.N,Net-(K1-Pad6)*%
X607011472Y-409720059D03*
%TO.P,K1,8*%
%TO.N,Net-(K1-Pad8)*%
X607011472Y-414800059D03*
%TO.P,K1,9*%
%TO.N,Net-(K1-Pad9)*%
X614631472Y-414800059D03*
%TO.P,K1,11*%
%TO.N,Net-(K1-Pad11)*%
X614631472Y-409720059D03*
%TO.P,K1,13*%
%TO.N,Net-(K1-Pad13)*%
X614631472Y-404640059D03*
%TO.P,K1,16*%
%TO.N,Net-(D19-A)*%
X614631472Y-397020059D03*
%TD*%
D18*
%TO.P,,*%
%TO.N,Net-(U1A-G)*%
X515544804Y-437170059D03*
%TD*%
D13*
%TO.P,R14,1*%
%TO.N,GND*%
X597536472Y-424660059D03*
D14*
%TO.P,R14,2*%
%TO.N,Net-(U2A-K)*%
X597536472Y-432280059D03*
%TD*%
D18*
%TO.P,,*%
%TO.N,Net-(U3B-G)*%
X568861466Y-437170059D03*
%TD*%
D19*
%TO.P,MASTER,1*%
%TO.N,Net-(C19-Pad1)*%
X685336472Y-438022559D03*
D20*
%TO.P,MASTER,2*%
%TO.N,Net-(C34-Pad1)*%
X687876472Y-438022559D03*
%TO.P,MASTER,3*%
%TO.N,GND*%
X690416472Y-438022559D03*
%TO.P,MASTER,4*%
X692956472Y-438022559D03*
%TD*%
D18*
%TO.P,,*%
%TO.N,Net-(U5A-K)*%
X655786472Y-437272559D03*
%TD*%
%TO.P,,*%
%TO.N,Net-(D2-K)*%
X749736472Y-439447559D03*
%TD*%
D12*
%TO.P,C3,1*%
%TO.N,Net-(U1B-A)*%
X515511472Y-417870059D03*
%TO.P,C3,2*%
%TO.N,Net-(C3-Pad2)*%
X525511472Y-417870059D03*
%TD*%
D10*
%TO.P,R80,1*%
%TO.N,B+5*%
X704536472Y-422352559D03*
D11*
%TO.P,R80,2*%
%TO.N,GND*%
X704536472Y-437592559D03*
%TD*%
D19*
%TO.P,CRUNCH,1*%
%TO.N,Net-(U2A-K)*%
X593706472Y-408445059D03*
D20*
%TO.P,CRUNCH,2*%
%TO.N,GND*%
X596246472Y-408445059D03*
%TO.P,CRUNCH,3*%
%TO.N,Net-(K1-Pad6)*%
X598786472Y-408445059D03*
%TD*%
D13*
%TO.P,R11,1*%
%TO.N,GND*%
X579361472Y-432580059D03*
D14*
%TO.P,R11,2*%
%TO.N,Net-(C13-Pad2)*%
X579361472Y-424960059D03*
%TD*%
D22*
%TO.P,C40,1*%
%TO.N,GND*%
X688336472Y-421022559D03*
D23*
%TO.P,C40,2*%
%TO.N,BIAS*%
X688336472Y-396022559D03*
%TD*%
D18*
%TO.P,,*%
%TO.N,Net-(U1B-K)*%
X530778136Y-437170059D03*
%TD*%
D13*
%TO.P,R88,1*%
%TO.N,GND*%
X729336472Y-408982559D03*
D14*
%TO.P,R88,2*%
%TO.N,Net-(C68-Pad1)*%
X729336472Y-401362559D03*
%TD*%
D25*
%TO.P,C59,1*%
%TO.N,B+5*%
X719611472Y-422342189D03*
D26*
%TO.P,C59,2*%
%TO.N,GND*%
X719611472Y-432342189D03*
%TD*%
D13*
%TO.P,R46,1*%
%TO.N,Net-(C32-Pad2)*%
X535401472Y-432595059D03*
D14*
%TO.P,R46,2*%
%TO.N,Net-(U3A-G)*%
X543021472Y-432595059D03*
%TD*%
D13*
%TO.P,R12,1*%
%TO.N,Net-(C12-Pad1)*%
X526946472Y-402422559D03*
D14*
%TO.P,R12,2*%
%TO.N,Net-(C12-Pad2)*%
X519326472Y-402422559D03*
%TD*%
D12*
%TO.P,C28,1*%
%TO.N,Net-(U5B-A)*%
X667686472Y-407672559D03*
%TO.P,C28,2*%
%TO.N,Net-(U5A-A)*%
X660186472Y-407672559D03*
%TD*%
D16*
%TO.P,D17,1,K*%
%TO.N,+12V*%
X572026472Y-394277559D03*
D17*
%TO.P,D17,2,A*%
%TO.N,Net-(D17-A)*%
X579646472Y-394277559D03*
%TD*%
D19*
%TO.P,LEDs,1*%
%TO.N,Net-(K2-Pad6)*%
X624336472Y-406022559D03*
D20*
%TO.P,LEDs,2*%
%TO.N,Net-(K1-Pad11)*%
X624336472Y-408562559D03*
%TO.P,LEDs,3*%
%TO.N,Net-(K1-Pad9)*%
X624336472Y-411102559D03*
%TO.P,LEDs,4*%
%TO.N,Net-(R93-Pad2)*%
X624336472Y-413642559D03*
%TD*%
D18*
%TO.P,,*%
%TO.N,Net-(U3A-A)*%
X538394802Y-437170059D03*
%TD*%
D24*
%TO.P,K2,1*%
%TO.N,+12V*%
X628961472Y-397000059D03*
D13*
%TO.P,K2,4*%
X628961472Y-404620059D03*
%TO.P,K2,6*%
%TO.N,Net-(K2-Pad6)*%
X628961472Y-409700059D03*
%TO.P,K2,8*%
%TO.N,Net-(K1-Pad13)*%
X628961472Y-414780059D03*
%TO.P,K2,9*%
%TO.N,Net-(K1-Pad4)*%
X636581472Y-414780059D03*
%TO.P,K2,11*%
%TO.N,Net-(K2-Pad11)*%
X636581472Y-409700059D03*
%TO.P,K2,13*%
%TO.N,Net-(K2-Pad13)*%
X636581472Y-404620059D03*
%TO.P,K2,16*%
%TO.N,Net-(D17-A)*%
X636581472Y-397000059D03*
%TD*%
D18*
%TO.P,,*%
%TO.N,Net-(U5B-A)*%
X665286472Y-437372559D03*
%TD*%
D15*
%TO.P,C10,1*%
%TO.N,B+2*%
X558786472Y-385695059D03*
%TO.P,C10,2*%
%TO.N,Net-(U3B-A)*%
X558786472Y-408195059D03*
%TD*%
D16*
%TO.P,D1,1,K*%
%TO.N,Net-(D1-K)*%
X726336472Y-382272559D03*
D17*
%TO.P,D1,2,A*%
%TO.N,Net-(D1-A)*%
X718716472Y-382272559D03*
%TD*%
D24*
%TO.P,K4,1*%
%TO.N,+12V*%
X545686472Y-397695059D03*
D13*
%TO.P,K4,4*%
%TO.N,Net-(U3B-G)*%
X545686472Y-405315059D03*
%TO.P,K4,6*%
%TO.N,Net-(C16-Pad2)*%
X545686472Y-410395059D03*
%TO.P,K4,8*%
%TO.N,Net-(K4-Pad8)*%
X545686472Y-415475059D03*
%TO.P,K4,9*%
X553306472Y-415475059D03*
%TO.P,K4,11*%
%TO.N,unconnected-(K4-Pad11)*%
X553306472Y-410395059D03*
%TO.P,K4,13*%
%TO.N,GND*%
X553306472Y-405315059D03*
%TO.P,K4,16*%
%TO.N,Net-(D19-A)*%
X553306472Y-397695059D03*
%TD*%
D18*
%TO.P,,*%
%TO.N,Net-(U1B-A)*%
X523161470Y-437170059D03*
%TD*%
D19*
%TO.P,BACK PLATE,1*%
%TO.N,Net-(D17-A)*%
X640311472Y-395772559D03*
D20*
%TO.P,BACK PLATE,2*%
%TO.N,Net-(D19-A)*%
X640311472Y-398312559D03*
%TO.P,BACK PLATE,3*%
%TO.N,Net-(K2-Pad13)*%
X640311472Y-400852559D03*
%TO.P,BACK PLATE,4*%
%TO.N,+12V*%
X640311472Y-403392559D03*
%TD*%
D13*
%TO.P,R93,1*%
%TO.N,GND*%
X624336472Y-424272559D03*
D14*
%TO.P,R93,2*%
%TO.N,Net-(R93-Pad2)*%
X624336472Y-416652559D03*
%TD*%
D16*
%TO.P,D18,1,K*%
%TO.N,+12V*%
X629026472Y-393772559D03*
D17*
%TO.P,D18,2,A*%
%TO.N,Net-(D17-A)*%
X636646472Y-393772559D03*
%TD*%
D10*
%TO.P,R61,1*%
%TO.N,B+4*%
X675286472Y-380822559D03*
D11*
%TO.P,R61,2*%
%TO.N,B+3*%
X649886472Y-380822559D03*
%TD*%
D18*
%TO.P,,*%
%TO.N,Net-(C68-Pad1)*%
X749736472Y-397429701D03*
%TD*%
%TO.P,,*%
%TO.N,Net-(U2B-K)*%
X614561472Y-437170059D03*
%TD*%
%TO.P,,*%
%TO.N,Net-(U2B-G)*%
X606944796Y-437170059D03*
%TD*%
D21*
%TO.P,C35,1*%
%TO.N,Net-(U3A-K)*%
X557464123Y-427195059D03*
D10*
%TO.P,C35,2*%
%TO.N,GND*%
X553964123Y-427195059D03*
%TD*%
D16*
%TO.P,D19,1,K*%
%TO.N,+12V*%
X545776472Y-394522559D03*
D17*
%TO.P,D19,2,A*%
%TO.N,Net-(D19-A)*%
X553396472Y-394522559D03*
%TD*%
D10*
%TO.P,R54,1*%
%TO.N,BIAS*%
X688336472Y-392272559D03*
D11*
%TO.P,R54,2*%
%TO.N,Net-(D1-A)*%
X703576472Y-392272559D03*
%TD*%
D19*
%TO.P,LEAD,1*%
%TO.N,Net-(U2A-K)*%
X593756472Y-416695059D03*
D20*
%TO.P,LEAD,2*%
%TO.N,GND*%
X596296472Y-416695059D03*
%TO.P,LEAD,3*%
%TO.N,Net-(K1-Pad8)*%
X598836472Y-416695059D03*
%TD*%
D22*
%TO.P,C61,1*%
%TO.N,B+3*%
X600336472Y-380522559D03*
D15*
%TO.P,C61,2*%
%TO.N,GND*%
X600336472Y-388022559D03*
%TD*%
D18*
%TO.P,,*%
%TO.N,Net-(U1A-A)*%
X500311472Y-437170059D03*
%TD*%
D12*
%TO.P,C30,1*%
%TO.N,Net-(U1A-K)*%
X511061472Y-433220059D03*
%TO.P,C30,2*%
%TO.N,GND*%
X511061472Y-423220059D03*
%TD*%
D18*
%TO.P,,*%
%TO.N,Net-(U5A-A)*%
X638286472Y-437072559D03*
%TD*%
D10*
%TO.P,R30,1*%
%TO.N,Net-(R30-Pad1)*%
X652811472Y-416827559D03*
D11*
%TO.P,R30,2*%
%TO.N,Net-(U5A-G)*%
X652811472Y-432067559D03*
%TD*%
D10*
%TO.P,R33,1*%
%TO.N,Net-(C34-Pad1)*%
X674606472Y-412722559D03*
D11*
%TO.P,R33,2*%
%TO.N,Net-(R30-Pad1)*%
X659366472Y-412722559D03*
%TD*%
D18*
%TO.P,,*%
%TO.N,Net-(D4-K)*%
X749736472Y-431043985D03*
%TD*%
D15*
%TO.P,C36,1*%
%TO.N,Net-(U5B-A)*%
X673436472Y-407472559D03*
%TO.P,C36,2*%
%TO.N,Net-(C36-Pad2)*%
X673436472Y-392472559D03*
%TD*%
D10*
%TO.P,R42,1*%
%TO.N,Net-(R42-Pad1)*%
X709716472Y-386872559D03*
D11*
%TO.P,R42,2*%
%TO.N,Net-(D1-A)*%
X724956472Y-386872559D03*
%TD*%
D13*
%TO.P,R47,1*%
%TO.N,GND*%
X504711472Y-420685059D03*
D14*
%TO.P,R47,2*%
%TO.N,Net-(C29-Pad2)*%
X504711472Y-428305059D03*
%TD*%
D16*
%TO.P,D20,1,K*%
%TO.N,+12V*%
X607026472Y-393887559D03*
D17*
%TO.P,D20,2,A*%
%TO.N,Net-(D19-A)*%
X614646472Y-393887559D03*
%TD*%
D13*
%TO.P,R45,1*%
%TO.N,Net-(C12-Pad2)*%
X519301472Y-408022559D03*
D14*
%TO.P,R45,2*%
%TO.N,Net-(C25-Pad2)*%
X526921472Y-408022559D03*
%TD*%
D22*
%TO.P,C41,1*%
%TO.N,B+1*%
X504336472Y-385522559D03*
D15*
%TO.P,C41,2*%
%TO.N,GND*%
X504336472Y-393022559D03*
%TD*%
D27*
%TO.P,C68,1*%
%TO.N,Net-(C68-Pad1)*%
X737336472Y-401372559D03*
D12*
%TO.P,C68,2*%
%TO.N,GND*%
X737336472Y-406372559D03*
%TD*%
D21*
%TO.P,C76,1*%
%TO.N,+12V*%
X642333821Y-409647559D03*
D10*
%TO.P,C76,2*%
%TO.N,GND*%
X645833821Y-409647559D03*
%TD*%
D18*
%TO.P,,*%
%TO.N,Net-(C17-Pad1)*%
X653261472Y-373772559D03*
%TD*%
D12*
%TO.P,C19,1*%
%TO.N,Net-(C19-Pad1)*%
X669081472Y-419772559D03*
%TO.P,C19,2*%
%TO.N,Net-(U5A-G)*%
X661581472Y-419772559D03*
%TD*%
D10*
%TO.P,R27,1*%
%TO.N,Net-(U3A-A)*%
X538411472Y-412972559D03*
D11*
%TO.P,R27,2*%
%TO.N,B+2*%
X538411472Y-387572559D03*
%TD*%
D19*
%TO.P,CLR VOL,1*%
%TO.N,Net-(K2-Pad11)*%
X521931472Y-422945059D03*
D20*
%TO.P,CLR VOL,2*%
%TO.N,GND*%
X524471472Y-422945059D03*
%TO.P,CLR VOL,3*%
%TO.N,Net-(C3-Pad2)*%
X527011472Y-422945059D03*
%TD*%
D13*
%TO.P,R50,1*%
%TO.N,GND*%
X542201472Y-423745059D03*
D14*
%TO.P,R50,2*%
%TO.N,Net-(K4-Pad8)*%
X549821472Y-423745059D03*
%TD*%
D19*
%TO.P,LD GAIN,1*%
%TO.N,Net-(C25-Pad2)*%
X530361472Y-417295059D03*
D20*
%TO.P,LD GAIN,2*%
%TO.N,GND*%
X532901472Y-417295059D03*
%TO.P,LD GAIN,3*%
%TO.N,Net-(C32-Pad2)*%
X535441472Y-417295059D03*
%TD*%
D24*
%TO.P,K3,1*%
%TO.N,+12V*%
X572061472Y-397370059D03*
D13*
%TO.P,K3,4*%
%TO.N,GND*%
X572061472Y-404990059D03*
%TO.P,K3,6*%
%TO.N,unconnected-(K3-Pad6)*%
X572061472Y-410070059D03*
%TO.P,K3,8*%
%TO.N,Net-(C29-Pad2)*%
X572061472Y-415150059D03*
%TO.P,K3,9*%
%TO.N,Net-(U3B-G)*%
X579681472Y-415150059D03*
%TO.P,K3,11*%
%TO.N,unconnected-(K3-Pad11)*%
X579681472Y-410070059D03*
%TO.P,K3,13*%
%TO.N,GND*%
X579681472Y-404990059D03*
%TO.P,K3,16*%
%TO.N,Net-(D17-A)*%
X579681472Y-397370059D03*
%TD*%
D22*
%TO.P,C60,1*%
%TO.N,B+4*%
X712636472Y-400694779D03*
D15*
%TO.P,C60,2*%
%TO.N,GND*%
X712636472Y-408194779D03*
%TD*%
D18*
%TO.P,,*%
%TO.N,Net-(D3-K)*%
X749736472Y-422640414D03*
%TD*%
%TO.P,,*%
%TO.N,Net-(U3A-K)*%
X553628134Y-437170059D03*
%TD*%
%TO.P,,*%
%TO.N,Net-(D1-K)*%
X749736472Y-380622559D03*
%TD*%
D10*
%TO.P,R10,1*%
%TO.N,Net-(U1A-A)*%
X493186472Y-414145059D03*
D11*
%TO.P,R10,2*%
%TO.N,B+1*%
X493186472Y-388745059D03*
%TD*%
D18*
%TO.P,,*%
%TO.N,Net-(R55-Pad1)*%
X705836472Y-373772559D03*
%TD*%
D10*
%TO.P,R55,1*%
%TO.N,Net-(R55-Pad1)*%
X703586472Y-385022559D03*
D11*
%TO.P,R55,2*%
%TO.N,BIAS*%
X688346472Y-385022559D03*
%TD*%
D15*
%TO.P,C17,1*%
%TO.N,Net-(C17-Pad1)*%
X654386472Y-388372559D03*
%TO.P,C17,2*%
%TO.N,Net-(U5A-A)*%
X654386472Y-403372559D03*
%TD*%
D10*
%TO.P,R8,1*%
%TO.N,Net-(U3B-A)*%
X564486472Y-411145059D03*
D11*
%TO.P,R8,2*%
%TO.N,B+2*%
X564486472Y-385745059D03*
%TD*%
D10*
%TO.P,R5,1*%
%TO.N,Net-(U2A-G)*%
X588936472Y-411095059D03*
D11*
%TO.P,R5,2*%
%TO.N,B+3*%
X588936472Y-385695059D03*
%TD*%
D28*
%TO.N,Net-(C29-Pad2)*%
X535536472Y-402222559D03*
X535536472Y-396472559D03*
%TO.N,B+3*%
X585236472Y-385695059D03*
X585236472Y-411072559D03*
%TD*%
D29*
%TO.N,Net-(U1B-K)*%
X526636472Y-432325171D02*
X530541360Y-432325171D01*
X530586472Y-432280059D02*
X530586472Y-436978395D01*
D30*
%TO.N,GND*%
X532836472Y-406820059D02*
X532836472Y-405272559D01*
D29*
X591236472Y-430972559D02*
X591236472Y-407172559D01*
D30*
X540836472Y-404272559D02*
X544336472Y-407772559D01*
D29*
X524936472Y-397772559D02*
X522536472Y-400172559D01*
D30*
X532836472Y-405272559D02*
X533836472Y-404272559D01*
X544336472Y-407772559D02*
X545836472Y-407772559D01*
D29*
X587136472Y-434572559D02*
X587136472Y-407672559D01*
X507036472Y-405872559D02*
X503136472Y-409772559D01*
X515436472Y-405872559D02*
X507036472Y-405872559D01*
X517236472Y-404072559D02*
X515436472Y-405872559D01*
X541836472Y-397772559D02*
X524936472Y-397772559D01*
X517236472Y-401472559D02*
X517236472Y-404072559D01*
D30*
X561336472Y-433272559D02*
X561336472Y-415172559D01*
D29*
X595036472Y-434772559D02*
X591236472Y-430972559D01*
D30*
X533836472Y-404272559D02*
X540836472Y-404272559D01*
D29*
X503136472Y-409772559D02*
X503136472Y-414872559D01*
X518536472Y-400172559D02*
X517236472Y-401472559D01*
X522536472Y-400172559D02*
X518536472Y-400172559D01*
D30*
X561336472Y-415172559D02*
X556036472Y-409872559D01*
D29*
%TO.N,Net-(U1B-A)*%
X515511472Y-414795059D02*
X515511472Y-417870059D01*
X515511472Y-429520061D02*
X523161470Y-437170059D01*
X515511472Y-417870059D02*
X515511472Y-429520061D01*
%TO.N,Net-(U1A-A)*%
X493186472Y-414145059D02*
X496011472Y-414145059D01*
X500311472Y-437170059D02*
X500311472Y-429570059D01*
X496011472Y-414145059D02*
X497386472Y-415520059D01*
X497386472Y-426645059D02*
X497386472Y-417670059D01*
X497386472Y-415520059D02*
X497386472Y-417670059D01*
X500311472Y-429570059D02*
X497386472Y-426645059D01*
%TO.N,Net-(U1A-K)*%
X504761472Y-433120059D02*
X510961472Y-433120059D01*
X507886472Y-428180059D02*
X507886472Y-437128393D01*
%TO.N,Net-(U2B-K)*%
X613564123Y-427572710D02*
X616036472Y-427572710D01*
X614561472Y-431895059D02*
X616036472Y-430420059D01*
X616036472Y-430420059D02*
X616036472Y-427572710D01*
X611246472Y-425255059D02*
X613564123Y-427572710D01*
X609111472Y-425255059D02*
X611246472Y-425255059D01*
X614561472Y-437170059D02*
X614561472Y-431895059D01*
D30*
%TO.N,B+2*%
X538411472Y-387572559D02*
X538411472Y-386042279D01*
X567341472Y-385695059D02*
X558786472Y-385695059D01*
X558613972Y-385522559D02*
X558786472Y-385695059D01*
X527556192Y-385522559D02*
X558613972Y-385522559D01*
D29*
%TO.N,Net-(U2A-G)*%
X588961472Y-411070059D02*
X588961472Y-434420067D01*
X588961472Y-434420067D02*
X591711464Y-437170059D01*
%TO.N,Net-(C17-Pad1)*%
X653261472Y-373872559D02*
X653261472Y-378247559D01*
X653261472Y-378247559D02*
X654386472Y-379372559D01*
X654386472Y-379372559D02*
X654386472Y-388372559D01*
%TO.N,Net-(U3B-K)*%
X576511472Y-432605059D02*
X576511472Y-437136719D01*
%TO.N,Net-(U3A-K)*%
X557436472Y-433361721D02*
X553628134Y-437170059D01*
X557464123Y-427195059D02*
X557464123Y-432592408D01*
X557436472Y-432620059D02*
X557436472Y-433361721D01*
%TO.N,Net-(C3-Pad2)*%
X527011472Y-422945059D02*
X527011472Y-419370059D01*
X527011472Y-419370059D02*
X525511472Y-417870059D01*
%TO.N,Net-(C29-Pad2)*%
X501336472Y-423570059D02*
X504711472Y-426945059D01*
X574736472Y-413970059D02*
X573556472Y-415150059D01*
X506297722Y-404022559D02*
X501336472Y-408983809D01*
X535536472Y-396472559D02*
X535533972Y-396470059D01*
X504711472Y-428305059D02*
X504711472Y-430570059D01*
X535533972Y-396470059D02*
X524038972Y-396470059D01*
X504711472Y-426945059D02*
X504711472Y-428305059D01*
X573836472Y-408145059D02*
X574736472Y-409045059D01*
X515711472Y-400797559D02*
X515711472Y-402897559D01*
X565461472Y-402220059D02*
X565486472Y-402220059D01*
X517836472Y-398672559D02*
X515711472Y-400797559D01*
X524038972Y-396470059D02*
X521836472Y-398672559D01*
X521836472Y-398672559D02*
X517836472Y-398672559D01*
X501336472Y-408983809D02*
X501336472Y-423570059D01*
X565486472Y-402220059D02*
X571411472Y-408145059D01*
X514586472Y-404022559D02*
X506297722Y-404022559D01*
X535538972Y-402195059D02*
X565461472Y-402195059D01*
X535536472Y-402222559D02*
X535538972Y-402220059D01*
X515711472Y-402897559D02*
X514586472Y-404022559D01*
X574736472Y-409045059D02*
X574736472Y-413970059D01*
X571411472Y-408145059D02*
X573836472Y-408145059D01*
X573556472Y-415150059D02*
X572061472Y-415150059D01*
%TO.N,Net-(U3B-A)*%
X564161472Y-420245059D02*
X564161472Y-434253387D01*
X561536472Y-408195059D02*
X564486472Y-411145059D01*
X558786472Y-408195059D02*
X561536472Y-408195059D01*
X564161472Y-434253387D02*
X561244800Y-437170059D01*
X564486472Y-411145059D02*
X564486472Y-419920059D01*
D30*
%TO.N,B+5*%
X749736472Y-405833272D02*
X749736472Y-414236843D01*
X729966842Y-422342189D02*
X734536472Y-417772559D01*
X734536472Y-417772559D02*
X746200756Y-417772559D01*
X746200756Y-417772559D02*
X749736472Y-414236843D01*
X719611472Y-422342189D02*
X729966842Y-422342189D01*
X704536472Y-422352559D02*
X719601102Y-422352559D01*
%TO.N,B+4*%
X712636472Y-400694779D02*
X720004252Y-400694779D01*
X675336472Y-380772559D02*
X672686472Y-378122559D01*
X731672901Y-389026130D02*
X721726472Y-398972559D01*
X720004252Y-400694779D02*
X721726472Y-398972559D01*
X675336472Y-387272559D02*
X675336472Y-380772559D01*
X712636472Y-400694779D02*
X688758692Y-400694779D01*
X749736472Y-389026130D02*
X731672901Y-389026130D01*
X688758692Y-400694779D02*
X675336472Y-387272559D01*
X672686472Y-378122559D02*
X672686472Y-374347559D01*
D29*
%TO.N,B+3*%
X584094798Y-437170059D02*
X584094798Y-417836733D01*
D30*
X582581472Y-385695059D02*
X585236472Y-385695059D01*
D29*
X584094798Y-417836733D02*
X585236472Y-416695059D01*
D30*
X598558972Y-380522559D02*
X649586472Y-380522559D01*
X593386472Y-385695059D02*
X598558972Y-380522559D01*
X649586472Y-380522559D02*
X649886472Y-380822559D01*
D29*
X649886472Y-387572559D02*
X649886472Y-380822559D01*
X658736472Y-390572559D02*
X652886472Y-390572559D01*
X652886472Y-390572559D02*
X649886472Y-387572559D01*
X659986472Y-388142559D02*
X659986472Y-389322559D01*
D30*
X585236472Y-385695059D02*
X593386472Y-385695059D01*
X582581472Y-381195059D02*
X582581472Y-385695059D01*
D29*
X659986472Y-389322559D02*
X658736472Y-390572559D01*
X659986472Y-388142559D02*
X667586472Y-388142559D01*
X585258972Y-411095059D02*
X585236472Y-411072559D01*
X585236472Y-416695059D02*
X585236472Y-411095059D01*
X585236472Y-411095059D02*
X585258972Y-411095059D01*
D30*
%TO.N,B+1*%
X504336472Y-385522559D02*
X514836472Y-385522559D01*
X495833972Y-385522559D02*
X504336472Y-385522559D01*
X514836472Y-385522559D02*
X515511472Y-384847559D01*
X493186472Y-388170059D02*
X495833972Y-385522559D01*
X493186472Y-388745059D02*
X493186472Y-388170059D01*
X515511472Y-384847559D02*
X515511472Y-389395059D01*
X519163972Y-381195059D02*
X515511472Y-384847559D01*
X567341472Y-381195059D02*
X519163972Y-381195059D01*
%TO.N,BIAS*%
X688336472Y-385032559D02*
X688346472Y-385022559D01*
X687946472Y-384622559D02*
X688346472Y-385022559D01*
X679786472Y-384622559D02*
X687946472Y-384622559D01*
X688336472Y-396022559D02*
X688336472Y-385032559D01*
D29*
%TO.N,Net-(C16-Pad2)*%
X535376472Y-406820059D02*
X539883972Y-406820059D01*
X543458972Y-410395059D02*
X545686472Y-410395059D01*
X539883972Y-406820059D02*
X543458972Y-410395059D01*
D30*
%TO.N,Net-(D4-K)*%
X749736472Y-431043985D02*
X747107898Y-431043985D01*
X742146472Y-430772559D02*
X742146472Y-428462559D01*
X742146472Y-428462559D02*
X743411472Y-427197559D01*
X747107898Y-431043985D02*
X745836472Y-429772559D01*
X745836472Y-429772559D02*
X745836472Y-427387559D01*
X745836472Y-427387559D02*
X745646472Y-427197559D01*
X743411472Y-427197559D02*
X745646472Y-427197559D01*
D29*
%TO.N,Net-(U5A-G)*%
X648541472Y-432067559D02*
X652811472Y-432067559D01*
X652811472Y-432067559D02*
X652811472Y-428347559D01*
X652811472Y-428347559D02*
X661386472Y-419772559D01*
X646806472Y-437072559D02*
X646806472Y-433802559D01*
X646806472Y-433802559D02*
X648541472Y-432067559D01*
%TO.N,+12V*%
X634875222Y-412197559D02*
X641461472Y-412197559D01*
X607011472Y-397020059D02*
X607011472Y-399597559D01*
X607011472Y-399597559D02*
X608186472Y-400772559D01*
X636811472Y-407747559D02*
X638036472Y-407747559D01*
X554413972Y-399195059D02*
X556238972Y-397370059D01*
X607011472Y-399597559D02*
X606836472Y-399772559D01*
X628961472Y-397000059D02*
X631563972Y-397000059D01*
X622836472Y-400772559D02*
X626608972Y-397000059D01*
X573336472Y-399772559D02*
X606836472Y-399772559D01*
X545686472Y-397695059D02*
X547186472Y-399195059D01*
X628961472Y-404620059D02*
X628961472Y-406283809D01*
X629026472Y-393772559D02*
X629026472Y-396935059D01*
X572061472Y-397370059D02*
X572061472Y-398497559D01*
X547186472Y-399195059D02*
X554413972Y-399195059D01*
X642333821Y-409647559D02*
X642333821Y-405414908D01*
X631563972Y-397000059D02*
X633836472Y-399272559D01*
X608186472Y-400772559D02*
X622836472Y-400772559D01*
X639936472Y-409647559D02*
X642333821Y-409647559D01*
X572061472Y-398497559D02*
X573336472Y-399772559D01*
X641461472Y-412197559D02*
X642411472Y-411247559D01*
X572061472Y-394312559D02*
X572061472Y-397370059D01*
X633836472Y-404772559D02*
X636811472Y-407747559D01*
X545776472Y-394522559D02*
X545776472Y-397605059D01*
X607026472Y-393887559D02*
X607026472Y-397005059D01*
X642411472Y-411247559D02*
X642411472Y-409720059D01*
X628961472Y-406283809D02*
X634875222Y-412197559D01*
X626608972Y-397000059D02*
X628961472Y-397000059D01*
X556238972Y-397370059D02*
X572061472Y-397370059D01*
X642333821Y-405414908D02*
X640311472Y-403392559D01*
X633836472Y-399272559D02*
X633836472Y-404772559D01*
X638036472Y-407747559D02*
X639936472Y-409647559D01*
%TO.N,Net-(C25-Pad2)*%
X526811472Y-413745059D02*
X530361472Y-417295059D01*
X526811472Y-410847559D02*
X526811472Y-413745059D01*
X526921472Y-408022559D02*
X526921472Y-410737559D01*
%TO.N,Net-(C26-Pad2)*%
X548536472Y-420495059D02*
X551276472Y-420495059D01*
%TO.N,Net-(U5B-A)*%
X665286472Y-428072559D02*
X666586472Y-426772559D01*
X667686472Y-407672559D02*
X673236472Y-407672559D01*
X666586472Y-414897559D02*
X667686472Y-413797559D01*
X666586472Y-426772559D02*
X666586472Y-414897559D01*
X667786472Y-403542559D02*
X667786472Y-407572559D01*
X667686472Y-413797559D02*
X667686472Y-407672559D01*
X665286472Y-437372559D02*
X665286472Y-428072559D01*
%TO.N,Net-(C32-Pad2)*%
X535441472Y-417295059D02*
X535441472Y-432555059D01*
%TO.N,Net-(C34-Pad1)*%
X679736472Y-415522559D02*
X679736472Y-417322559D01*
X687876472Y-427712559D02*
X687876472Y-438022559D01*
X679736472Y-417322559D02*
X679736472Y-419572559D01*
X679736472Y-419572559D02*
X687876472Y-427712559D01*
X674606472Y-412722559D02*
X676936472Y-412722559D01*
X676936472Y-412722559D02*
X679736472Y-415522559D01*
%TO.N,Net-(U5B-G)*%
X674686472Y-427522559D02*
X677086472Y-427522559D01*
X677336472Y-432322559D02*
X679736472Y-432322559D01*
X674786472Y-437772559D02*
X674786472Y-434872559D01*
X674786472Y-434872559D02*
X677336472Y-432322559D01*
X677086472Y-427522559D02*
X679736472Y-430172559D01*
X679736472Y-430172559D02*
X679736472Y-432322559D01*
%TO.N,Net-(U2A-K)*%
X599286472Y-433270059D02*
X598296472Y-432280059D01*
X593706472Y-408445059D02*
X593706472Y-416645059D01*
X598296472Y-432280059D02*
X597536472Y-432280059D01*
X596271472Y-432280059D02*
X593756472Y-429765059D01*
X593756472Y-429765059D02*
X593756472Y-416695059D01*
X597536472Y-432280059D02*
X596271472Y-432280059D01*
X599286472Y-437128401D02*
X599286472Y-433270059D01*
%TO.N,Net-(U3A-A)*%
X538394802Y-437170059D02*
X538394802Y-420636729D01*
X538411472Y-413470059D02*
X538411472Y-420370059D01*
%TO.N,Net-(U3A-G)*%
X546011468Y-437170059D02*
X546011468Y-434470055D01*
X544136472Y-432595059D02*
X543021472Y-432595059D01*
X546011468Y-434470055D02*
X544136472Y-432595059D01*
%TO.N,Net-(C36-Pad2)*%
X673411472Y-392447559D02*
X673411472Y-388767559D01*
X662611472Y-377897559D02*
X662611472Y-373922559D01*
X673266472Y-388552559D02*
X662611472Y-377897559D01*
%TO.N,Net-(D1-A)*%
X724956472Y-385892559D02*
X724956472Y-386872559D01*
X700086472Y-392272559D02*
X703576472Y-392272559D01*
X721336472Y-382272559D02*
X724956472Y-385892559D01*
X718716472Y-382272559D02*
X721336472Y-382272559D01*
X698086472Y-395972559D02*
X698086472Y-394272559D01*
X703576472Y-392272559D02*
X719556472Y-392272559D01*
X698086472Y-394272559D02*
X700086472Y-392272559D01*
X719556472Y-392272559D02*
X724956472Y-386872559D01*
%TO.N,Net-(U1A-G)*%
X515544804Y-432328391D02*
X513611472Y-430395059D01*
X515544804Y-437170059D02*
X515544804Y-432328391D01*
X513611472Y-415955059D02*
X510201472Y-412545059D01*
X513611472Y-430395059D02*
X513611472Y-415955059D01*
%TO.N,Net-(U5A-A)*%
X649686472Y-415772559D02*
X654386472Y-411072559D01*
X657196472Y-403382559D02*
X657186472Y-403372559D01*
X660186472Y-407672559D02*
X660186472Y-403582559D01*
X659986472Y-403382559D02*
X657196472Y-403382559D01*
X654386472Y-411072559D02*
X654386472Y-403372559D01*
X649686472Y-420422559D02*
X649686472Y-415772559D01*
X638286472Y-437072559D02*
X638286472Y-431822559D01*
X638286472Y-431822559D02*
X649686472Y-420422559D01*
X657186472Y-403372559D02*
X654386472Y-403372559D01*
%TO.N,Net-(C12-Pad1)*%
X530296472Y-406820059D02*
X530296472Y-405980059D01*
X526946472Y-402422559D02*
X526946472Y-405112559D01*
X530296472Y-405980059D02*
X529538972Y-405222559D01*
X529538972Y-405222559D02*
X526836472Y-405222559D01*
%TO.N,Net-(C12-Pad2)*%
X507886472Y-407420059D02*
X505121472Y-410185059D01*
X518698972Y-407420059D02*
X507886472Y-407420059D01*
X519301472Y-408022559D02*
X518698972Y-407420059D01*
X505121472Y-412545059D02*
X505121472Y-415405059D01*
X519326472Y-402422559D02*
X519326472Y-410832559D01*
X505121472Y-415405059D02*
X507386472Y-417670059D01*
X505121472Y-410185059D02*
X505121472Y-412545059D01*
%TO.N,Net-(C13-Pad2)*%
X574161472Y-420245059D02*
X577806472Y-420245059D01*
X579361472Y-424960059D02*
X579361472Y-421800059D01*
X579361472Y-421800059D02*
X577806472Y-420245059D01*
D30*
%TO.N,Net-(C68-Pad1)*%
X737336472Y-401372559D02*
X741736472Y-401372559D01*
X729346472Y-398972559D02*
X729346472Y-401352559D01*
X729346472Y-401372559D02*
X737336472Y-401372559D01*
X745679330Y-397429701D02*
X749736472Y-397429701D01*
X729336472Y-401362559D02*
X729346472Y-401372559D01*
X741736472Y-401372559D02*
X745679330Y-397429701D01*
X729346472Y-401352559D02*
X729336472Y-401362559D01*
D29*
%TO.N,Net-(D1-K)*%
X749586472Y-380772559D02*
X727836472Y-380772559D01*
X727836472Y-380772559D02*
X726336472Y-382272559D01*
D30*
%TO.N,Net-(D2-K)*%
X743661472Y-438097559D02*
X745646472Y-438097559D01*
X742146472Y-436582559D02*
X743661472Y-438097559D01*
X742146472Y-434272559D02*
X742146472Y-436582559D01*
X748386472Y-438097559D02*
X749736472Y-439447559D01*
X745646472Y-438097559D02*
X748386472Y-438097559D01*
%TO.N,Net-(D3-K)*%
X740468617Y-422640414D02*
X749736472Y-422640414D01*
X738026472Y-425082559D02*
X740468617Y-422640414D01*
X738026472Y-427197559D02*
X738026472Y-438097559D01*
X738026472Y-427197559D02*
X738026472Y-425082559D01*
D29*
%TO.N,Net-(D17-A)*%
X606086472Y-391345059D02*
X609836472Y-391345059D01*
X613138972Y-399022559D02*
X619883972Y-399022559D01*
X627161472Y-391745059D02*
X634618972Y-391745059D01*
X638686472Y-395772559D02*
X637458972Y-397000059D01*
X600061472Y-397370059D02*
X606086472Y-391345059D01*
X610961472Y-392470059D02*
X610961472Y-396845059D01*
X640311472Y-395772559D02*
X638686472Y-395772559D01*
X579646472Y-394277559D02*
X579646472Y-397335059D01*
X634618972Y-391745059D02*
X636646472Y-393772559D01*
X610961472Y-396845059D02*
X613138972Y-399022559D01*
X637458972Y-397000059D02*
X636581472Y-397000059D01*
X609836472Y-391345059D02*
X610961472Y-392470059D01*
X636581472Y-393837559D02*
X636581472Y-397000059D01*
X619883972Y-399022559D02*
X627161472Y-391745059D01*
X579681472Y-397370059D02*
X600061472Y-397370059D01*
%TO.N,Net-(D19-A)*%
X568836472Y-394522559D02*
X571836472Y-391522559D01*
X622221472Y-393887559D02*
X626086472Y-390022559D01*
X604836472Y-389522559D02*
X612086472Y-389522559D01*
X614646472Y-393887559D02*
X622221472Y-393887559D01*
X612086472Y-389522559D02*
X614646472Y-392082559D01*
X582586472Y-394772559D02*
X599586472Y-394772559D01*
X614646472Y-392082559D02*
X614646472Y-393887559D01*
X642836472Y-394522559D02*
X642836472Y-397272559D01*
X599586472Y-394772559D02*
X604836472Y-389522559D01*
X638336472Y-390022559D02*
X642836472Y-394522559D01*
X553306472Y-397695059D02*
X553306472Y-394612559D01*
X642836472Y-397272559D02*
X641796472Y-398312559D01*
X571836472Y-391522559D02*
X579336472Y-391522559D01*
X626086472Y-390022559D02*
X638336472Y-390022559D01*
X553396472Y-394522559D02*
X568836472Y-394522559D01*
X641796472Y-398312559D02*
X640311472Y-398312559D01*
X614646472Y-393887559D02*
X614646472Y-397005059D01*
X579336472Y-391522559D02*
X582586472Y-394772559D01*
%TO.N,Net-(U3B-G)*%
X568871466Y-432580059D02*
X568861466Y-432570059D01*
X579681472Y-415150059D02*
X577086472Y-417745059D01*
X568861466Y-437170059D02*
X568861466Y-432570059D01*
X577086472Y-417745059D02*
X568861466Y-417745059D01*
X547306472Y-403695059D02*
X545686472Y-405315059D01*
X568861466Y-407870053D02*
X564686472Y-403695059D01*
X564686472Y-403695059D02*
X547306472Y-403695059D01*
X571336472Y-432580059D02*
X568871466Y-432580059D01*
X568861466Y-432570059D02*
X568861466Y-417745059D01*
X568861466Y-417745059D02*
X568861466Y-407870053D01*
%TO.N,Net-(K1-Pad13)*%
X612586472Y-406685059D02*
X612586472Y-415272559D01*
X616336472Y-419022559D02*
X626586472Y-419022559D01*
X626586472Y-419022559D02*
X628961472Y-416647559D01*
X612586472Y-415272559D02*
X616336472Y-419022559D01*
X614631472Y-404640059D02*
X612586472Y-406685059D01*
X628961472Y-416647559D02*
X628961472Y-414780059D01*
%TO.N,Net-(R30-Pad1)*%
X664086472Y-418772559D02*
X662166472Y-416852559D01*
X664086472Y-422272559D02*
X664086472Y-418772559D01*
X657986472Y-414102559D02*
X659366472Y-412722559D01*
X661986472Y-427522559D02*
X661986472Y-424372559D01*
X657986472Y-416852559D02*
X657986472Y-414102559D01*
X652811472Y-416827559D02*
X657961472Y-416827559D01*
X661986472Y-424372559D02*
X664086472Y-422272559D01*
X662166472Y-416852559D02*
X657986472Y-416852559D01*
%TO.N,Net-(U5A-K)*%
X655786472Y-437272559D02*
X655786472Y-434292559D01*
X655786472Y-434292559D02*
X657986472Y-432092559D01*
%TO.N,Net-(R55-Pad1)*%
X705836472Y-373772559D02*
X705836472Y-382772559D01*
X705836472Y-382772559D02*
X703586472Y-385022559D01*
%TO.N,Net-(C19-Pad1)*%
X685336472Y-428772559D02*
X685336472Y-438022559D01*
X676336472Y-419772559D02*
X685336472Y-428772559D01*
X669081472Y-419772559D02*
X676336472Y-419772559D01*
D31*
%TO.N,Net-(K1-Pad9)*%
X618328972Y-411102559D02*
X614631472Y-414800059D01*
X624336472Y-411102559D02*
X618328972Y-411102559D01*
%TO.N,Net-(K1-Pad11)*%
X614631472Y-409720059D02*
X615788972Y-408562559D01*
X615788972Y-408562559D02*
X624336472Y-408562559D01*
%TO.N,Net-(K2-Pad6)*%
X628961472Y-409397559D02*
X628961472Y-409700059D01*
X624336472Y-406022559D02*
X625586472Y-406022559D01*
X625586472Y-406022559D02*
X628961472Y-409397559D01*
D29*
%TO.N,Net-(K1-Pad4)*%
X635283972Y-417272559D02*
X631183972Y-417272559D01*
X610786472Y-405895059D02*
X609531472Y-404640059D01*
X610786472Y-416820059D02*
X610786472Y-405895059D01*
X636581472Y-414780059D02*
X636581472Y-415975059D01*
X615488972Y-421522559D02*
X610786472Y-416820059D01*
X609531472Y-404640059D02*
X607011472Y-404640059D01*
X636581472Y-415975059D02*
X635283972Y-417272559D01*
X626933972Y-421522559D02*
X615488972Y-421522559D01*
X631183972Y-417272559D02*
X626933972Y-421522559D01*
%TO.N,Net-(K4-Pad8)*%
X549821472Y-423745059D02*
X557136472Y-423745059D01*
X555538972Y-415475059D02*
X558896472Y-418832559D01*
X558896472Y-418832559D02*
X558896472Y-420495059D01*
X557136472Y-423745059D02*
X558896472Y-421985059D01*
X545686472Y-415475059D02*
X555538972Y-415475059D01*
X558896472Y-421985059D02*
X558896472Y-420495059D01*
%TO.N,Net-(K2-Pad11)*%
X567661472Y-402320059D02*
X630633972Y-402320059D01*
X635513972Y-409700059D02*
X636581472Y-409700059D01*
X566036472Y-400695059D02*
X567661472Y-402320059D01*
X631836472Y-406022559D02*
X635513972Y-409700059D01*
X631836472Y-403522559D02*
X631836472Y-406022559D01*
X543836472Y-400695059D02*
X566036472Y-400695059D01*
X630633972Y-402320059D02*
X631836472Y-403522559D01*
X521931472Y-422945059D02*
X521931472Y-402677559D01*
X525388972Y-399220059D02*
X542361472Y-399220059D01*
X542361472Y-399220059D02*
X543836472Y-400695059D01*
X521931472Y-402677559D02*
X525388972Y-399220059D01*
%TO.N,Net-(K2-Pad13)*%
X638681472Y-400852559D02*
X640311472Y-400852559D01*
X636581472Y-404620059D02*
X636581472Y-402952559D01*
X636581472Y-402952559D02*
X638681472Y-400852559D01*
%TO.N,Net-(U2B-G)*%
X603236472Y-428095059D02*
X606944796Y-431803383D01*
X606944796Y-431803383D02*
X606944796Y-437170059D01*
X603236472Y-420220059D02*
X603236472Y-428095059D01*
%TO.N,Net-(K1-Pad6)*%
X603536472Y-408445059D02*
X604811472Y-409720059D01*
X604811472Y-409720059D02*
X607011472Y-409720059D01*
X598786472Y-408445059D02*
X603536472Y-408445059D01*
%TO.N,Net-(K1-Pad8)*%
X598836472Y-416695059D02*
X605116472Y-416695059D01*
X605116472Y-416695059D02*
X607011472Y-414800059D01*
%TO.N,Net-(R42-Pad1)*%
X711136472Y-386872559D02*
X709716472Y-386872559D01*
X715036472Y-382972559D02*
X711136472Y-386872559D01*
X715036472Y-373872559D02*
X715036472Y-382972559D01*
D31*
%TO.N,Net-(R93-Pad2)*%
X624336472Y-416652559D02*
X624336472Y-413642559D01*
%TD*%
%TA.AperFunction,Conductor*%
%TO.N,GND*%
G36*
X580553039Y-378949685D02*
G01*
X580598794Y-379002489D01*
X580610000Y-379054000D01*
X580610000Y-386272560D01*
X582128246Y-387808878D01*
X582586472Y-388272559D01*
X597336472Y-388272559D01*
X600899324Y-384948286D01*
X600961768Y-384916946D01*
X600983790Y-384914952D01*
X644335304Y-384872608D01*
X644402360Y-384892227D01*
X644422782Y-384908607D01*
X647310341Y-387775393D01*
X651336469Y-391772557D01*
X651336469Y-391772556D01*
X651336472Y-391772559D01*
X669977750Y-391722716D01*
X670044842Y-391742222D01*
X670073801Y-391767888D01*
X672136472Y-394272559D01*
X679684375Y-394272559D01*
X679751414Y-394292244D01*
X679772937Y-394309768D01*
X689536470Y-404272558D01*
X689536472Y-404272559D01*
X740785535Y-404572261D01*
X740852458Y-404592337D01*
X740872491Y-404608578D01*
X742000153Y-405736240D01*
X742033638Y-405797563D01*
X742036472Y-405823921D01*
X742036472Y-410229344D01*
X742016787Y-410296383D01*
X742009614Y-410306412D01*
X741366525Y-411117011D01*
X741102349Y-411450000D01*
X740883680Y-411725627D01*
X740826593Y-411765911D01*
X740786538Y-411772559D01*
X726836472Y-411772559D01*
X724891798Y-413620000D01*
X724872367Y-413638459D01*
X724810206Y-413670361D01*
X724786962Y-413672559D01*
X703336472Y-413672559D01*
X700336472Y-416772559D01*
X700336472Y-424272559D01*
X703336472Y-427272559D01*
X730278394Y-427272559D01*
X730345433Y-427292244D01*
X730373652Y-427317175D01*
X732336472Y-429672559D01*
X735295139Y-429672559D01*
X735362178Y-429692244D01*
X735369539Y-429697359D01*
X736086872Y-430235359D01*
X736128693Y-430291330D01*
X736136472Y-430334559D01*
X736136472Y-434232236D01*
X736116787Y-434299275D01*
X736112755Y-434305169D01*
X735681199Y-434898559D01*
X735409200Y-435272559D01*
X735373612Y-435321492D01*
X735318262Y-435364132D01*
X735273329Y-435372559D01*
X732336469Y-435372559D01*
X721611877Y-440510388D01*
X721558303Y-440522559D01*
X689460472Y-440522559D01*
X689393433Y-440502874D01*
X689347678Y-440450070D01*
X689336472Y-440398559D01*
X689336472Y-426522559D01*
X685122791Y-422308878D01*
X685089306Y-422247555D01*
X685086472Y-422221197D01*
X685086472Y-416772559D01*
X684590572Y-416230529D01*
X674336472Y-405022559D01*
X674336471Y-405022559D01*
X671892556Y-405022559D01*
X671825517Y-405002874D01*
X671799437Y-404980443D01*
X671584587Y-404736114D01*
X668835997Y-401610394D01*
X668835996Y-401610393D01*
X653086472Y-401522558D01*
X652086472Y-402522558D01*
X652086472Y-411020765D01*
X652066787Y-411087804D01*
X652049633Y-411108964D01*
X647836472Y-415272559D01*
X647836472Y-418221197D01*
X647816787Y-418288236D01*
X647800153Y-418308878D01*
X645872791Y-420236240D01*
X645811468Y-420269725D01*
X645785110Y-420272559D01*
X633336472Y-420272559D01*
X628005587Y-425216992D01*
X627943049Y-425248148D01*
X627921461Y-425250077D01*
X613889465Y-425272474D01*
X613822394Y-425252896D01*
X613799785Y-425234317D01*
X613028181Y-424430000D01*
X611443508Y-422778142D01*
X608834518Y-420058540D01*
X608802313Y-419996535D01*
X608800000Y-419972697D01*
X608800000Y-413889999D01*
X608220000Y-413280000D01*
X608219998Y-413279999D01*
X605010001Y-413269999D01*
X605009999Y-413270000D01*
X604488102Y-413889999D01*
X603728618Y-414792244D01*
X603717161Y-414805854D01*
X603658929Y-414844465D01*
X603622296Y-414850000D01*
X597550000Y-414850000D01*
X597550000Y-416264463D01*
X597543931Y-416302782D01*
X597519226Y-416378815D01*
X597485972Y-416588772D01*
X597485972Y-416801345D01*
X597519225Y-417011299D01*
X597543931Y-417087335D01*
X597550000Y-417125653D01*
X597550000Y-417860000D01*
X597549999Y-417860000D01*
X600007604Y-420420738D01*
X601651936Y-422134074D01*
X601684154Y-422196071D01*
X601686472Y-422219934D01*
X601686472Y-428522559D01*
X601686471Y-428522559D01*
X604330044Y-431110000D01*
X604667202Y-431440000D01*
X605299207Y-432058585D01*
X605333348Y-432119545D01*
X605336472Y-432147202D01*
X605336472Y-434898559D01*
X605316787Y-434965598D01*
X605263983Y-435011353D01*
X605212472Y-435022559D01*
X600710472Y-435022559D01*
X600643433Y-435002874D01*
X600597678Y-434950070D01*
X600586472Y-434898559D01*
X600586472Y-433022559D01*
X595124853Y-427809195D01*
X595089951Y-427748667D01*
X595086472Y-427719499D01*
X595086472Y-417712693D01*
X595094290Y-417669360D01*
X595098859Y-417657110D01*
X595100563Y-417652542D01*
X595106972Y-417592932D01*
X595106971Y-415797187D01*
X595100563Y-415737576D01*
X595099079Y-415733598D01*
X595094290Y-415720755D01*
X595086472Y-415677423D01*
X595086472Y-406272559D01*
X592650000Y-406272559D01*
X592649999Y-406272559D01*
X591773509Y-407519853D01*
X591718859Y-407563386D01*
X591672054Y-407572559D01*
X587636472Y-407572559D01*
X587626495Y-407582535D01*
X587616787Y-407615598D01*
X587563983Y-407661353D01*
X587512472Y-407672559D01*
X586760472Y-407672559D01*
X586693433Y-407652874D01*
X586647678Y-407600070D01*
X586642593Y-407576699D01*
X586636472Y-407570576D01*
X586636472Y-407570575D01*
X586635896Y-407570574D01*
X584770001Y-407569999D01*
X584769999Y-407570000D01*
X584010000Y-408329998D01*
X584019905Y-416445191D01*
X584000302Y-416512254D01*
X583983586Y-416533023D01*
X583700785Y-416815823D01*
X583697019Y-416819434D01*
X582986472Y-417472558D01*
X582986472Y-430477486D01*
X582966787Y-430544525D01*
X582957529Y-430557111D01*
X581730000Y-432022558D01*
X581730000Y-438806000D01*
X581710315Y-438873039D01*
X581657511Y-438918794D01*
X581606000Y-438930000D01*
X579224000Y-438930000D01*
X579156961Y-438910315D01*
X579111206Y-438857511D01*
X579100000Y-438806000D01*
X579100000Y-433860000D01*
X578656298Y-433489130D01*
X578624915Y-433449445D01*
X578349563Y-432898741D01*
X578336472Y-432843287D01*
X578336472Y-432372560D01*
X578336472Y-432372559D01*
X577150000Y-431110000D01*
X575839999Y-431110000D01*
X574586472Y-432022558D01*
X574586472Y-435225414D01*
X574566787Y-435292453D01*
X574555151Y-435307795D01*
X572586472Y-437522559D01*
X572586472Y-440581000D01*
X572566787Y-440648039D01*
X572513983Y-440693794D01*
X572462472Y-440705000D01*
X564984000Y-440705000D01*
X564916961Y-440685315D01*
X564871206Y-440632511D01*
X564860000Y-440581000D01*
X564860000Y-435315249D01*
X564879685Y-435248210D01*
X564886267Y-435238933D01*
X565836472Y-434022559D01*
X565836472Y-409930000D01*
X565836472Y-409929999D01*
X562536474Y-406572559D01*
X562536472Y-406572559D01*
X559317773Y-406572559D01*
X559285680Y-406568334D01*
X559118935Y-406523655D01*
X559118929Y-406523654D01*
X559118924Y-406523653D01*
X558897938Y-406494560D01*
X558897935Y-406494559D01*
X558897929Y-406494559D01*
X558675015Y-406494559D01*
X558675009Y-406494559D01*
X558675005Y-406494560D01*
X558454019Y-406523653D01*
X558454012Y-406523654D01*
X558454009Y-406523655D01*
X558351836Y-406551032D01*
X558287264Y-406568334D01*
X558255171Y-406572559D01*
X557136472Y-406572559D01*
X557136472Y-407766388D01*
X557132247Y-407798481D01*
X557115070Y-407862585D01*
X557115067Y-407862599D01*
X557085973Y-408083592D01*
X557085972Y-408083608D01*
X557085972Y-408306509D01*
X557085973Y-408306525D01*
X557115066Y-408527511D01*
X557115067Y-408527516D01*
X557115068Y-408527522D01*
X557132247Y-408591634D01*
X557136472Y-408623727D01*
X557136472Y-409601637D01*
X557116787Y-409668676D01*
X557075342Y-409708517D01*
X555526764Y-410619445D01*
X555459000Y-410636468D01*
X555392790Y-410614153D01*
X555369020Y-410592408D01*
X553970000Y-408930000D01*
X551710000Y-408930000D01*
X551710000Y-411877575D01*
X551690315Y-411944614D01*
X551672394Y-411966525D01*
X550006087Y-413584950D01*
X549944282Y-413617538D01*
X549919693Y-413620000D01*
X544970000Y-413620000D01*
X544315954Y-414325953D01*
X543710000Y-414979999D01*
X543710000Y-416600000D01*
X544969996Y-417559998D01*
X544969999Y-417559999D01*
X544970000Y-417560000D01*
X553984404Y-417550057D01*
X554051464Y-417569668D01*
X554072970Y-417587131D01*
X555300904Y-418836374D01*
X555333860Y-418897982D01*
X555336472Y-418923297D01*
X555336472Y-421848559D01*
X555316787Y-421915598D01*
X555263983Y-421961353D01*
X555212472Y-421972559D01*
X552660472Y-421972559D01*
X552593433Y-421952874D01*
X552547678Y-421900070D01*
X552536472Y-421848559D01*
X552536472Y-419872558D01*
X552141791Y-419450766D01*
X551720000Y-419000000D01*
X551719999Y-419000000D01*
X548698674Y-419000000D01*
X548679277Y-418998473D01*
X548654564Y-418994559D01*
X548418380Y-418994559D01*
X548393667Y-418998473D01*
X548374270Y-419000000D01*
X547319999Y-419000000D01*
X546200000Y-420119999D01*
X546200000Y-420120000D01*
X546200000Y-422270000D01*
X549836472Y-425820000D01*
X555846407Y-425839596D01*
X555913379Y-425859499D01*
X555958962Y-425912452D01*
X555970000Y-425963595D01*
X555970000Y-431382096D01*
X555950315Y-431449135D01*
X555925604Y-431477171D01*
X552624741Y-434240911D01*
X552560703Y-434268855D01*
X552544687Y-434269835D01*
X549887266Y-434260184D01*
X549820298Y-434240256D01*
X549800404Y-434224234D01*
X548373160Y-432808939D01*
X548339418Y-432747757D01*
X548336472Y-432720890D01*
X548336472Y-429060000D01*
X548336471Y-429059999D01*
X545336473Y-425772559D01*
X545336472Y-425772559D01*
X540960472Y-425772559D01*
X540893433Y-425752874D01*
X540847678Y-425700070D01*
X540836472Y-425648559D01*
X540836472Y-412272558D01*
X539470000Y-410750000D01*
X537470000Y-410750000D01*
X536470000Y-411809999D01*
X536470000Y-413545243D01*
X536450315Y-413612282D01*
X536429532Y-413636886D01*
X534086472Y-415772559D01*
X534086472Y-426979373D01*
X534066787Y-427046412D01*
X534059646Y-427056401D01*
X530894416Y-431049459D01*
X530837345Y-431089767D01*
X530777844Y-431094904D01*
X530680958Y-431079559D01*
X530680953Y-431079559D01*
X530491991Y-431079559D01*
X530491986Y-431079559D01*
X530305352Y-431109119D01*
X530305346Y-431109120D01*
X530282670Y-431116489D01*
X530244350Y-431122559D01*
X527775090Y-431122559D01*
X527708051Y-431102874D01*
X527700780Y-431097826D01*
X527678806Y-431081377D01*
X527678800Y-431081373D01*
X527543954Y-431031079D01*
X527543955Y-431031079D01*
X527484355Y-431024672D01*
X527484353Y-431024671D01*
X527484345Y-431024671D01*
X527484336Y-431024671D01*
X525788601Y-431024671D01*
X525788595Y-431024672D01*
X525728988Y-431031079D01*
X525594143Y-431081373D01*
X525594137Y-431081377D01*
X525572164Y-431097826D01*
X525506700Y-431122243D01*
X525497854Y-431122559D01*
X520141092Y-431122559D01*
X520074053Y-431102874D01*
X520049604Y-431082261D01*
X517968984Y-428808095D01*
X517938255Y-428745345D01*
X517936472Y-428724393D01*
X517936472Y-415372558D01*
X515086472Y-410772559D01*
X508840000Y-410772559D01*
X508836472Y-413972559D01*
X511668500Y-416533023D01*
X512445632Y-417235635D01*
X512482159Y-417295196D01*
X512486472Y-417327615D01*
X512486472Y-424495330D01*
X512466787Y-424562369D01*
X512413983Y-424608124D01*
X512361804Y-424619328D01*
X503805263Y-424573233D01*
X503738331Y-424553188D01*
X503718250Y-424536916D01*
X502672791Y-423491457D01*
X502639306Y-423430134D01*
X502636472Y-423403776D01*
X502636472Y-414896559D01*
X502656157Y-414829520D01*
X502708961Y-414783765D01*
X502760472Y-414772559D01*
X503512472Y-414772559D01*
X503579511Y-414792244D01*
X503625266Y-414845048D01*
X503636472Y-414896559D01*
X503636472Y-415680855D01*
X505454979Y-417587133D01*
X505502358Y-417636798D01*
X505534390Y-417698893D01*
X505536635Y-417721979D01*
X505537515Y-417988156D01*
X505540000Y-418740000D01*
X505540001Y-418740002D01*
X506709997Y-419849998D01*
X506709998Y-419849998D01*
X506710000Y-419850000D01*
X509350000Y-419850000D01*
X510136472Y-419060000D01*
X510136472Y-417772559D01*
X509491299Y-417172559D01*
X506549555Y-414436785D01*
X506513869Y-414376717D01*
X506510000Y-414345983D01*
X506510000Y-410302661D01*
X506529685Y-410235622D01*
X506547893Y-410213434D01*
X507800440Y-409004770D01*
X507862350Y-408972383D01*
X507886544Y-408970000D01*
X516020055Y-408970000D01*
X516087094Y-408989685D01*
X516126178Y-409029860D01*
X518688823Y-413270000D01*
X520002085Y-415442917D01*
X520019961Y-415507194D01*
X520012368Y-422308878D01*
X520010000Y-424430000D01*
X521180000Y-425820000D01*
X523610000Y-425820000D01*
X523610000Y-421870000D01*
X523593919Y-421848559D01*
X522956772Y-420999028D01*
X522932296Y-420933586D01*
X522931972Y-420924628D01*
X522931972Y-416297568D01*
X522951657Y-416230529D01*
X522977836Y-416201284D01*
X523136472Y-416072559D01*
X523130066Y-402945303D01*
X523149717Y-402878257D01*
X523166375Y-402857575D01*
X525767074Y-400256878D01*
X525828397Y-400223393D01*
X525854755Y-400220559D01*
X541895690Y-400220559D01*
X541925130Y-400229203D01*
X541955117Y-400235727D01*
X541960132Y-400239481D01*
X541962729Y-400240244D01*
X541983371Y-400256878D01*
X542023681Y-400297188D01*
X542057166Y-400358511D01*
X542060000Y-400384869D01*
X542060000Y-400898559D01*
X542040315Y-400965598D01*
X541987511Y-401011353D01*
X541936000Y-401022559D01*
X526586471Y-401022559D01*
X525336472Y-402272558D01*
X525336472Y-405093238D01*
X525336090Y-405102961D01*
X525335972Y-405104461D01*
X525335972Y-405340654D01*
X525336089Y-405342140D01*
X525336472Y-405351874D01*
X525336472Y-410558707D01*
X525334945Y-410578105D01*
X525310972Y-410729461D01*
X525310972Y-410965656D01*
X525334945Y-411117011D01*
X525336472Y-411136409D01*
X525336472Y-415918267D01*
X525316787Y-415985306D01*
X525296579Y-416009383D01*
X525088691Y-416201280D01*
X524036472Y-417172559D01*
X524036472Y-417172560D01*
X524036472Y-417581207D01*
X524034945Y-417600605D01*
X524010972Y-417751961D01*
X524010972Y-417988156D01*
X524034945Y-418139511D01*
X524036472Y-418158909D01*
X524036472Y-419120000D01*
X524036471Y-419120000D01*
X524507701Y-419472558D01*
X525430283Y-420162803D01*
X525472170Y-420218725D01*
X525480000Y-420262090D01*
X525480000Y-425840000D01*
X528970000Y-425840000D01*
X528970000Y-423930000D01*
X528970000Y-422322606D01*
X528989685Y-422255567D01*
X529004739Y-422236533D01*
X531670000Y-419472559D01*
X531670777Y-418368086D01*
X531678594Y-418324848D01*
X531705563Y-418252542D01*
X531711972Y-418192932D01*
X531711971Y-416397187D01*
X531705563Y-416337576D01*
X531680102Y-416269311D01*
X531672286Y-416225903D01*
X531679085Y-406572559D01*
X531679913Y-405396472D01*
X531699645Y-405329446D01*
X531752481Y-405283728D01*
X531803913Y-405272559D01*
X533966400Y-405272559D01*
X534033439Y-405292244D01*
X534079194Y-405345048D01*
X534090399Y-405396159D01*
X534093565Y-406378085D01*
X534087497Y-406416802D01*
X534059227Y-406503807D01*
X534059226Y-406503814D01*
X534025972Y-406713772D01*
X534025972Y-406926345D01*
X534059226Y-407136305D01*
X534090374Y-407232170D01*
X534096442Y-407270087D01*
X534099999Y-408372557D01*
X534100000Y-408372559D01*
X539785553Y-408372559D01*
X539852592Y-408392244D01*
X539872696Y-408408343D01*
X543230814Y-411725627D01*
X543336472Y-411830000D01*
X547469999Y-411830000D01*
X547470000Y-411830000D01*
X548970000Y-411450000D01*
X548970000Y-406719879D01*
X548989685Y-406652840D01*
X549004539Y-406634014D01*
X550828465Y-404733693D01*
X550889088Y-404698959D01*
X550917925Y-404695559D01*
X563929328Y-404695559D01*
X563996367Y-404715244D01*
X564021050Y-404736114D01*
X564354792Y-405102961D01*
X567470304Y-408527511D01*
X567804194Y-408894520D01*
X567834747Y-408957355D01*
X567836472Y-408977965D01*
X567836472Y-433980495D01*
X567816787Y-434047534D01*
X567810879Y-434055940D01*
X566686472Y-435522558D01*
X566686472Y-435522559D01*
X566686472Y-439172559D01*
X570986472Y-439172559D01*
X571084337Y-437068440D01*
X571107115Y-437002390D01*
X571117973Y-436989148D01*
X572736472Y-435272559D01*
X572736472Y-432010000D01*
X572736472Y-432009999D01*
X570631983Y-429059999D01*
X569962963Y-428122189D01*
X569940056Y-428056184D01*
X569939910Y-428050489D01*
X569930280Y-423784124D01*
X569949814Y-423717041D01*
X570002514Y-423671167D01*
X570054123Y-423659845D01*
X577825847Y-423650154D01*
X577892909Y-423669755D01*
X577938730Y-423722502D01*
X577950000Y-423774154D01*
X577950000Y-426522559D01*
X578836472Y-427390000D01*
X580086472Y-427370059D01*
X580986472Y-426522559D01*
X581036472Y-407972559D01*
X581003077Y-407942503D01*
X580036471Y-407072558D01*
X572383738Y-407022865D01*
X572316828Y-407002746D01*
X572301405Y-406990868D01*
X571090570Y-405896661D01*
X571054029Y-405837108D01*
X571049710Y-405805318D01*
X571049669Y-405797563D01*
X571040659Y-404097050D01*
X571059988Y-404029909D01*
X571112549Y-403983875D01*
X571164493Y-403972395D01*
X603313859Y-403930073D01*
X603380921Y-403949669D01*
X603407096Y-403972142D01*
X605635616Y-406503807D01*
X606090000Y-407020000D01*
X608796000Y-407020000D01*
X608863039Y-407039685D01*
X608908794Y-407092489D01*
X608920000Y-407144000D01*
X608920000Y-407846330D01*
X608900315Y-407913369D01*
X608847511Y-407959124D01*
X608796332Y-407970330D01*
X605232414Y-407979859D01*
X605165322Y-407960353D01*
X605143375Y-407942503D01*
X604868763Y-407661353D01*
X603500000Y-406260000D01*
X603499999Y-406260000D01*
X597320000Y-406272558D01*
X597310000Y-410560000D01*
X603115558Y-410550092D01*
X603182628Y-410569662D01*
X603206908Y-410590014D01*
X603553392Y-410965656D01*
X603836471Y-411272559D01*
X603836472Y-411272559D01*
X608785110Y-411272559D01*
X608852149Y-411292244D01*
X608872791Y-411308878D01*
X609749653Y-412185740D01*
X609783138Y-412247063D01*
X609785972Y-412273421D01*
X609785972Y-416918600D01*
X609797302Y-416975559D01*
X609824421Y-417111895D01*
X609831184Y-417128222D01*
X609833532Y-417138810D01*
X609832923Y-417147818D01*
X609836472Y-417165654D01*
X609836472Y-418022559D01*
X614088545Y-422272559D01*
X615086472Y-423270000D01*
X627336470Y-423272559D01*
X627336470Y-423272558D01*
X627336472Y-423272559D01*
X632301308Y-418831454D01*
X632364395Y-418801432D01*
X632383643Y-418799876D01*
X642836472Y-418772559D01*
X642864767Y-418740000D01*
X643340170Y-418192942D01*
X644140000Y-417272559D01*
X644136472Y-394072559D01*
X644136471Y-394072558D01*
X644136471Y-394072557D01*
X638336473Y-388272559D01*
X638336471Y-388272558D01*
X604334999Y-388275000D01*
X600269662Y-392383352D01*
X599126902Y-393538204D01*
X598931891Y-393735278D01*
X598870745Y-393769085D01*
X598843750Y-393772059D01*
X583635774Y-393772059D01*
X583568735Y-393752374D01*
X583549978Y-393737586D01*
X583341927Y-393538204D01*
X579986472Y-390322559D01*
X571236471Y-390322559D01*
X569123514Y-392730348D01*
X569064500Y-392767753D01*
X569030312Y-392772559D01*
X555886821Y-392772559D01*
X555819782Y-392752874D01*
X555800375Y-392737458D01*
X554970000Y-391930000D01*
X545970000Y-391930000D01*
X545969999Y-391930000D01*
X544792117Y-393107881D01*
X544747769Y-393136382D01*
X544634143Y-393178761D01*
X544634136Y-393178765D01*
X544518927Y-393265011D01*
X544518924Y-393265014D01*
X544432678Y-393380223D01*
X544432674Y-393380230D01*
X544390295Y-393493856D01*
X544361794Y-393538204D01*
X543006319Y-394893681D01*
X542944996Y-394927166D01*
X542918638Y-394930000D01*
X523969998Y-394930000D01*
X521121830Y-397490769D01*
X521058817Y-397520953D01*
X521038925Y-397522559D01*
X517086472Y-397522559D01*
X514401326Y-400172559D01*
X514300000Y-400272559D01*
X514300000Y-401972539D01*
X514280315Y-402039578D01*
X514265295Y-402058577D01*
X513373531Y-402984097D01*
X513312840Y-403018715D01*
X513284236Y-403022059D01*
X506198191Y-403022059D01*
X506188013Y-403022559D01*
X505586472Y-403022559D01*
X499123754Y-409236710D01*
X499061787Y-409268987D01*
X499034767Y-409271290D01*
X494500000Y-409160000D01*
X494499997Y-409160001D01*
X491840000Y-411459999D01*
X491840000Y-426596672D01*
X491820315Y-426663711D01*
X491813016Y-426673898D01*
X491373735Y-427225746D01*
X491316582Y-427265938D01*
X491276639Y-427272520D01*
X487473985Y-427270079D01*
X487406959Y-427250351D01*
X487361238Y-427197518D01*
X487350065Y-427146014D01*
X487350118Y-427046412D01*
X487363487Y-401610393D01*
X487369935Y-389343935D01*
X487389655Y-389276906D01*
X487442483Y-389231179D01*
X487493935Y-389220000D01*
X491246254Y-389220000D01*
X491313293Y-389239685D01*
X491336746Y-389259223D01*
X492156593Y-390134341D01*
X492188062Y-390196723D01*
X492190101Y-390218861D01*
X492197458Y-393772059D01*
X492200000Y-395000000D01*
X500170000Y-395020000D01*
X502932923Y-391135350D01*
X502987819Y-391092129D01*
X503033971Y-391083220D01*
X506901937Y-391083220D01*
X506968976Y-391102905D01*
X507006545Y-391140638D01*
X509620000Y-395246780D01*
X517700000Y-395226780D01*
X517925907Y-394927166D01*
X521422717Y-390289446D01*
X521478795Y-390247769D01*
X521521926Y-390240100D01*
X541586472Y-390272559D01*
X544050153Y-387808878D01*
X544111476Y-387775393D01*
X544137834Y-387772559D01*
X568086471Y-387772559D01*
X568086472Y-387772559D01*
X569590000Y-385940000D01*
X569609647Y-379053645D01*
X569629522Y-378986663D01*
X569682457Y-378941059D01*
X569733646Y-378930000D01*
X580486000Y-378930000D01*
X580553039Y-378949685D01*
G37*
%TD.AperFunction*%
%TD*%
M02*
