%TF.GenerationSoftware,KiCad,Pcbnew,9.0.0*%
%TF.CreationDate,2025-04-19T09:28:34+05:00*%
%TF.ProjectId,SRT,5352542e-6b69-4636-9164-5f7063625858,rev?*%
%TF.SameCoordinates,Original*%
%TF.FileFunction,Soldermask,Top*%
%TF.FilePolarity,Negative*%
%FSLAX46Y46*%
G04 Gerber Fmt 4.6, Leading zero omitted, Abs format (unit mm)*
G04 Created by KiCad (PCBNEW 9.0.0) date 2025-04-19 09:28:34*
%MOMM*%
%LPD*%
G01*
G04 APERTURE LIST*
%ADD10C,1.600000*%
%ADD11O,1.600000X1.600000*%
%ADD12C,2.000000*%
%ADD13C,1.400000*%
%ADD14O,1.400000X1.400000*%
%ADD15C,2.400000*%
%ADD16R,1.800000X1.800000*%
%ADD17O,1.800000X1.800000*%
%ADD18C,3.000000*%
%ADD19C,2.200000*%
%ADD20R,1.700000X1.700000*%
%ADD21O,1.700000X1.700000*%
%ADD22R,1.600000X1.600000*%
%ADD23R,2.400000X2.400000*%
%ADD24O,2.400000X2.400000*%
%ADD25R,1.400000X1.400000*%
%ADD26R,4.000000X4.000000*%
%ADD27C,4.000000*%
%ADD28R,2.000000X2.000000*%
G04 APERTURE END LIST*
D10*
%TO.C,R21*%
X659986472Y-388142559D03*
D11*
X659986472Y-403382559D03*
%TD*%
D12*
%TO.C,C13*%
X564161472Y-420245059D03*
X574161472Y-420245059D03*
%TD*%
D13*
%TO.C,R51*%
X549816472Y-432620059D03*
D14*
X557436472Y-432620059D03*
%TD*%
D15*
%TO.C,C34*%
X679736472Y-417322559D03*
X679736472Y-432322559D03*
%TD*%
D10*
%TO.C,R57*%
X582581472Y-381195059D03*
D11*
X567341472Y-381195059D03*
%TD*%
D16*
%TO.C,D2*%
X742146472Y-434272559D03*
D17*
X734526472Y-434272559D03*
%TD*%
D18*
%TO.C,*%
X591711464Y-437170059D03*
%TD*%
%TO.C,*%
X715036472Y-373772559D03*
%TD*%
D19*
%TO.C,REF\u002A\u002A*%
X491336472Y-375772559D03*
%TD*%
D12*
%TO.C,C26*%
X538536472Y-420495059D03*
X548536472Y-420495059D03*
%TD*%
D18*
%TO.C,*%
X749736472Y-414236843D03*
%TD*%
D16*
%TO.C,D5*%
X738026472Y-427197559D03*
D17*
X745646472Y-427197559D03*
%TD*%
D18*
%TO.C,*%
X646806472Y-437072559D03*
%TD*%
D10*
%TO.C,R62*%
X582581472Y-385695059D03*
D11*
X567341472Y-385695059D03*
%TD*%
D16*
%TO.C,D3*%
X738026472Y-438097559D03*
D17*
X745646472Y-438097559D03*
%TD*%
D13*
%TO.C,R24*%
X576511472Y-424985059D03*
D14*
X576511472Y-432605059D03*
%TD*%
D20*
%TO.C,CR GAIN*%
X530296472Y-406820059D03*
D21*
X532836472Y-406820059D03*
X535376472Y-406820059D03*
%TD*%
D13*
%TO.C,R36*%
X571336472Y-424960059D03*
D14*
X571336472Y-432580059D03*
%TD*%
D22*
%TO.C,C18*%
X616036472Y-427572710D03*
D10*
X616036472Y-424072710D03*
%TD*%
%TO.C,R34*%
X657986472Y-416852559D03*
D11*
X657986472Y-432092559D03*
%TD*%
D12*
%TO.C,C25*%
X519311472Y-410847559D03*
X526811472Y-410847559D03*
%TD*%
D23*
%TO.C,C62*%
X527136472Y-385522559D03*
D15*
X527136472Y-393022559D03*
%TD*%
D18*
%TO.C,*%
X662611472Y-373772559D03*
%TD*%
D12*
%TO.C,C15*%
X497386472Y-417670059D03*
X507386472Y-417670059D03*
%TD*%
D18*
%TO.C,*%
X546011468Y-437170059D03*
%TD*%
%TO.C,*%
X674786472Y-437772559D03*
%TD*%
%TO.C,*%
X749736472Y-389026130D03*
%TD*%
%TO.C,*%
X561244800Y-437170059D03*
%TD*%
%TO.C,*%
X576478132Y-437170059D03*
%TD*%
D23*
%TO.C,C39*%
X698086472Y-420972559D03*
D24*
X698086472Y-395972559D03*
%TD*%
D20*
%TO.C,CLR*%
X505121472Y-412545059D03*
D21*
X507661472Y-412545059D03*
X510201472Y-412545059D03*
%TD*%
D10*
%TO.C,R22*%
X679786472Y-384622559D03*
D11*
X654386472Y-384622559D03*
%TD*%
D18*
%TO.C,*%
X749736472Y-405833272D03*
%TD*%
D12*
%TO.C,C12*%
X526836472Y-405222559D03*
X519336472Y-405222559D03*
%TD*%
D22*
%TO.C,C7*%
X526636472Y-432325171D03*
D10*
X526636472Y-429825171D03*
%TD*%
D13*
%TO.C,R84*%
X729346472Y-398972559D03*
D14*
X721726472Y-398972559D03*
%TD*%
D16*
%TO.C,D4*%
X742146472Y-430772559D03*
D17*
X734526472Y-430772559D03*
%TD*%
D18*
%TO.C,*%
X507928138Y-437170059D03*
%TD*%
D13*
%TO.C,R6*%
X530586472Y-424660059D03*
D14*
X530586472Y-432280059D03*
%TD*%
D10*
%TO.C,R2*%
X515511472Y-414795059D03*
D11*
X515511472Y-389395059D03*
%TD*%
D18*
%TO.C,*%
X599328130Y-437170059D03*
%TD*%
D10*
%TO.C,R48*%
X667786472Y-403542559D03*
D11*
X667786472Y-388302559D03*
%TD*%
D13*
%TO.C,R35*%
X507936472Y-420660059D03*
D14*
X507936472Y-428280059D03*
%TD*%
D10*
%TO.C,R49*%
X673266472Y-388622559D03*
D11*
X688506472Y-388622559D03*
%TD*%
D18*
%TO.C,*%
X584094798Y-437170059D03*
%TD*%
%TO.C,*%
X672686472Y-373772559D03*
%TD*%
D13*
%TO.C,R32*%
X551276472Y-420495059D03*
D14*
X558896472Y-420495059D03*
%TD*%
D13*
%TO.C,R15*%
X609111472Y-417635059D03*
D14*
X609111472Y-425255059D03*
%TD*%
D22*
%TO.C,C29*%
X504761472Y-433120059D03*
D10*
X504761472Y-430620059D03*
%TD*%
%TO.C,R43*%
X674686472Y-427522559D03*
D11*
X661986472Y-427522559D03*
%TD*%
D10*
%TO.C,R9*%
X603236472Y-420220059D03*
D11*
X577836472Y-420220059D03*
%TD*%
D25*
%TO.C,K1*%
X607011472Y-397020059D03*
D13*
X607011472Y-404640059D03*
X607011472Y-409720059D03*
X607011472Y-414800059D03*
X614631472Y-414800059D03*
X614631472Y-409720059D03*
X614631472Y-404640059D03*
X614631472Y-397020059D03*
%TD*%
D18*
%TO.C,*%
X515544804Y-437170059D03*
%TD*%
D13*
%TO.C,R14*%
X597536472Y-424660059D03*
D14*
X597536472Y-432280059D03*
%TD*%
D18*
%TO.C,*%
X568861466Y-437170059D03*
%TD*%
D20*
%TO.C,MASTER*%
X685336472Y-438022559D03*
D21*
X687876472Y-438022559D03*
X690416472Y-438022559D03*
X692956472Y-438022559D03*
%TD*%
D18*
%TO.C,*%
X655786472Y-437272559D03*
%TD*%
%TO.C,*%
X749736472Y-439447559D03*
%TD*%
D12*
%TO.C,C3*%
X515511472Y-417870059D03*
X525511472Y-417870059D03*
%TD*%
D10*
%TO.C,R80*%
X704536472Y-422352559D03*
D11*
X704536472Y-437592559D03*
%TD*%
D20*
%TO.C,CRUNCH*%
X593706472Y-408445059D03*
D21*
X596246472Y-408445059D03*
X598786472Y-408445059D03*
%TD*%
D13*
%TO.C,R11*%
X579361472Y-432580059D03*
D14*
X579361472Y-424960059D03*
%TD*%
D23*
%TO.C,C40*%
X688336472Y-421022559D03*
D24*
X688336472Y-396022559D03*
%TD*%
D18*
%TO.C,*%
X530778136Y-437170059D03*
%TD*%
D13*
%TO.C,R88*%
X729336472Y-408982559D03*
D14*
X729336472Y-401362559D03*
%TD*%
D26*
%TO.C,C59*%
X719611472Y-422342189D03*
D27*
X719611472Y-432342189D03*
%TD*%
D13*
%TO.C,R46*%
X535401472Y-432595059D03*
D14*
X543021472Y-432595059D03*
%TD*%
D13*
%TO.C,R12*%
X526946472Y-402422559D03*
D14*
X519326472Y-402422559D03*
%TD*%
D12*
%TO.C,C28*%
X667686472Y-407672559D03*
X660186472Y-407672559D03*
%TD*%
D16*
%TO.C,D17*%
X572026472Y-394277559D03*
D17*
X579646472Y-394277559D03*
%TD*%
D20*
%TO.C,LEDs*%
X624336472Y-406022559D03*
D21*
X624336472Y-408562559D03*
X624336472Y-411102559D03*
X624336472Y-413642559D03*
%TD*%
D18*
%TO.C,*%
X538394802Y-437170059D03*
%TD*%
D25*
%TO.C,K2*%
X628961472Y-397000059D03*
D13*
X628961472Y-404620059D03*
X628961472Y-409700059D03*
X628961472Y-414780059D03*
X636581472Y-414780059D03*
X636581472Y-409700059D03*
X636581472Y-404620059D03*
X636581472Y-397000059D03*
%TD*%
D18*
%TO.C,*%
X665286472Y-437372559D03*
%TD*%
D15*
%TO.C,C10*%
X558786472Y-385695059D03*
X558786472Y-408195059D03*
%TD*%
D16*
%TO.C,D1*%
X726336472Y-382272559D03*
D17*
X718716472Y-382272559D03*
%TD*%
D25*
%TO.C,K4*%
X545686472Y-397695059D03*
D13*
X545686472Y-405315059D03*
X545686472Y-410395059D03*
X545686472Y-415475059D03*
X553306472Y-415475059D03*
X553306472Y-410395059D03*
X553306472Y-405315059D03*
X553306472Y-397695059D03*
%TD*%
D18*
%TO.C,*%
X523161470Y-437170059D03*
%TD*%
D20*
%TO.C,BACK PLATE*%
X640311472Y-395772559D03*
D21*
X640311472Y-398312559D03*
X640311472Y-400852559D03*
X640311472Y-403392559D03*
%TD*%
D13*
%TO.C,R93*%
X624336472Y-424272559D03*
D14*
X624336472Y-416652559D03*
%TD*%
D16*
%TO.C,D18*%
X629026472Y-393772559D03*
D17*
X636646472Y-393772559D03*
%TD*%
D10*
%TO.C,R61*%
X675286472Y-380822559D03*
D11*
X649886472Y-380822559D03*
%TD*%
D19*
%TO.C,REF\u002A\u002A*%
X491836472Y-436772559D03*
%TD*%
D18*
%TO.C,*%
X749736472Y-397429701D03*
%TD*%
%TO.C,*%
X614561472Y-437170059D03*
%TD*%
%TO.C,*%
X606944796Y-437170059D03*
%TD*%
D22*
%TO.C,C35*%
X557464123Y-427195059D03*
D10*
X553964123Y-427195059D03*
%TD*%
D16*
%TO.C,D19*%
X545776472Y-394522559D03*
D17*
X553396472Y-394522559D03*
%TD*%
D10*
%TO.C,R54*%
X688336472Y-392272559D03*
D11*
X703576472Y-392272559D03*
%TD*%
D20*
%TO.C,LEAD*%
X593756472Y-416695059D03*
D21*
X596296472Y-416695059D03*
X598836472Y-416695059D03*
%TD*%
D23*
%TO.C,C61*%
X600336472Y-380522559D03*
D15*
X600336472Y-388022559D03*
%TD*%
D18*
%TO.C,*%
X500311472Y-437170059D03*
%TD*%
D12*
%TO.C,C30*%
X511061472Y-433220059D03*
X511061472Y-423220059D03*
%TD*%
D18*
%TO.C,*%
X638286472Y-437072559D03*
%TD*%
D10*
%TO.C,R30*%
X652811472Y-416827559D03*
D11*
X652811472Y-432067559D03*
%TD*%
D10*
%TO.C,R33*%
X674606472Y-412722559D03*
D11*
X659366472Y-412722559D03*
%TD*%
D18*
%TO.C,*%
X749736472Y-431043985D03*
%TD*%
D15*
%TO.C,C36*%
X673436472Y-407472559D03*
X673436472Y-392472559D03*
%TD*%
D10*
%TO.C,R42*%
X709716472Y-386872559D03*
D11*
X724956472Y-386872559D03*
%TD*%
D13*
%TO.C,R47*%
X504711472Y-420685059D03*
D14*
X504711472Y-428305059D03*
%TD*%
D16*
%TO.C,D20*%
X607026472Y-393887559D03*
D17*
X614646472Y-393887559D03*
%TD*%
D13*
%TO.C,R45*%
X519301472Y-408022559D03*
D14*
X526921472Y-408022559D03*
%TD*%
D23*
%TO.C,C41*%
X504336472Y-385522559D03*
D15*
X504336472Y-393022559D03*
%TD*%
D28*
%TO.C,C68*%
X737336472Y-401372559D03*
D12*
X737336472Y-406372559D03*
%TD*%
D22*
%TO.C,C76*%
X642333821Y-409647559D03*
D10*
X645833821Y-409647559D03*
%TD*%
D19*
%TO.C,REF\u002A\u002A*%
X731836472Y-440272559D03*
%TD*%
D18*
%TO.C,*%
X653261472Y-373772559D03*
%TD*%
D12*
%TO.C,C19*%
X669081472Y-419772559D03*
X661581472Y-419772559D03*
%TD*%
D10*
%TO.C,R27*%
X538411472Y-412972559D03*
D11*
X538411472Y-387572559D03*
%TD*%
D20*
%TO.C,CLR VOL*%
X521931472Y-422945059D03*
D21*
X524471472Y-422945059D03*
X527011472Y-422945059D03*
%TD*%
D13*
%TO.C,R50*%
X542201472Y-423745059D03*
D14*
X549821472Y-423745059D03*
%TD*%
D20*
%TO.C,LD GAIN*%
X530361472Y-417295059D03*
D21*
X532901472Y-417295059D03*
X535441472Y-417295059D03*
%TD*%
D25*
%TO.C,K3*%
X572061472Y-397370059D03*
D13*
X572061472Y-404990059D03*
X572061472Y-410070059D03*
X572061472Y-415150059D03*
X579681472Y-415150059D03*
X579681472Y-410070059D03*
X579681472Y-404990059D03*
X579681472Y-397370059D03*
%TD*%
D23*
%TO.C,C60*%
X712636472Y-400694779D03*
D15*
X712636472Y-408194779D03*
%TD*%
D18*
%TO.C,*%
X749736472Y-422640414D03*
%TD*%
%TO.C,*%
X553628134Y-437170059D03*
%TD*%
%TO.C,*%
X749736472Y-380622559D03*
%TD*%
D10*
%TO.C,R10*%
X493186472Y-414145059D03*
D11*
X493186472Y-388745059D03*
%TD*%
D18*
%TO.C,*%
X705836472Y-373772559D03*
%TD*%
D10*
%TO.C,R55*%
X703586472Y-385022559D03*
D11*
X688346472Y-385022559D03*
%TD*%
D19*
%TO.C,REF\u002A\u002A*%
X742336472Y-375272559D03*
%TD*%
D15*
%TO.C,C17*%
X654386472Y-388372559D03*
X654386472Y-403372559D03*
%TD*%
D10*
%TO.C,R8*%
X564486472Y-411145059D03*
D11*
X564486472Y-385745059D03*
%TD*%
D10*
%TO.C,R5*%
X588936472Y-411095059D03*
D11*
X588936472Y-385695059D03*
%TD*%
M02*
