%TF.GenerationSoftware,KiCad,Pcbnew,9.0.0*%
%TF.CreationDate,2025-04-19T09:28:34+05:00*%
%TF.ProjectId,SRT,5352542e-6b69-4636-9164-5f7063625858,rev?*%
%TF.SameCoordinates,Original*%
%TF.FileFunction,Copper,L1,Top*%
%TF.FilePolarity,Positive*%
%FSLAX46Y46*%
G04 Gerber Fmt 4.6, Leading zero omitted, Abs format (unit mm)*
G04 Created by KiCad (PCBNEW 9.0.0) date 2025-04-19 09:28:34*
%MOMM*%
%LPD*%
G01*
G04 APERTURE LIST*
%TA.AperFunction,ComponentPad*%
%ADD10C,1.600000*%
%TD*%
%TA.AperFunction,ComponentPad*%
%ADD11O,1.600000X1.600000*%
%TD*%
%TA.AperFunction,ComponentPad*%
%ADD12C,2.000000*%
%TD*%
%TA.AperFunction,ComponentPad*%
%ADD13C,1.400000*%
%TD*%
%TA.AperFunction,ComponentPad*%
%ADD14O,1.400000X1.400000*%
%TD*%
%TA.AperFunction,ComponentPad*%
%ADD15C,2.400000*%
%TD*%
%TA.AperFunction,ComponentPad*%
%ADD16R,1.800000X1.800000*%
%TD*%
%TA.AperFunction,ComponentPad*%
%ADD17O,1.800000X1.800000*%
%TD*%
%TA.AperFunction,ComponentPad*%
%ADD18C,3.000000*%
%TD*%
%TA.AperFunction,ComponentPad*%
%ADD19R,1.700000X1.700000*%
%TD*%
%TA.AperFunction,ComponentPad*%
%ADD20O,1.700000X1.700000*%
%TD*%
%TA.AperFunction,ComponentPad*%
%ADD21R,1.600000X1.600000*%
%TD*%
%TA.AperFunction,ComponentPad*%
%ADD22R,2.400000X2.400000*%
%TD*%
%TA.AperFunction,ComponentPad*%
%ADD23O,2.400000X2.400000*%
%TD*%
%TA.AperFunction,ComponentPad*%
%ADD24R,1.400000X1.400000*%
%TD*%
%TA.AperFunction,ComponentPad*%
%ADD25R,4.000000X4.000000*%
%TD*%
%TA.AperFunction,ComponentPad*%
%ADD26C,4.000000*%
%TD*%
%TA.AperFunction,ComponentPad*%
%ADD27R,2.000000X2.000000*%
%TD*%
%TA.AperFunction,ViaPad*%
%ADD28C,0.800000*%
%TD*%
%TA.AperFunction,Conductor*%
%ADD29C,1.000000*%
%TD*%
G04 APERTURE END LIST*
D10*
%TO.P,R21,1*%
%TO.N,B+3*%
X659986472Y-388142559D03*
D11*
%TO.P,R21,2*%
%TO.N,Net-(U5A-A)*%
X659986472Y-403382559D03*
%TD*%
D12*
%TO.P,C13,1*%
%TO.N,Net-(U3B-A)*%
X564161472Y-420245059D03*
%TO.P,C13,2*%
%TO.N,Net-(C13-Pad2)*%
X574161472Y-420245059D03*
%TD*%
D13*
%TO.P,R51,1*%
%TO.N,GND*%
X549816472Y-432620059D03*
D14*
%TO.P,R51,2*%
%TO.N,Net-(U3A-K)*%
X557436472Y-432620059D03*
%TD*%
D15*
%TO.P,C34,1*%
%TO.N,Net-(C34-Pad1)*%
X679736472Y-417322559D03*
%TO.P,C34,2*%
%TO.N,Net-(U5B-G)*%
X679736472Y-432322559D03*
%TD*%
D10*
%TO.P,R57,1*%
%TO.N,B+3*%
X582581472Y-381195059D03*
D11*
%TO.P,R57,2*%
%TO.N,B+1*%
X567341472Y-381195059D03*
%TD*%
D16*
%TO.P,D2,1,K*%
%TO.N,Net-(D2-K)*%
X742146472Y-434272559D03*
D17*
%TO.P,D2,2,A*%
%TO.N,GND*%
X734526472Y-434272559D03*
%TD*%
D18*
%TO.P,,*%
%TO.N,Net-(U2A-G)*%
X591711464Y-437170059D03*
%TD*%
%TO.P,,*%
%TO.N,Net-(R42-Pad1)*%
X715036472Y-373772559D03*
%TD*%
D12*
%TO.P,C26,1*%
%TO.N,Net-(U3A-A)*%
X538536472Y-420495059D03*
%TO.P,C26,2*%
%TO.N,Net-(C26-Pad2)*%
X548536472Y-420495059D03*
%TD*%
D18*
%TO.P,,*%
%TO.N,B+5*%
X749736472Y-414236843D03*
%TD*%
D16*
%TO.P,D5,1,K*%
%TO.N,Net-(D3-K)*%
X738026472Y-427197559D03*
D17*
%TO.P,D5,2,A*%
%TO.N,Net-(D4-K)*%
X745646472Y-427197559D03*
%TD*%
D18*
%TO.P,,*%
%TO.N,Net-(U5A-G)*%
X646806472Y-437072559D03*
%TD*%
D10*
%TO.P,R62,1*%
%TO.N,B+3*%
X582581472Y-385695059D03*
D11*
%TO.P,R62,2*%
%TO.N,B+2*%
X567341472Y-385695059D03*
%TD*%
D16*
%TO.P,D3,1,K*%
%TO.N,Net-(D3-K)*%
X738026472Y-438097559D03*
D17*
%TO.P,D3,2,A*%
%TO.N,Net-(D2-K)*%
X745646472Y-438097559D03*
%TD*%
D13*
%TO.P,R24,1*%
%TO.N,GND*%
X576511472Y-424985059D03*
D14*
%TO.P,R24,2*%
%TO.N,Net-(U3B-K)*%
X576511472Y-432605059D03*
%TD*%
D19*
%TO.P,CR GAIN,1*%
%TO.N,Net-(C12-Pad1)*%
X530296472Y-406820059D03*
D20*
%TO.P,CR GAIN,2*%
%TO.N,GND*%
X532836472Y-406820059D03*
%TO.P,CR GAIN,3*%
%TO.N,Net-(C16-Pad2)*%
X535376472Y-406820059D03*
%TD*%
D13*
%TO.P,R36,1*%
%TO.N,GND*%
X571336472Y-424960059D03*
D14*
%TO.P,R36,2*%
%TO.N,Net-(U3B-G)*%
X571336472Y-432580059D03*
%TD*%
D21*
%TO.P,C18,1*%
%TO.N,Net-(U2B-K)*%
X616036472Y-427572710D03*
D10*
%TO.P,C18,2*%
%TO.N,GND*%
X616036472Y-424072710D03*
%TD*%
%TO.P,R34,1*%
%TO.N,Net-(R30-Pad1)*%
X657986472Y-416852559D03*
D11*
%TO.P,R34,2*%
%TO.N,Net-(U5A-K)*%
X657986472Y-432092559D03*
%TD*%
D12*
%TO.P,C25,1*%
%TO.N,Net-(C12-Pad2)*%
X519311472Y-410847559D03*
%TO.P,C25,2*%
%TO.N,Net-(C25-Pad2)*%
X526811472Y-410847559D03*
%TD*%
D22*
%TO.P,C62,1*%
%TO.N,B+2*%
X527136472Y-385522559D03*
D15*
%TO.P,C62,2*%
%TO.N,GND*%
X527136472Y-393022559D03*
%TD*%
D18*
%TO.P,,*%
%TO.N,Net-(C36-Pad2)*%
X662611472Y-373772559D03*
%TD*%
D12*
%TO.P,C15,1*%
%TO.N,Net-(U1A-A)*%
X497386472Y-417670059D03*
%TO.P,C15,2*%
%TO.N,Net-(C12-Pad2)*%
X507386472Y-417670059D03*
%TD*%
D18*
%TO.P,,*%
%TO.N,Net-(U3A-G)*%
X546011468Y-437170059D03*
%TD*%
%TO.P,,*%
%TO.N,Net-(U5B-G)*%
X674786472Y-437772559D03*
%TD*%
%TO.P,,*%
%TO.N,B+4*%
X749736472Y-389026130D03*
%TD*%
%TO.P,,*%
%TO.N,Net-(U3B-A)*%
X561244800Y-437170059D03*
%TD*%
%TO.P,,*%
%TO.N,Net-(U3B-K)*%
X576478132Y-437170059D03*
%TD*%
D22*
%TO.P,C39,1*%
%TO.N,GND*%
X698086472Y-420972559D03*
D23*
%TO.P,C39,2*%
%TO.N,Net-(D1-A)*%
X698086472Y-395972559D03*
%TD*%
D19*
%TO.P,CLR,1*%
%TO.N,Net-(C12-Pad2)*%
X505121472Y-412545059D03*
D20*
%TO.P,CLR,2*%
%TO.N,GND*%
X507661472Y-412545059D03*
%TO.P,CLR,3*%
%TO.N,Net-(U1A-G)*%
X510201472Y-412545059D03*
%TD*%
D10*
%TO.P,R22,1*%
%TO.N,BIAS*%
X679786472Y-384622559D03*
D11*
%TO.P,R22,2*%
%TO.N,Net-(C17-Pad1)*%
X654386472Y-384622559D03*
%TD*%
D18*
%TO.P,,*%
%TO.N,B+5*%
X749736472Y-405833272D03*
%TD*%
D12*
%TO.P,C12,1*%
%TO.N,Net-(C12-Pad1)*%
X526836472Y-405222559D03*
%TO.P,C12,2*%
%TO.N,Net-(C12-Pad2)*%
X519336472Y-405222559D03*
%TD*%
D21*
%TO.P,C7,1*%
%TO.N,Net-(U1B-K)*%
X526636472Y-432325171D03*
D10*
%TO.P,C7,2*%
%TO.N,GND*%
X526636472Y-429825171D03*
%TD*%
D13*
%TO.P,R84,1*%
%TO.N,Net-(C68-Pad1)*%
X729346472Y-398972559D03*
D14*
%TO.P,R84,2*%
%TO.N,B+4*%
X721726472Y-398972559D03*
%TD*%
D16*
%TO.P,D4,1,K*%
%TO.N,Net-(D4-K)*%
X742146472Y-430772559D03*
D17*
%TO.P,D4,2,A*%
%TO.N,GND*%
X734526472Y-430772559D03*
%TD*%
D18*
%TO.P,,*%
%TO.N,Net-(U1A-K)*%
X507928138Y-437170059D03*
%TD*%
D13*
%TO.P,R6,1*%
%TO.N,GND*%
X530586472Y-424660059D03*
D14*
%TO.P,R6,2*%
%TO.N,Net-(U1B-K)*%
X530586472Y-432280059D03*
%TD*%
D10*
%TO.P,R2,1*%
%TO.N,Net-(U1B-A)*%
X515511472Y-414795059D03*
D11*
%TO.P,R2,2*%
%TO.N,B+1*%
X515511472Y-389395059D03*
%TD*%
D18*
%TO.P,,*%
%TO.N,Net-(U2A-K)*%
X599328130Y-437170059D03*
%TD*%
D10*
%TO.P,R48,1*%
%TO.N,Net-(U5B-A)*%
X667786472Y-403542559D03*
D11*
%TO.P,R48,2*%
%TO.N,B+3*%
X667786472Y-388302559D03*
%TD*%
D13*
%TO.P,R35,1*%
%TO.N,GND*%
X507936472Y-420660059D03*
D14*
%TO.P,R35,2*%
%TO.N,Net-(U1A-K)*%
X507936472Y-428280059D03*
%TD*%
D10*
%TO.P,R49,1*%
%TO.N,Net-(C36-Pad2)*%
X673266472Y-388622559D03*
D11*
%TO.P,R49,2*%
%TO.N,BIAS*%
X688506472Y-388622559D03*
%TD*%
D18*
%TO.P,,*%
%TO.N,B+3*%
X584094798Y-437170059D03*
%TD*%
%TO.P,,*%
%TO.N,B+4*%
X672686472Y-373772559D03*
%TD*%
D13*
%TO.P,R32,1*%
%TO.N,Net-(C26-Pad2)*%
X551276472Y-420495059D03*
D14*
%TO.P,R32,2*%
%TO.N,Net-(K4-Pad8)*%
X558896472Y-420495059D03*
%TD*%
D13*
%TO.P,R15,1*%
%TO.N,GND*%
X609111472Y-417635059D03*
D14*
%TO.P,R15,2*%
%TO.N,Net-(U2B-K)*%
X609111472Y-425255059D03*
%TD*%
D21*
%TO.P,C29,1*%
%TO.N,Net-(U1A-K)*%
X504761472Y-433120059D03*
D10*
%TO.P,C29,2*%
%TO.N,Net-(C29-Pad2)*%
X504761472Y-430620059D03*
%TD*%
%TO.P,R43,1*%
%TO.N,Net-(U5B-G)*%
X674686472Y-427522559D03*
D11*
%TO.P,R43,2*%
%TO.N,Net-(R30-Pad1)*%
X661986472Y-427522559D03*
%TD*%
D10*
%TO.P,R9,1*%
%TO.N,Net-(U2B-G)*%
X603236472Y-420220059D03*
D11*
%TO.P,R9,2*%
%TO.N,Net-(C13-Pad2)*%
X577836472Y-420220059D03*
%TD*%
D24*
%TO.P,K1,1*%
%TO.N,+12V*%
X607011472Y-397020059D03*
D13*
%TO.P,K1,4*%
%TO.N,Net-(K1-Pad4)*%
X607011472Y-404640059D03*
%TO.P,K1,6*%
%TO.N,Net-(K1-Pad6)*%
X607011472Y-409720059D03*
%TO.P,K1,8*%
%TO.N,Net-(K1-Pad8)*%
X607011472Y-414800059D03*
%TO.P,K1,9*%
%TO.N,Net-(K1-Pad9)*%
X614631472Y-414800059D03*
%TO.P,K1,11*%
%TO.N,Net-(K1-Pad11)*%
X614631472Y-409720059D03*
%TO.P,K1,13*%
%TO.N,Net-(K1-Pad13)*%
X614631472Y-404640059D03*
%TO.P,K1,16*%
%TO.N,Net-(D19-A)*%
X614631472Y-397020059D03*
%TD*%
D18*
%TO.P,,*%
%TO.N,Net-(U1A-G)*%
X515544804Y-437170059D03*
%TD*%
D13*
%TO.P,R14,1*%
%TO.N,GND*%
X597536472Y-424660059D03*
D14*
%TO.P,R14,2*%
%TO.N,Net-(U2A-K)*%
X597536472Y-432280059D03*
%TD*%
D18*
%TO.P,,*%
%TO.N,Net-(U3B-G)*%
X568861466Y-437170059D03*
%TD*%
D19*
%TO.P,MASTER,1*%
%TO.N,Net-(C19-Pad1)*%
X685336472Y-438022559D03*
D20*
%TO.P,MASTER,2*%
%TO.N,Net-(C34-Pad1)*%
X687876472Y-438022559D03*
%TO.P,MASTER,3*%
%TO.N,GND*%
X690416472Y-438022559D03*
%TO.P,MASTER,4*%
X692956472Y-438022559D03*
%TD*%
D18*
%TO.P,,*%
%TO.N,Net-(U5A-K)*%
X655786472Y-437272559D03*
%TD*%
%TO.P,,*%
%TO.N,Net-(D2-K)*%
X749736472Y-439447559D03*
%TD*%
D12*
%TO.P,C3,1*%
%TO.N,Net-(U1B-A)*%
X515511472Y-417870059D03*
%TO.P,C3,2*%
%TO.N,Net-(C3-Pad2)*%
X525511472Y-417870059D03*
%TD*%
D10*
%TO.P,R80,1*%
%TO.N,B+5*%
X704536472Y-422352559D03*
D11*
%TO.P,R80,2*%
%TO.N,GND*%
X704536472Y-437592559D03*
%TD*%
D19*
%TO.P,CRUNCH,1*%
%TO.N,Net-(U2A-K)*%
X593706472Y-408445059D03*
D20*
%TO.P,CRUNCH,2*%
%TO.N,GND*%
X596246472Y-408445059D03*
%TO.P,CRUNCH,3*%
%TO.N,Net-(K1-Pad6)*%
X598786472Y-408445059D03*
%TD*%
D13*
%TO.P,R11,1*%
%TO.N,GND*%
X579361472Y-432580059D03*
D14*
%TO.P,R11,2*%
%TO.N,Net-(C13-Pad2)*%
X579361472Y-424960059D03*
%TD*%
D22*
%TO.P,C40,1*%
%TO.N,GND*%
X688336472Y-421022559D03*
D23*
%TO.P,C40,2*%
%TO.N,BIAS*%
X688336472Y-396022559D03*
%TD*%
D18*
%TO.P,,*%
%TO.N,Net-(U1B-K)*%
X530778136Y-437170059D03*
%TD*%
D13*
%TO.P,R88,1*%
%TO.N,GND*%
X729336472Y-408982559D03*
D14*
%TO.P,R88,2*%
%TO.N,Net-(C68-Pad1)*%
X729336472Y-401362559D03*
%TD*%
D25*
%TO.P,C59,1*%
%TO.N,B+5*%
X719611472Y-422342189D03*
D26*
%TO.P,C59,2*%
%TO.N,GND*%
X719611472Y-432342189D03*
%TD*%
D13*
%TO.P,R46,1*%
%TO.N,Net-(C32-Pad2)*%
X535401472Y-432595059D03*
D14*
%TO.P,R46,2*%
%TO.N,Net-(U3A-G)*%
X543021472Y-432595059D03*
%TD*%
D13*
%TO.P,R12,1*%
%TO.N,Net-(C12-Pad1)*%
X526946472Y-402422559D03*
D14*
%TO.P,R12,2*%
%TO.N,Net-(C12-Pad2)*%
X519326472Y-402422559D03*
%TD*%
D12*
%TO.P,C28,1*%
%TO.N,Net-(U5B-A)*%
X667686472Y-407672559D03*
%TO.P,C28,2*%
%TO.N,Net-(U5A-A)*%
X660186472Y-407672559D03*
%TD*%
D16*
%TO.P,D17,1,K*%
%TO.N,+12V*%
X572026472Y-394277559D03*
D17*
%TO.P,D17,2,A*%
%TO.N,Net-(D17-A)*%
X579646472Y-394277559D03*
%TD*%
D19*
%TO.P,LEDs,1*%
%TO.N,Net-(K2-Pad6)*%
X624336472Y-406022559D03*
D20*
%TO.P,LEDs,2*%
%TO.N,Net-(K1-Pad11)*%
X624336472Y-408562559D03*
%TO.P,LEDs,3*%
%TO.N,Net-(K1-Pad9)*%
X624336472Y-411102559D03*
%TO.P,LEDs,4*%
%TO.N,Net-(R93-Pad2)*%
X624336472Y-413642559D03*
%TD*%
D18*
%TO.P,,*%
%TO.N,Net-(U3A-A)*%
X538394802Y-437170059D03*
%TD*%
D24*
%TO.P,K2,1*%
%TO.N,+12V*%
X628961472Y-397000059D03*
D13*
%TO.P,K2,4*%
X628961472Y-404620059D03*
%TO.P,K2,6*%
%TO.N,Net-(K2-Pad6)*%
X628961472Y-409700059D03*
%TO.P,K2,8*%
%TO.N,Net-(K1-Pad13)*%
X628961472Y-414780059D03*
%TO.P,K2,9*%
%TO.N,Net-(K1-Pad4)*%
X636581472Y-414780059D03*
%TO.P,K2,11*%
%TO.N,Net-(K2-Pad11)*%
X636581472Y-409700059D03*
%TO.P,K2,13*%
%TO.N,Net-(K2-Pad13)*%
X636581472Y-404620059D03*
%TO.P,K2,16*%
%TO.N,Net-(D17-A)*%
X636581472Y-397000059D03*
%TD*%
D18*
%TO.P,,*%
%TO.N,Net-(U5B-A)*%
X665286472Y-437372559D03*
%TD*%
D15*
%TO.P,C10,1*%
%TO.N,B+2*%
X558786472Y-385695059D03*
%TO.P,C10,2*%
%TO.N,Net-(U3B-A)*%
X558786472Y-408195059D03*
%TD*%
D16*
%TO.P,D1,1,K*%
%TO.N,Net-(D1-K)*%
X726336472Y-382272559D03*
D17*
%TO.P,D1,2,A*%
%TO.N,Net-(D1-A)*%
X718716472Y-382272559D03*
%TD*%
D24*
%TO.P,K4,1*%
%TO.N,+12V*%
X545686472Y-397695059D03*
D13*
%TO.P,K4,4*%
%TO.N,Net-(U3B-G)*%
X545686472Y-405315059D03*
%TO.P,K4,6*%
%TO.N,Net-(C16-Pad2)*%
X545686472Y-410395059D03*
%TO.P,K4,8*%
%TO.N,Net-(K4-Pad8)*%
X545686472Y-415475059D03*
%TO.P,K4,9*%
X553306472Y-415475059D03*
%TO.P,K4,11*%
%TO.N,unconnected-(K4-Pad11)*%
X553306472Y-410395059D03*
%TO.P,K4,13*%
%TO.N,GND*%
X553306472Y-405315059D03*
%TO.P,K4,16*%
%TO.N,Net-(D19-A)*%
X553306472Y-397695059D03*
%TD*%
D18*
%TO.P,,*%
%TO.N,Net-(U1B-A)*%
X523161470Y-437170059D03*
%TD*%
D19*
%TO.P,BACK PLATE,1*%
%TO.N,Net-(D17-A)*%
X640311472Y-395772559D03*
D20*
%TO.P,BACK PLATE,2*%
%TO.N,Net-(D19-A)*%
X640311472Y-398312559D03*
%TO.P,BACK PLATE,3*%
%TO.N,Net-(K2-Pad13)*%
X640311472Y-400852559D03*
%TO.P,BACK PLATE,4*%
%TO.N,+12V*%
X640311472Y-403392559D03*
%TD*%
D13*
%TO.P,R93,1*%
%TO.N,GND*%
X624336472Y-424272559D03*
D14*
%TO.P,R93,2*%
%TO.N,Net-(R93-Pad2)*%
X624336472Y-416652559D03*
%TD*%
D16*
%TO.P,D18,1,K*%
%TO.N,+12V*%
X629026472Y-393772559D03*
D17*
%TO.P,D18,2,A*%
%TO.N,Net-(D17-A)*%
X636646472Y-393772559D03*
%TD*%
D10*
%TO.P,R61,1*%
%TO.N,B+4*%
X675286472Y-380822559D03*
D11*
%TO.P,R61,2*%
%TO.N,B+3*%
X649886472Y-380822559D03*
%TD*%
D18*
%TO.P,,*%
%TO.N,Net-(C68-Pad1)*%
X749736472Y-397429701D03*
%TD*%
%TO.P,,*%
%TO.N,Net-(U2B-K)*%
X614561472Y-437170059D03*
%TD*%
%TO.P,,*%
%TO.N,Net-(U2B-G)*%
X606944796Y-437170059D03*
%TD*%
D21*
%TO.P,C35,1*%
%TO.N,Net-(U3A-K)*%
X557464123Y-427195059D03*
D10*
%TO.P,C35,2*%
%TO.N,GND*%
X553964123Y-427195059D03*
%TD*%
D16*
%TO.P,D19,1,K*%
%TO.N,+12V*%
X545776472Y-394522559D03*
D17*
%TO.P,D19,2,A*%
%TO.N,Net-(D19-A)*%
X553396472Y-394522559D03*
%TD*%
D10*
%TO.P,R54,1*%
%TO.N,BIAS*%
X688336472Y-392272559D03*
D11*
%TO.P,R54,2*%
%TO.N,Net-(D1-A)*%
X703576472Y-392272559D03*
%TD*%
D19*
%TO.P,LEAD,1*%
%TO.N,Net-(U2A-K)*%
X593756472Y-416695059D03*
D20*
%TO.P,LEAD,2*%
%TO.N,GND*%
X596296472Y-416695059D03*
%TO.P,LEAD,3*%
%TO.N,Net-(K1-Pad8)*%
X598836472Y-416695059D03*
%TD*%
D22*
%TO.P,C61,1*%
%TO.N,B+3*%
X600336472Y-380522559D03*
D15*
%TO.P,C61,2*%
%TO.N,GND*%
X600336472Y-388022559D03*
%TD*%
D18*
%TO.P,,*%
%TO.N,Net-(U1A-A)*%
X500311472Y-437170059D03*
%TD*%
D12*
%TO.P,C30,1*%
%TO.N,Net-(U1A-K)*%
X511061472Y-433220059D03*
%TO.P,C30,2*%
%TO.N,GND*%
X511061472Y-423220059D03*
%TD*%
D18*
%TO.P,,*%
%TO.N,Net-(U5A-A)*%
X638286472Y-437072559D03*
%TD*%
D10*
%TO.P,R30,1*%
%TO.N,Net-(R30-Pad1)*%
X652811472Y-416827559D03*
D11*
%TO.P,R30,2*%
%TO.N,Net-(U5A-G)*%
X652811472Y-432067559D03*
%TD*%
D10*
%TO.P,R33,1*%
%TO.N,Net-(C34-Pad1)*%
X674606472Y-412722559D03*
D11*
%TO.P,R33,2*%
%TO.N,Net-(R30-Pad1)*%
X659366472Y-412722559D03*
%TD*%
D18*
%TO.P,,*%
%TO.N,Net-(D4-K)*%
X749736472Y-431043985D03*
%TD*%
D15*
%TO.P,C36,1*%
%TO.N,Net-(U5B-A)*%
X673436472Y-407472559D03*
%TO.P,C36,2*%
%TO.N,Net-(C36-Pad2)*%
X673436472Y-392472559D03*
%TD*%
D10*
%TO.P,R42,1*%
%TO.N,Net-(R42-Pad1)*%
X709716472Y-386872559D03*
D11*
%TO.P,R42,2*%
%TO.N,Net-(D1-A)*%
X724956472Y-386872559D03*
%TD*%
D13*
%TO.P,R47,1*%
%TO.N,GND*%
X504711472Y-420685059D03*
D14*
%TO.P,R47,2*%
%TO.N,Net-(C29-Pad2)*%
X504711472Y-428305059D03*
%TD*%
D16*
%TO.P,D20,1,K*%
%TO.N,+12V*%
X607026472Y-393887559D03*
D17*
%TO.P,D20,2,A*%
%TO.N,Net-(D19-A)*%
X614646472Y-393887559D03*
%TD*%
D13*
%TO.P,R45,1*%
%TO.N,Net-(C12-Pad2)*%
X519301472Y-408022559D03*
D14*
%TO.P,R45,2*%
%TO.N,Net-(C25-Pad2)*%
X526921472Y-408022559D03*
%TD*%
D22*
%TO.P,C41,1*%
%TO.N,B+1*%
X504336472Y-385522559D03*
D15*
%TO.P,C41,2*%
%TO.N,GND*%
X504336472Y-393022559D03*
%TD*%
D27*
%TO.P,C68,1*%
%TO.N,Net-(C68-Pad1)*%
X737336472Y-401372559D03*
D12*
%TO.P,C68,2*%
%TO.N,GND*%
X737336472Y-406372559D03*
%TD*%
D21*
%TO.P,C76,1*%
%TO.N,+12V*%
X642333821Y-409647559D03*
D10*
%TO.P,C76,2*%
%TO.N,GND*%
X645833821Y-409647559D03*
%TD*%
D18*
%TO.P,,*%
%TO.N,Net-(C17-Pad1)*%
X653261472Y-373772559D03*
%TD*%
D12*
%TO.P,C19,1*%
%TO.N,Net-(C19-Pad1)*%
X669081472Y-419772559D03*
%TO.P,C19,2*%
%TO.N,Net-(U5A-G)*%
X661581472Y-419772559D03*
%TD*%
D10*
%TO.P,R27,1*%
%TO.N,Net-(U3A-A)*%
X538411472Y-412972559D03*
D11*
%TO.P,R27,2*%
%TO.N,B+2*%
X538411472Y-387572559D03*
%TD*%
D19*
%TO.P,CLR VOL,1*%
%TO.N,Net-(K2-Pad11)*%
X521931472Y-422945059D03*
D20*
%TO.P,CLR VOL,2*%
%TO.N,GND*%
X524471472Y-422945059D03*
%TO.P,CLR VOL,3*%
%TO.N,Net-(C3-Pad2)*%
X527011472Y-422945059D03*
%TD*%
D13*
%TO.P,R50,1*%
%TO.N,GND*%
X542201472Y-423745059D03*
D14*
%TO.P,R50,2*%
%TO.N,Net-(K4-Pad8)*%
X549821472Y-423745059D03*
%TD*%
D19*
%TO.P,LD GAIN,1*%
%TO.N,Net-(C25-Pad2)*%
X530361472Y-417295059D03*
D20*
%TO.P,LD GAIN,2*%
%TO.N,GND*%
X532901472Y-417295059D03*
%TO.P,LD GAIN,3*%
%TO.N,Net-(C32-Pad2)*%
X535441472Y-417295059D03*
%TD*%
D24*
%TO.P,K3,1*%
%TO.N,+12V*%
X572061472Y-397370059D03*
D13*
%TO.P,K3,4*%
%TO.N,GND*%
X572061472Y-404990059D03*
%TO.P,K3,6*%
%TO.N,unconnected-(K3-Pad6)*%
X572061472Y-410070059D03*
%TO.P,K3,8*%
%TO.N,Net-(C29-Pad2)*%
X572061472Y-415150059D03*
%TO.P,K3,9*%
%TO.N,Net-(U3B-G)*%
X579681472Y-415150059D03*
%TO.P,K3,11*%
%TO.N,unconnected-(K3-Pad11)*%
X579681472Y-410070059D03*
%TO.P,K3,13*%
%TO.N,GND*%
X579681472Y-404990059D03*
%TO.P,K3,16*%
%TO.N,Net-(D17-A)*%
X579681472Y-397370059D03*
%TD*%
D22*
%TO.P,C60,1*%
%TO.N,B+4*%
X712636472Y-400694779D03*
D15*
%TO.P,C60,2*%
%TO.N,GND*%
X712636472Y-408194779D03*
%TD*%
D18*
%TO.P,,*%
%TO.N,Net-(D3-K)*%
X749736472Y-422640414D03*
%TD*%
%TO.P,,*%
%TO.N,Net-(U3A-K)*%
X553628134Y-437170059D03*
%TD*%
%TO.P,,*%
%TO.N,Net-(D1-K)*%
X749736472Y-380622559D03*
%TD*%
D10*
%TO.P,R10,1*%
%TO.N,Net-(U1A-A)*%
X493186472Y-414145059D03*
D11*
%TO.P,R10,2*%
%TO.N,B+1*%
X493186472Y-388745059D03*
%TD*%
D18*
%TO.P,,*%
%TO.N,Net-(R55-Pad1)*%
X705836472Y-373772559D03*
%TD*%
D10*
%TO.P,R55,1*%
%TO.N,Net-(R55-Pad1)*%
X703586472Y-385022559D03*
D11*
%TO.P,R55,2*%
%TO.N,BIAS*%
X688346472Y-385022559D03*
%TD*%
D15*
%TO.P,C17,1*%
%TO.N,Net-(C17-Pad1)*%
X654386472Y-388372559D03*
%TO.P,C17,2*%
%TO.N,Net-(U5A-A)*%
X654386472Y-403372559D03*
%TD*%
D10*
%TO.P,R8,1*%
%TO.N,Net-(U3B-A)*%
X564486472Y-411145059D03*
D11*
%TO.P,R8,2*%
%TO.N,B+2*%
X564486472Y-385745059D03*
%TD*%
D10*
%TO.P,R5,1*%
%TO.N,Net-(U2A-G)*%
X588936472Y-411095059D03*
D11*
%TO.P,R5,2*%
%TO.N,B+3*%
X588936472Y-385695059D03*
%TD*%
D28*
%TO.N,Net-(C29-Pad2)*%
X535536472Y-402222559D03*
X535536472Y-396472559D03*
%TO.N,B+3*%
X585236472Y-385695059D03*
X585236472Y-411072559D03*
%TD*%
D29*
%TO.N,Net-(C29-Pad2)*%
X535536472Y-396472559D02*
X535536472Y-402222559D01*
%TO.N,B+3*%
X585236472Y-411072559D02*
X585236472Y-385695059D01*
%TD*%
M02*
