M48
; DRILL file {KiCad 9.0.0} date 2025-04-19T09:28:40+0500
; FORMAT={-:-/ absolute / metric / decimal}
; #@! TF.CreationDate,2025-04-19T09:28:40+05:00
; #@! TF.GenerationSoftware,Kicad,Pcbnew,9.0.0
; #@! TF.FileFunction,Plated,1,2,PTH
FMAT,2
METRIC
; #@! TA.AperFunction,Plated,PTH,ViaDrill
T1C0.400
; #@! TA.AperFunction,Plated,PTH,ComponentDrill
T2C0.700
; #@! TA.AperFunction,Plated,PTH,ComponentDrill
T3C0.800
; #@! TA.AperFunction,Plated,PTH,ComponentDrill
T4C0.900
; #@! TA.AperFunction,Plated,PTH,ComponentDrill
T5C1.000
; #@! TA.AperFunction,Plated,PTH,ComponentDrill
T6C1.200
; #@! TA.AperFunction,Plated,PTH,ComponentDrill
T7C1.400
; #@! TA.AperFunction,Plated,PTH,ComponentDrill
T8C2.000
%
G90
G05
T1
X535.536Y-396.473
X535.536Y-402.223
X585.236Y-385.695
X585.236Y-411.073
T2
X504.711Y-420.685
X504.711Y-428.305
X507.936Y-420.66
X507.936Y-428.28
X519.301Y-408.023
X519.326Y-402.423
X526.921Y-408.023
X526.946Y-402.423
X530.586Y-424.66
X530.586Y-432.28
X535.401Y-432.595
X542.201Y-423.745
X543.021Y-432.595
X545.686Y-397.695
X545.686Y-405.315
X545.686Y-410.395
X545.686Y-415.475
X549.816Y-432.62
X549.821Y-423.745
X551.276Y-420.495
X553.306Y-397.695
X553.306Y-405.315
X553.306Y-410.395
X553.306Y-415.475
X557.436Y-432.62
X558.896Y-420.495
X571.336Y-424.96
X571.336Y-432.58
X572.061Y-397.37
X572.061Y-404.99
X572.061Y-410.07
X572.061Y-415.15
X576.511Y-424.985
X576.511Y-432.605
X579.361Y-424.96
X579.361Y-432.58
X579.681Y-397.37
X579.681Y-404.99
X579.681Y-410.07
X579.681Y-415.15
X597.536Y-424.66
X597.536Y-432.28
X607.011Y-397.02
X607.011Y-404.64
X607.011Y-409.72
X607.011Y-414.8
X609.111Y-417.635
X609.111Y-425.255
X614.631Y-397.02
X614.631Y-404.64
X614.631Y-409.72
X614.631Y-414.8
X624.336Y-416.653
X624.336Y-424.273
X628.961Y-397.0
X628.961Y-404.62
X628.961Y-409.7
X628.961Y-414.78
X636.581Y-397.0
X636.581Y-404.62
X636.581Y-409.7
X636.581Y-414.78
X721.726Y-398.973
X729.336Y-401.363
X729.336Y-408.983
X729.346Y-398.973
T3
X493.186Y-388.745
X493.186Y-414.145
X504.761Y-430.62
X504.761Y-433.12
X515.511Y-389.395
X515.511Y-414.795
X526.636Y-429.825
X526.636Y-432.325
X538.411Y-387.573
X538.411Y-412.973
X553.964Y-427.195
X557.464Y-427.195
X564.486Y-385.745
X564.486Y-411.145
X567.341Y-381.195
X567.341Y-385.695
X577.836Y-420.22
X582.581Y-381.195
X582.581Y-385.695
X588.936Y-385.695
X588.936Y-411.095
X603.236Y-420.22
X616.036Y-424.073
X616.036Y-427.573
X642.334Y-409.648
X645.834Y-409.648
X649.886Y-380.823
X652.811Y-416.828
X652.811Y-432.068
X654.386Y-384.623
X657.986Y-416.853
X657.986Y-432.093
X659.366Y-412.723
X659.986Y-388.143
X659.986Y-403.383
X661.986Y-427.523
X667.786Y-388.303
X667.786Y-403.543
X673.266Y-388.623
X674.606Y-412.723
X674.686Y-427.523
X675.286Y-380.823
X679.786Y-384.623
X688.336Y-392.273
X688.346Y-385.023
X688.506Y-388.623
X703.576Y-392.273
X703.586Y-385.023
X704.536Y-422.353
X704.536Y-437.593
X709.716Y-386.873
X724.956Y-386.873
T4
X545.776Y-394.523
X553.396Y-394.523
X572.026Y-394.278
X579.646Y-394.278
X607.026Y-393.888
X614.646Y-393.888
X629.026Y-393.773
X636.646Y-393.773
X718.716Y-382.273
X726.336Y-382.273
X734.526Y-430.773
X734.526Y-434.273
X738.026Y-427.198
X738.026Y-438.098
X742.146Y-430.773
X742.146Y-434.273
X745.646Y-427.198
X745.646Y-438.098
T5
X497.386Y-417.67
X505.121Y-412.545
X507.386Y-417.67
X507.661Y-412.545
X510.201Y-412.545
X511.061Y-423.22
X511.061Y-433.22
X515.511Y-417.87
X519.311Y-410.848
X519.336Y-405.223
X521.931Y-422.945
X524.471Y-422.945
X525.511Y-417.87
X526.811Y-410.848
X526.836Y-405.223
X527.011Y-422.945
X530.296Y-406.82
X530.361Y-417.295
X532.836Y-406.82
X532.901Y-417.295
X535.376Y-406.82
X535.441Y-417.295
X538.536Y-420.495
X548.536Y-420.495
X564.161Y-420.245
X574.161Y-420.245
X593.706Y-408.445
X593.756Y-416.695
X596.246Y-408.445
X596.296Y-416.695
X598.786Y-408.445
X598.836Y-416.695
X624.336Y-406.023
X624.336Y-408.563
X624.336Y-411.103
X624.336Y-413.643
X640.311Y-395.773
X640.311Y-398.313
X640.311Y-400.853
X640.311Y-403.393
X660.186Y-407.673
X661.581Y-419.773
X667.686Y-407.673
X669.081Y-419.773
X685.336Y-438.023
X687.876Y-438.023
X690.416Y-438.023
X692.956Y-438.023
X737.336Y-401.373
X737.336Y-406.373
T6
X504.336Y-385.523
X504.336Y-393.023
X527.136Y-385.523
X527.136Y-393.023
X558.786Y-385.695
X558.786Y-408.195
X600.336Y-380.523
X600.336Y-388.023
X654.386Y-388.373
X654.386Y-403.373
X673.436Y-392.473
X673.436Y-407.473
X679.736Y-417.323
X679.736Y-432.323
X688.336Y-396.023
X688.336Y-421.023
X698.086Y-395.973
X698.086Y-420.973
X712.636Y-400.695
X712.636Y-408.195
T7
X500.311Y-437.17
X507.928Y-437.17
X515.545Y-437.17
X523.161Y-437.17
X530.778Y-437.17
X538.395Y-437.17
X546.011Y-437.17
X553.628Y-437.17
X561.245Y-437.17
X568.861Y-437.17
X576.478Y-437.17
X584.095Y-437.17
X591.711Y-437.17
X599.328Y-437.17
X606.945Y-437.17
X614.561Y-437.17
X638.286Y-437.073
X646.806Y-437.073
X653.261Y-373.773
X655.786Y-437.273
X662.611Y-373.773
X665.286Y-437.373
X672.686Y-373.773
X674.786Y-437.773
X705.836Y-373.773
X715.036Y-373.773
X749.736Y-380.623
X749.736Y-389.026
X749.736Y-397.43
X749.736Y-405.833
X749.736Y-414.237
X749.736Y-422.64
X749.736Y-431.044
X749.736Y-439.448
T8
X719.611Y-422.342
X719.611Y-432.342
M30
