%TF.GenerationSoftware,KiCad,Pcbnew,9.0.0*%
%TF.CreationDate,2025-04-19T09:25:04+05:00*%
%TF.ProjectId,SRT,5352542e-6b69-4636-9164-5f7063625858,rev?*%
%TF.SameCoordinates,Original*%
%TF.FileFunction,Copper,L2,Bot*%
%TF.FilePolarity,Positive*%
%FSLAX46Y46*%
G04 Gerber Fmt 4.6, Leading zero omitted, Abs format (unit mm)*
G04 Created by KiCad (PCBNEW 9.0.0) date 2025-04-19 09:25:04*
%MOMM*%
%LPD*%
G01*
G04 APERTURE LIST*
%TA.AperFunction,ComponentPad*%
%ADD10R,1.700000X1.700000*%
%TD*%
%TA.AperFunction,ComponentPad*%
%ADD11O,1.700000X1.700000*%
%TD*%
%TA.AperFunction,ComponentPad*%
%ADD12C,2.340000*%
%TD*%
%TA.AperFunction,ComponentPad*%
%ADD13C,1.600000*%
%TD*%
%TA.AperFunction,ComponentPad*%
%ADD14C,2.000000*%
%TD*%
%TA.AperFunction,ComponentPad*%
%ADD15C,1.400000*%
%TD*%
%TA.AperFunction,ComponentPad*%
%ADD16O,1.400000X1.400000*%
%TD*%
%TA.AperFunction,ViaPad*%
%ADD17C,0.800000*%
%TD*%
%TA.AperFunction,Conductor*%
%ADD18C,1.000000*%
%TD*%
G04 APERTURE END LIST*
D10*
%TO.P,LD GAIN,1*%
%TO.N,Net-(C32-Pad2)*%
X699836472Y-593615059D03*
D11*
%TO.P,LD GAIN,2*%
%TO.N,GND*%
X699836472Y-596155059D03*
%TO.P,LD GAIN,3*%
%TO.N,Net-(C25-Pad2)*%
X699836472Y-598695059D03*
%TD*%
D12*
%TO.P,RV16,1,1*%
%TO.N,GND*%
X709896472Y-612972559D03*
%TO.P,RV16,2,2*%
%TO.N,Net-(C32-Pad2)*%
X704896472Y-612972559D03*
%TO.P,RV16,3,3*%
%TO.N,Net-(C25-Pad2)*%
X699896472Y-612972559D03*
%TD*%
%TO.P,RV13,1,1*%
%TO.N,Net-(RV13-Pad1)*%
X684896472Y-612972559D03*
%TO.P,RV13,2,2*%
%TO.N,Net-(C27-Pad2)*%
X679896472Y-612972559D03*
%TO.P,RV13,3,3*%
X674896472Y-612972559D03*
%TD*%
D13*
%TO.P,C21,1*%
%TO.N,Net-(U2A-K)*%
X624916472Y-594342559D03*
%TO.P,C21,2*%
%TO.N,Net-(C21-Pad2)*%
X624916472Y-599342559D03*
%TD*%
D14*
%TO.P,C27,1*%
%TO.N,Net-(C27-Pad1)*%
X641941472Y-594292559D03*
%TO.P,C27,2*%
%TO.N,Net-(C27-Pad2)*%
X641941472Y-604292559D03*
%TD*%
D12*
%TO.P,RV14,1,1*%
%TO.N,GND*%
X609896472Y-612972559D03*
%TO.P,RV14,2,2*%
%TO.N,Net-(K1-Pad8)*%
X604896472Y-612972559D03*
%TO.P,RV14,3,3*%
%TO.N,Net-(RV12-Pad2)*%
X599896472Y-612972559D03*
%TD*%
%TO.P,RV17,1,1*%
%TO.N,GND*%
X659896472Y-612972559D03*
%TO.P,RV17,2,2*%
%TO.N,Net-(C33-Pad2)*%
X654896472Y-612972559D03*
%TO.P,RV17,3,3*%
%TO.N,Net-(RV13-Pad1)*%
X649896472Y-612972559D03*
%TD*%
D10*
%TO.P,LEAD,1*%
%TO.N,Net-(U2A-K)*%
X617896472Y-594280059D03*
D11*
%TO.P,LEAD,2*%
%TO.N,GND*%
X617896472Y-596820059D03*
%TO.P,LEAD,3*%
%TO.N,Net-(K1-Pad8)*%
X617896472Y-599360059D03*
%TD*%
D12*
%TO.P,RV12,1,1*%
%TO.N,Net-(C27-Pad2)*%
X634896472Y-612972559D03*
%TO.P,RV12,2,2*%
%TO.N,Net-(RV12-Pad2)*%
X629896472Y-612972559D03*
%TO.P,RV12,3,3*%
%TO.N,Net-(C21-Pad2)*%
X624896472Y-612972559D03*
%TD*%
D15*
%TO.P,R25,1*%
%TO.N,Net-(C27-Pad1)*%
X636476472Y-594285059D03*
D16*
%TO.P,R25,2*%
%TO.N,Net-(U2A-K)*%
X628856472Y-594285059D03*
%TD*%
D14*
%TO.P,C33,1*%
%TO.N,Net-(C27-Pad1)*%
X654866472Y-594267559D03*
%TO.P,C33,2*%
%TO.N,Net-(C33-Pad2)*%
X654866472Y-604267559D03*
%TD*%
%TO.P,C32,1*%
%TO.N,Net-(C25-Pad2)*%
X693666472Y-601045059D03*
%TO.P,C32,2*%
%TO.N,Net-(C32-Pad2)*%
X693666472Y-593545059D03*
%TD*%
D17*
%TO.N,Net-(C27-Pad2)*%
X674896472Y-604625059D03*
X674896472Y-598905059D03*
%TO.N,Net-(RV12-Pad2)*%
X621906472Y-605585059D03*
X599896472Y-605555059D03*
%TD*%
D18*
%TO.N,Net-(RV12-Pad2)*%
X599896472Y-605555059D02*
X621876472Y-605555059D01*
X621876472Y-605555059D02*
X621906472Y-605585059D01*
%TO.N,Net-(C27-Pad2)*%
X674896472Y-604625059D02*
X674896472Y-598905059D01*
%TD*%
M02*
