M48
; DRILL file {KiCad 9.0.0} date 2025-04-19T09:25:06+0500
; FORMAT={-:-/ absolute / metric / decimal}
; #@! TF.CreationDate,2025-04-19T09:25:06+05:00
; #@! TF.GenerationSoftware,Kicad,Pcbnew,9.0.0
; #@! TF.FileFunction,Plated,1,2,PTH
FMAT,2
METRIC
; #@! TA.AperFunction,Plated,PTH,ViaDrill
T1C0.400
; #@! TA.AperFunction,Plated,PTH,ComponentDrill
T2C0.700
; #@! TA.AperFunction,Plated,PTH,ComponentDrill
T3C0.800
; #@! TA.AperFunction,Plated,PTH,ComponentDrill
T4C1.000
; #@! TA.AperFunction,Plated,PTH,ComponentDrill
T5C1.300
%
G90
G05
T1
X599.896Y-605.555
X621.906Y-605.585
X674.896Y-598.905
X674.896Y-604.625
T2
X628.856Y-594.285
X636.476Y-594.285
T3
X624.916Y-594.343
X624.916Y-599.343
T4
X617.896Y-594.28
X617.896Y-596.82
X617.896Y-599.36
X641.941Y-594.293
X641.941Y-604.293
X654.866Y-594.268
X654.866Y-604.268
X693.666Y-593.545
X693.666Y-601.045
X699.836Y-593.615
X699.836Y-596.155
X699.836Y-598.695
T5
X599.896Y-612.973
X604.896Y-612.973
X609.896Y-612.973
X624.896Y-612.973
X629.896Y-612.973
X634.896Y-612.973
X649.896Y-612.973
X654.896Y-612.973
X659.896Y-612.973
X674.896Y-612.973
X679.896Y-612.973
X684.896Y-612.973
X699.896Y-612.973
X704.896Y-612.973
X709.896Y-612.973
M30
