%TF.GenerationSoftware,KiCad,Pcbnew,9.0.0*%
%TF.CreationDate,2025-04-19T09:25:04+05:00*%
%TF.ProjectId,SRT,5352542e-6b69-4636-9164-5f7063625858,rev?*%
%TF.SameCoordinates,Original*%
%TF.FileFunction,Copper,L1,Top*%
%TF.FilePolarity,Positive*%
%FSLAX46Y46*%
G04 Gerber Fmt 4.6, Leading zero omitted, Abs format (unit mm)*
G04 Created by KiCad (PCBNEW 9.0.0) date 2025-04-19 09:25:04*
%MOMM*%
%LPD*%
G01*
G04 APERTURE LIST*
%TA.AperFunction,ComponentPad*%
%ADD10R,1.700000X1.700000*%
%TD*%
%TA.AperFunction,ComponentPad*%
%ADD11O,1.700000X1.700000*%
%TD*%
%TA.AperFunction,ComponentPad*%
%ADD12C,2.340000*%
%TD*%
%TA.AperFunction,ComponentPad*%
%ADD13C,1.600000*%
%TD*%
%TA.AperFunction,ComponentPad*%
%ADD14C,2.000000*%
%TD*%
%TA.AperFunction,ComponentPad*%
%ADD15C,1.400000*%
%TD*%
%TA.AperFunction,ComponentPad*%
%ADD16O,1.400000X1.400000*%
%TD*%
%TA.AperFunction,ViaPad*%
%ADD17C,0.800000*%
%TD*%
%TA.AperFunction,Conductor*%
%ADD18C,1.000000*%
%TD*%
%TA.AperFunction,Conductor*%
%ADD19C,2.000000*%
%TD*%
G04 APERTURE END LIST*
D10*
%TO.P,LD GAIN,1*%
%TO.N,Net-(C32-Pad2)*%
X699836472Y-593615059D03*
D11*
%TO.P,LD GAIN,2*%
%TO.N,GND*%
X699836472Y-596155059D03*
%TO.P,LD GAIN,3*%
%TO.N,Net-(C25-Pad2)*%
X699836472Y-598695059D03*
%TD*%
D12*
%TO.P,RV16,1,1*%
%TO.N,GND*%
X709896472Y-612972559D03*
%TO.P,RV16,2,2*%
%TO.N,Net-(C32-Pad2)*%
X704896472Y-612972559D03*
%TO.P,RV16,3,3*%
%TO.N,Net-(C25-Pad2)*%
X699896472Y-612972559D03*
%TD*%
%TO.P,RV13,1,1*%
%TO.N,Net-(RV13-Pad1)*%
X684896472Y-612972559D03*
%TO.P,RV13,2,2*%
%TO.N,Net-(C27-Pad2)*%
X679896472Y-612972559D03*
%TO.P,RV13,3,3*%
X674896472Y-612972559D03*
%TD*%
D13*
%TO.P,C21,1*%
%TO.N,Net-(U2A-K)*%
X624916472Y-594342559D03*
%TO.P,C21,2*%
%TO.N,Net-(C21-Pad2)*%
X624916472Y-599342559D03*
%TD*%
D14*
%TO.P,C27,1*%
%TO.N,Net-(C27-Pad1)*%
X641941472Y-594292559D03*
%TO.P,C27,2*%
%TO.N,Net-(C27-Pad2)*%
X641941472Y-604292559D03*
%TD*%
D12*
%TO.P,RV14,1,1*%
%TO.N,GND*%
X609896472Y-612972559D03*
%TO.P,RV14,2,2*%
%TO.N,Net-(K1-Pad8)*%
X604896472Y-612972559D03*
%TO.P,RV14,3,3*%
%TO.N,Net-(RV12-Pad2)*%
X599896472Y-612972559D03*
%TD*%
%TO.P,RV17,1,1*%
%TO.N,GND*%
X659896472Y-612972559D03*
%TO.P,RV17,2,2*%
%TO.N,Net-(C33-Pad2)*%
X654896472Y-612972559D03*
%TO.P,RV17,3,3*%
%TO.N,Net-(RV13-Pad1)*%
X649896472Y-612972559D03*
%TD*%
D10*
%TO.P,LEAD,1*%
%TO.N,Net-(U2A-K)*%
X617896472Y-594280059D03*
D11*
%TO.P,LEAD,2*%
%TO.N,GND*%
X617896472Y-596820059D03*
%TO.P,LEAD,3*%
%TO.N,Net-(K1-Pad8)*%
X617896472Y-599360059D03*
%TD*%
D12*
%TO.P,RV12,1,1*%
%TO.N,Net-(C27-Pad2)*%
X634896472Y-612972559D03*
%TO.P,RV12,2,2*%
%TO.N,Net-(RV12-Pad2)*%
X629896472Y-612972559D03*
%TO.P,RV12,3,3*%
%TO.N,Net-(C21-Pad2)*%
X624896472Y-612972559D03*
%TD*%
D15*
%TO.P,R25,1*%
%TO.N,Net-(C27-Pad1)*%
X636476472Y-594285059D03*
D16*
%TO.P,R25,2*%
%TO.N,Net-(U2A-K)*%
X628856472Y-594285059D03*
%TD*%
D14*
%TO.P,C33,1*%
%TO.N,Net-(C27-Pad1)*%
X654866472Y-594267559D03*
%TO.P,C33,2*%
%TO.N,Net-(C33-Pad2)*%
X654866472Y-604267559D03*
%TD*%
%TO.P,C32,1*%
%TO.N,Net-(C25-Pad2)*%
X693666472Y-601045059D03*
%TO.P,C32,2*%
%TO.N,Net-(C32-Pad2)*%
X693666472Y-593545059D03*
%TD*%
D17*
%TO.N,Net-(C27-Pad2)*%
X674896472Y-604625059D03*
X674896472Y-598905059D03*
%TO.N,Net-(RV12-Pad2)*%
X621906472Y-605585059D03*
X599896472Y-605555059D03*
%TD*%
D18*
%TO.N,GND*%
X691186472Y-595575059D02*
X691186472Y-591995059D01*
X696286472Y-597025059D02*
X692636472Y-597025059D01*
X692636472Y-597025059D02*
X691186472Y-595575059D01*
%TO.N,Net-(K1-Pad8)*%
X604896472Y-605565059D02*
X604896472Y-612972559D01*
X617896472Y-599360059D02*
X611101472Y-599360059D01*
X611101472Y-599360059D02*
X604896472Y-605565059D01*
%TO.N,Net-(C27-Pad2)*%
X674896472Y-598905059D02*
X647276472Y-598905059D01*
X641896472Y-604285059D02*
X641896472Y-607935059D01*
%TO.N,Net-(RV12-Pad2)*%
X629896472Y-601365059D02*
X629896472Y-612972559D01*
%TO.N,Net-(RV13-Pad1)*%
X684896472Y-612972559D02*
X684896472Y-605875059D01*
%TO.N,Net-(C27-Pad2)*%
X674896472Y-612972559D02*
X679896472Y-612972559D01*
%TO.N,Net-(RV12-Pad2)*%
X599896472Y-612972559D02*
X599896472Y-605555059D01*
%TO.N,Net-(C27-Pad2)*%
X641896472Y-607935059D02*
X636858972Y-612972559D01*
X674896472Y-612972559D02*
X674896472Y-604625059D01*
%TO.N,Net-(RV12-Pad2)*%
X621906472Y-605585059D02*
X621906472Y-599525059D01*
X623866472Y-597565059D02*
X626096472Y-597565059D01*
%TO.N,Net-(RV13-Pad1)*%
X680446472Y-601425059D02*
X653876472Y-601425059D01*
X649896472Y-605405059D02*
X649896472Y-612972559D01*
X684896472Y-605875059D02*
X680446472Y-601425059D01*
%TO.N,Net-(C21-Pad2)*%
X624896472Y-599285059D02*
X624896472Y-612972559D01*
%TO.N,Net-(RV12-Pad2)*%
X626096472Y-597565059D02*
X629896472Y-601365059D01*
%TO.N,Net-(RV13-Pad1)*%
X653876472Y-601425059D02*
X649896472Y-605405059D01*
%TO.N,Net-(U2A-K)*%
X624896472Y-594285059D02*
X617901472Y-594285059D01*
X628856472Y-594285059D02*
X624896472Y-594285059D01*
%TO.N,Net-(C27-Pad2)*%
X647276472Y-598905059D02*
X641896472Y-604285059D01*
%TO.N,Net-(RV12-Pad2)*%
X599916472Y-605535059D02*
X599896472Y-605555059D01*
%TO.N,Net-(C25-Pad2)*%
X699836472Y-598695059D02*
X699836472Y-601085059D01*
%TO.N,Net-(C27-Pad1)*%
X654896472Y-594285059D02*
X636476472Y-594285059D01*
%TO.N,Net-(C32-Pad2)*%
X704896472Y-596105059D02*
X702406472Y-593615059D01*
X699836472Y-593615059D02*
X693766472Y-593615059D01*
X702406472Y-593615059D02*
X699836472Y-593615059D01*
%TO.N,Net-(C25-Pad2)*%
X699836472Y-601085059D02*
X699836472Y-612912559D01*
X693716472Y-601065059D02*
X699816472Y-601065059D01*
X699816472Y-601065059D02*
X699836472Y-601085059D01*
%TO.N,GND*%
X699836472Y-596155059D02*
X697156472Y-596155059D01*
D19*
X657321472Y-615547559D02*
X609921472Y-615547559D01*
X609896472Y-612972559D02*
X609896472Y-615522559D01*
X609896472Y-615522559D02*
X609921472Y-615547559D01*
D18*
X697156472Y-596155059D02*
X696286472Y-597025059D01*
%TO.N,Net-(RV12-Pad2)*%
X621906472Y-599525059D02*
X623866472Y-597565059D01*
D19*
%TO.N,GND*%
X594471472Y-612897559D02*
X594471472Y-603922559D01*
D18*
%TO.N,Net-(C33-Pad2)*%
X654896472Y-604285059D02*
X654896472Y-612972559D01*
%TO.N,Net-(C27-Pad2)*%
X636858972Y-612972559D02*
X634896472Y-612972559D01*
D19*
%TO.N,GND*%
X597121472Y-615547559D02*
X594471472Y-612897559D01*
D18*
X691186472Y-591995059D02*
X692236472Y-590945059D01*
D19*
X609921472Y-615547559D02*
X597121472Y-615547559D01*
X659896472Y-612972559D02*
X657321472Y-615547559D01*
D18*
X709896472Y-596105059D02*
X709896472Y-612972559D01*
D19*
X601573972Y-596820059D02*
X617896472Y-596820059D01*
D18*
%TO.N,Net-(C32-Pad2)*%
X704896472Y-612972559D02*
X704896472Y-596105059D01*
%TO.N,GND*%
X692236472Y-590945059D02*
X704736472Y-590945059D01*
X704736472Y-590945059D02*
X709896472Y-596105059D01*
D19*
X594471472Y-603922559D02*
X601573972Y-596820059D01*
%TD*%
M02*
